<svg xmlns="http://www.w3.org/2000/svg" viewBox="0 0 485.75 273.75"><title>logo</title><g id="Layer_2" data-name="Layer 2"><g id="Layer_1-2" data-name="Layer 1"><path d="M112.68,150.85s-15.44,7.8-16.31,7.85c.21.34,1.19,4,2.13,7.62a8.36,8.36,0,0,1-5.4,10L90,177.41a10.91,10.91,0,0,1-4.66.59,10.61,10.61,0,0,1-9.06-7.39l-2.43-7.8s9.42.81,15.72-4.13c8.26-6.47,1-15.16,1-15.16,1.7-10.56-3.75-13.28-3.75-13.28l.34-4.26a33.4,33.4,0,0,0,12,5.7l1.11-2.47c-10.16-3-15.06-8.44-18.56-16.18l-8.34,1.19.17,5.62c-.68,6-8,5.11-8,5.11l-5.08-13.9a2.92,2.92,0,0,1,.88-3.25l13.28-11a6.37,6.37,0,0,1,6.61-.93c8.71,3.81,30.19,13.24,29.78,13.24s29.15-4.39,50.71-7.6V76.2A19.17,19.17,0,0,0,155.41,62L94.64,6.78a17.46,17.46,0,0,0-23.49,0L10.38,62A19.17,19.17,0,0,0,4.1,76.2V185.86H161.69v-37.1ZM83,18.21a8,8,0,1,1-8,8,8,8,0,0,1,8-8M37.07,68.77l2.38-14.48,4.6-1,5.44,16L65.34,65.7,60.91,48.84l4.51-1.7,8.31,7.12,3.53,15.57-4.6,10.68L75,89.89,56.82,104.36,51.88,87.5l-10.22-8Zm19.41,39.34,3.24,10.39L49.5,119.86s-.6-9.17,7-11.75m-2.6,24.48-2-6.26a2.3,2.3,0,0,1,1.83-2.25l7.11-1.46,3,6.26s11.54-.64,12.26-5.28a2.38,2.38,0,0,1,2.38-2.38h1.87a2.89,2.89,0,0,1,2.89,2.89v1.74a3.73,3.73,0,0,1-3,3.65l-23.33,4.86a2.62,2.62,0,0,1-3-1.77m4.79,11a4.34,4.34,0,0,1,1.18-4.86,4.57,4.57,0,0,1,2-1l18.67-4.33A4.65,4.65,0,0,1,86,136.37a4.89,4.89,0,0,1-1.78,5.49,5.06,5.06,0,0,1-2.22.87l-19.51,3.07a3.55,3.55,0,0,1-3.86-2.2m10.07,14.06s-5.45.18-6.64-7.49L84,147.08a4.42,4.42,0,0,1,4.52,2.17,4.26,4.26,0,0,1-2,6,35.45,35.45,0,0,1-17.75,2.45" style="fill:#ff9800"/><path d="M192.4,169.31h7.24V129.38H189.29v11.38H173.36V113.45h72.42v27.31H229.85V129.38H219.5v39.93h7.24v16.55H192.4Z" style="fill:#ff9800"/><path d="M248.42,113.45h47c4.86,0,12.1.72,16.76,5.17,2.9,2.79,4.86,7.14,4.86,12.93,0,4-.83,7.66-4,10.86a16.1,16.1,0,0,1-7.86,4.55v.31a20.62,20.62,0,0,1,10.76,5.17c4,4,4.66,8.48,4.66,12.52,0,7.35-2.69,11.59-5.28,14.38-5.48,5.69-14.17,6.52-19.86,6.52h-47V169.31h7.24V130h-7.24Zm27.1,28.24h12.93c2.38,0,5.07-.62,6.72-2.28a6.29,6.29,0,0,0,1.86-4.86,5.46,5.46,0,0,0-2-4.45c-1.76-1.34-4.76-1.45-5.59-1.45h-14Zm0,29h15.62a10.74,10.74,0,0,0,6.41-2,7.75,7.75,0,0,0-.1-11.07c-2.07-1.65-4.86-1.76-6.83-1.76h-15.1Z" style="fill:#ff9800"/><path d="M333.33,121.51c8.48-8.69,20-10.14,27.21-10.14,14.38,0,22.66,5.17,27.42,9.93,4.24,4.24,10.14,13.14,10.14,28.76,0,13.76-4.76,22.66-10.55,28.35-8,7.66-18.1,9.52-26.79,9.52-8.07,0-18.21-1.14-26.69-9.41-5.9-5.69-10.76-15-10.76-29.07S328.37,126.48,333.33,121.51Zm16.24,45.42c3.21,3.62,7.24,4.34,11.07,4.34a15.09,15.09,0,0,0,11.07-4.34c4-4.24,5.17-11.59,5.17-17.48,0-7.45-1.55-13.55-5.17-17.17-3.21-3.31-7-4.24-11.07-4.24-4.24,0-8.07,1.14-11.07,4.35-4.76,5.07-5.07,13.66-5.07,17.38C344.51,155.14,345.13,162.48,349.58,166.93Z" style="fill:#ff9800"/><path d="M400.18,113.45H434V130h-6.72v27.52l25.35-44.07h27.11V130H472.5v39.31h7.24v16.55H445.91V169.31h6.72v-28l-25.35,44.59h-27.1V169.31h7.24V130h-7.24Zm64.35-18.62c-.31,13.66-13.76,15.93-24.83,15.93-10.45,0-24.1-2.28-24.1-15.93h17.07c0,5,3.62,6.72,7.35,6.72s7.35-1.65,7.45-6.72Z" style="fill:#ff9800"/><path d="M108.3,269.64H75V253.16H81.6V216.88h-.32l-18,52.76H48.41l-18-52.76h-.32v36.27h6.59v16.49H3.42v-17h7.45V212.2H3.42v-17H41.07L56.92,244h.43l16.06-48.82H108.3v17h-7.45v40.42h7.45Z"/><path d="M125.32,195.18h33.61l21.38,57.44h7.45v17H155V254.43h5.43l-1.6-5.42H137l-1.6,5.42h6.38v15.21H110v-17h7.34l15-41h-7Zm15.53,40.63h13.93l-7-23.08Z"/><path d="M257.73,195.18v26H238.37a11.89,11.89,0,0,0-3.4-7.34c-3-3.3-6.38-3.51-9.68-3.51-3.72,0-7.66.53-11,3.94-5.42,5.42-5.53,15.85-5.53,18.4,0,8.94,2.55,14.79,6.06,18.08,3.08,2.87,6.7,3.83,10.85,3.83s7.55-1.28,9.57-3.08a13.4,13.4,0,0,0,4.25-8.72h20.1a33.24,33.24,0,0,1-9,19.78c-7.45,7.66-17.55,9.25-26.06,9.25-8.94,0-19.15-1.59-27.12-9.79-3.19-3.51-10.42-12.23-10.42-29.89,0-14.36,4.36-23.61,9.57-29,8-8.3,18.19-10,26.06-10,8.4,0,15.1,3,19,6.7l.43-4.57Z"/><path d="M280.11,252.62h7.45V211.57H276.92v11.7H260.54V195.18H335v28.08H318.62v-11.7H308v41.06h7.45v17H280.11Z"/><path d="M337.72,195.18h67.76v23.93H389.1V212.2H365.59V224h19.78v15.64H365.59v12.87h24.46v-8.4h16.38v25.53H337.72v-17h7.45V212.2h-7.45Z"/><path d="M411.19,195.18h43c6.7,0,16.17.53,22.66,7,5.74,5.74,6.7,13.08,6.7,18.08s-1.49,12.87-7.34,18.51c-6.49,6.49-17,6.91-22.66,6.91H439.06v8h10.1v16h-38v-17h7.45V212.2h-7.45Zm27.87,36.17h11.28c6.81,0,12.13-3,12.13-9.68,0-7.23-3.51-9.47-12.45-9.47h-11Z"/><rect width="485.75" height="273.75" style="fill:none"/></g></g></svg>