<svg width="100" height="100" viewBox="0 0 100 100" fill="none" xmlns="http://www.w3.org/2000/svg">
<path d="M20.3125 82.4219C17.9492 82.4219 16.0156 80.4883 16.0156 78.125C16.0156 75.7617 17.9492 73.8281 20.3125 73.8281C22.6758 73.8281 24.6094 75.7617 24.6094 78.125C24.6094 80.4883 22.6758 82.4219 20.3125 82.4219ZM20.3125 76.1719C19.2383 76.1719 18.3594 77.0508 18.3594 78.125C18.3594 79.1992 19.2383 80.0781 20.3125 80.0781C21.3867 80.0781 22.2656 79.1992 22.2656 78.125C22.2656 77.0508 21.3867 76.1719 20.3125 76.1719Z" fill="#FF9800"/>
<path d="M79.6875 82.4219C77.3242 82.4219 75.3906 80.4883 75.3906 78.125C75.3906 75.7617 77.3242 73.8281 79.6875 73.8281C82.0508 73.8281 83.9844 75.7617 83.9844 78.125C83.9844 80.4883 82.0508 82.4219 79.6875 82.4219ZM79.6875 76.1719C78.6133 76.1719 77.7344 77.0508 77.7344 78.125C77.7344 79.1992 78.6133 80.0781 79.6875 80.0781C80.7617 80.0781 81.6406 79.1992 81.6406 78.125C81.6406 77.0508 80.7617 76.1719 79.6875 76.1719Z" fill="#FF9800"/>
<path d="M79.668 88.6719C74.4727 88.6719 69.9805 84.7852 69.2383 79.6289L69.1992 79.2969H30.8008L30.7617 79.6289C30.0977 84.2188 26.4258 87.8906 21.8359 88.5547C21.3281 88.6328 20.8203 88.6719 20.3125 88.6719C15.1172 88.6719 10.625 84.7852 9.88281 79.6289L9.84375 79.2969H3.125C2.48047 79.2969 1.95312 78.7695 1.95312 78.125V21.0938C1.95312 18.3008 4.23828 16.0156 7.03125 16.0156H58.5938C61.3867 16.0156 63.6719 18.3008 63.6719 21.0938V30.0781H82.8125C83.2227 30.0781 83.5742 30.2734 83.7891 30.625L97.8516 52.5C97.9688 52.6953 98.0469 52.9102 98.0469 53.125V78.125C98.0469 78.7695 97.5195 79.2969 96.875 79.2969H90.1758L90.1367 79.6289C89.4727 84.2188 85.8008 87.8906 81.2109 88.5547C80.6836 88.6328 80.1758 88.6719 79.668 88.6719ZM79.6875 69.9219C75.1562 69.9219 71.4844 73.5938 71.4844 78.125C71.4844 82.6562 75.1562 86.3281 79.6875 86.3281C84.1992 86.3281 87.8906 82.6367 87.8906 78.125C87.8906 73.5938 84.2188 69.9219 79.6875 69.9219ZM20.3125 69.9219C15.7812 69.9219 12.1094 73.5938 12.1094 78.125C12.1094 82.6562 15.7812 86.3281 20.3125 86.3281C24.8242 86.3281 28.5156 82.6367 28.5156 78.125C28.5156 73.5938 24.8438 69.9219 20.3125 69.9219ZM79.707 67.5781C84.9023 67.5781 89.3945 71.4648 90.1367 76.6211L90.1758 76.9531H95.7031V66.7969H92.1875C89.8242 66.7969 87.8906 64.8633 87.8906 62.5C87.8906 60.1367 89.8242 58.2031 92.1875 58.2031H95.7031V54.2969H70.3125C69.668 54.2969 69.1406 53.7695 69.1406 53.125V35.9375C69.1406 35.293 69.668 34.7656 70.3125 34.7656H83.6719L82.168 32.4219H63.6719V76.9531H69.1992L69.2383 76.6211C69.9023 72.0312 73.5742 68.3594 78.1641 67.6953C78.6914 67.6172 79.1992 67.5781 79.707 67.5781ZM20.332 67.5781C25.5273 67.5781 30.0195 71.4648 30.7617 76.6211L30.8008 76.9531H61.3281V60.5469H4.29688V76.9531H9.82422L9.86328 76.6211C10.5273 72.0312 14.1992 68.3594 18.7891 67.6953C19.3164 67.6172 19.8242 67.5781 20.332 67.5781ZM92.1875 60.5469C91.1133 60.5469 90.2344 61.4258 90.2344 62.5C90.2344 63.5742 91.1133 64.4531 92.1875 64.4531H95.7031V60.5469H92.1875ZM7.03125 18.3594C5.52734 18.3594 4.29688 19.5898 4.29688 21.0938V58.2031H61.3281V21.0938C61.3281 19.5898 60.0977 18.3594 58.5938 18.3594H7.03125ZM71.4844 51.9531H94.7266L85.1758 37.1094H71.4844V51.9531Z" fill="#FF9800"/>
<path d="M70.3125 60.5469C69.668 60.5469 69.1406 60.0195 69.1406 59.375C69.1406 58.7305 69.668 58.2031 70.3125 58.2031H75C75.6445 58.2031 76.1719 58.7305 76.1719 59.375C76.1719 60.0195 75.6445 60.5469 75 60.5469H70.3125Z" fill="#FF9800"/>
<path d="M42.1875 66.7969C41.543 66.7969 41.0156 66.2695 41.0156 65.625C41.0156 64.9805 41.543 64.4531 42.1875 64.4531H54.6875C55.332 64.4531 55.8594 64.9805 55.8594 65.625C55.8594 66.2695 55.332 66.7969 54.6875 66.7969H42.1875Z" fill="#FF9800"/>
<path d="M50 71.4844C49.3555 71.4844 48.8281 70.957 48.8281 70.3125C48.8281 69.668 49.3555 69.1406 50 69.1406H54.6875C55.332 69.1406 55.8594 69.668 55.8594 70.3125C55.8594 70.957 55.332 71.4844 54.6875 71.4844H50Z" fill="#FF9800"/>
</svg>
