<svg width="34" height="33" viewBox="0 0 34 33" fill="none" xmlns="http://www.w3.org/2000/svg">
<g clip-path="url(#clip0)">
<path d="M8.16136 16.8939L23.653 32.3855C23.9615 32.6941 24.4618 32.6941 24.7702 32.3855L26.2599 30.8958C26.4081 30.7477 26.4913 30.5467 26.4913 30.3372C26.4913 30.1277 26.4081 29.9267 26.2599 29.7786L12.8165 16.3353L26.2599 2.89189C26.4081 2.74379 26.4914 2.54281 26.4914 2.3333C26.4914 2.12379 26.4081 1.92281 26.2599 1.77471L24.7702 0.284965C24.616 0.130755 24.4137 0.0535456 24.2116 0.0535456C24.0095 0.0535456 23.8072 0.130649 23.653 0.284964L8.16136 15.7766C7.85273 16.0851 7.85273 16.5854 8.16136 16.8939Z" fill="#FF9800"/>
</g>
<defs>
<clipPath id="clip0">
<rect width="32.5634" height="32.5634" fill="white" transform="translate(33.4923 32.6169) rotate(-180)"/>
</clipPath>
</defs>
</svg>
