<svg width="32" height="32" viewBox="0 0 32 32" fill="none" xmlns="http://www.w3.org/2000/svg">
<path d="M10.2419 14.749C9.45378 14.5221 8.66563 14.4069 7.89896 14.4069C6.71506 14.4069 5.72718 14.6775 4.96119 15.0088C5.69966 12.3053 7.47367 7.64051 11.0076 7.11519C11.3349 7.06651 11.6031 6.82987 11.6924 6.51132L12.4647 3.74876C12.5299 3.51513 12.4912 3.26506 12.358 3.06232C12.2247 2.85957 12.0106 2.7243 11.7706 2.6914C11.5098 2.65582 11.2439 2.6377 10.9804 2.6377C6.73855 2.6377 2.53766 7.06517 0.764989 13.4046C-0.275585 17.1238 -0.580708 22.7154 1.98246 26.2349C3.41677 28.2043 5.50933 29.2559 8.20207 29.361C8.21315 29.3613 8.22389 29.3617 8.23497 29.3617C11.5574 29.3617 14.5036 27.1241 15.3998 23.9208C15.9352 22.0058 15.6932 19.9975 14.7177 18.2644C13.7527 16.5508 12.1633 15.3018 10.2419 14.749Z" fill="#FF9800"/>
<path d="M31.0396 18.2648C30.0746 16.5508 28.4852 15.3018 26.5638 14.749C25.7757 14.5221 24.9875 14.4069 24.2212 14.4069C23.0373 14.4069 22.0491 14.6775 21.2831 15.0088C22.0216 12.3053 23.7956 7.64051 27.3298 7.11519C27.6571 7.06651 27.925 6.82987 28.0146 6.51132L28.787 3.74876C28.8521 3.51513 28.8135 3.26506 28.6802 3.06232C28.5473 2.85957 28.3331 2.7243 28.0928 2.6914C27.8323 2.65582 27.5665 2.6377 27.3026 2.6377C23.0608 2.6377 18.8599 7.06517 17.0869 13.4046C16.0467 17.1238 15.7415 22.7154 18.305 26.2356C19.739 28.2046 21.8319 29.2566 24.5243 29.3613C24.5354 29.3617 24.5461 29.362 24.5575 29.362C27.8797 29.362 30.8262 27.1244 31.7224 23.9211C32.2571 22.0061 32.0148 19.9975 31.0396 18.2648Z" fill="#FF9800"/>
</svg>
