<svg width="90" height="90" viewBox="0 0 90 90" fill="none" xmlns="http://www.w3.org/2000/svg">
<circle cx="44.6246" cy="44.6246" r="44.6246" fill="#FF9800"/>
<g clip-path="url(#clip0)">
<path d="M64.9249 27.4618L62.3507 24.8876C60.6719 23.2088 57.8431 23.1111 56.0447 24.67L51.5205 28.5917C51.4626 28.6419 51.4129 28.701 51.3734 28.7666L46.9694 36.1026L44.1416 37.0452C43.9027 37.1248 43.722 37.3225 43.6642 37.5676C43.6064 37.8127 43.6795 38.0702 43.8576 38.2483L51.5641 45.9548C51.702 46.0926 51.8875 46.1676 52.0779 46.1676C52.1336 46.1676 52.1896 46.1612 52.2449 46.1482C52.4899 46.0903 52.6876 45.9097 52.7673 45.6707L53.7101 42.8421L61.1539 38.3472C61.2194 38.3076 61.2783 38.258 61.3284 38.1999L65.1572 33.7629C66.7073 31.9666 66.603 29.14 64.9249 27.4618ZM64.0571 32.8135L60.3038 37.1629L52.7299 41.7363C52.5821 41.8255 52.4709 41.9646 52.4162 42.1286L51.7605 44.0959L50.0239 42.3593C50.0236 42.3589 50.0233 42.3585 50.023 42.3582L47.454 39.7894C47.4538 39.7892 47.4534 39.789 47.4532 39.7887L45.7164 38.052L47.6837 37.3962C47.8482 37.3413 47.9877 37.2296 48.0769 37.081L52.5598 29.6139L56.9965 25.768C58.2309 24.6979 60.1718 24.7638 61.323 25.9152L63.8973 28.4894C65.0491 29.6411 65.1208 31.5809 64.0571 32.8135Z" fill="white"/>
<path d="M62.8652 52.7565C60.7319 50.6233 57.5921 49.8818 54.7474 50.804L39.3057 35.3624C40.2278 32.5176 39.4863 29.3778 37.3532 27.2445C35.1058 24.9973 31.7413 24.2943 28.7815 25.4543C28.5534 25.5437 28.3855 25.7422 28.3354 25.9821C28.2853 26.222 28.3595 26.4711 28.5329 26.6445L33.1549 31.2665L30.0722 34.3491L25.4503 29.727C25.2768 29.5537 25.028 29.4797 24.7879 29.5296C24.5479 29.5797 24.3494 29.7474 24.26 29.9757C23.1002 32.9353 23.8029 36.2999 26.0503 38.5474C28.1835 40.6806 31.3233 41.4222 34.168 40.4998L39.942 46.2738L32.7516 53.4644L28.1783 56.0214C28.0511 56.0925 27.9482 56.2003 27.883 56.3307L25.8279 60.4408C25.688 60.7205 25.7428 61.0583 25.964 61.2796L28.5328 63.8484C28.6723 63.9879 28.8583 64.0612 29.0468 64.0612C29.1571 64.0612 29.2683 64.0361 29.3716 63.9845L33.4817 61.9295C33.612 61.8643 33.7198 61.7614 33.7909 61.6342L36.3479 57.0608L43.5385 49.8704L49.6098 55.9417C48.6876 58.7864 49.4292 61.9263 51.5624 64.0595C53.0904 65.5876 55.1348 66.4015 57.2174 66.4015C58.1976 66.4014 59.1866 66.221 60.134 65.8499C60.3621 65.7604 60.53 65.5619 60.5801 65.322C60.6302 65.0821 60.556 64.833 60.3826 64.6596L55.7606 60.0376L58.8432 56.955L63.4652 61.577C63.6385 61.7504 63.8875 61.8248 64.1275 61.7745C64.3675 61.7244 64.566 61.5566 64.6554 61.3284C65.8153 58.3686 65.1126 55.004 62.8652 52.7565ZM35.249 56.1044C35.2017 56.1517 35.1613 56.2053 35.1287 56.2637L32.6317 60.7297L29.1901 62.4505L27.3619 60.6223L29.0826 57.1806L33.5485 54.6837C33.6069 54.6511 33.6605 54.6106 33.7078 54.5634L40.9695 47.3016L42.5108 48.8429L35.249 56.1044ZM63.6286 59.6851L59.357 55.4136C59.0732 55.1299 58.6132 55.1299 58.3294 55.4136L54.2193 59.5237C54.0831 59.66 54.0066 59.8447 54.0066 60.0375C54.0066 60.2303 54.0831 60.4149 54.2193 60.5513L58.491 64.823C56.3729 65.2438 54.1517 64.5938 52.5899 63.032C50.7511 61.1931 50.176 58.4399 51.1251 56.0181C51.2304 55.7492 51.1666 55.4434 50.9624 55.2392L34.8705 39.1474C34.7316 39.0086 34.5458 38.9346 34.3565 38.9346C34.2675 38.9346 34.1777 38.951 34.0916 38.9847C31.6699 39.9339 28.9167 39.3587 27.0777 37.52C25.5158 35.958 24.8657 33.7367 25.2868 31.6188L29.5584 35.8905C29.8422 36.1742 30.3022 36.174 30.586 35.8905L34.6961 31.7804C34.9798 31.4966 34.9798 31.0366 34.6961 30.7528L30.4245 26.4812C32.5426 26.0595 34.7636 26.7101 36.3256 28.2721C38.1644 30.111 38.7395 32.8642 37.7904 35.286C37.6851 35.555 37.7489 35.8607 37.9531 36.0649L54.0448 52.1566C54.2491 52.3607 54.555 52.4246 54.8237 52.3192C57.2456 51.3704 59.9987 51.9452 61.8376 53.784C63.3996 55.346 64.0496 57.5673 63.6286 59.6851Z" fill="white"/>
</g>
<defs>
<clipPath id="clip0">
<rect width="42.8396" height="42.8396" fill="white" transform="translate(23.5618 23.5618)"/>
</clipPath>
</defs>
</svg>
