<svg width="86" height="86" viewBox="0 0 86 86" fill="none" xmlns="http://www.w3.org/2000/svg">
<g clip-path="url(#clip0)">
<path d="M76.9656 0H51.0379C47.342 0 44.3349 3.00649 44.3349 6.70308V30.7851C44.3349 34.481 47.342 37.4875 51.0379 37.4875H76.9656C80.6615 37.4875 83.6687 34.481 83.6687 30.7851V6.70308C83.6687 3.00649 80.6615 0 76.9656 0ZM80.3259 30.7844C80.3259 32.6373 78.8185 34.1448 76.9656 34.1448H51.0379C49.1851 34.1448 47.6776 32.6373 47.6776 30.7844V6.70308C47.6776 4.85022 49.1851 3.34273 51.0379 3.34273H76.9656C78.8185 3.34273 80.3259 4.85022 80.3259 6.70308V30.7844Z" fill="#FF9800"/>
<path d="M64.0014 6.92236C57.4831 6.92236 52.1805 12.2257 52.1805 18.744C52.1805 25.2623 57.4831 30.565 64.0014 30.565C70.5198 30.565 75.8231 25.2623 75.8231 18.744C75.8231 12.2257 70.5198 6.92236 64.0014 6.92236ZM64.0014 27.2222C59.3268 27.2222 55.5232 23.4186 55.5232 18.7433C55.5232 14.0687 59.3268 10.2651 64.0014 10.2651C68.6767 10.2651 72.4803 14.0687 72.4803 18.7433C72.4803 23.4186 68.6767 27.2222 64.0014 27.2222Z" fill="#FF9800"/>
<path d="M60.1149 15.355C59.1917 15.355 58.4435 16.1032 58.4435 17.0263V20.4611C58.4435 21.3843 59.1917 22.1325 60.1149 22.1325C61.038 22.1325 61.7862 21.3843 61.7862 20.4611V17.0263C61.7862 16.1032 61.038 15.355 60.1149 15.355Z" fill="#FF9800"/>
<path d="M67.8886 15.355C66.9655 15.355 66.2173 16.1032 66.2173 17.0263V20.4611C66.2173 21.3843 66.9655 22.1325 67.8886 22.1325C68.8118 22.1325 69.56 21.3843 69.56 20.4611V17.0263C69.56 16.1032 68.8118 15.355 67.8886 15.355Z" fill="#FF9800"/>
<path d="M71.4207 82.2311H51.1052C48.4506 82.2311 46.2909 80.0714 46.2909 77.4168V63.8748C46.2909 59.9288 43.0807 56.7186 39.1347 56.7186C35.1887 56.7186 31.9785 59.9288 31.9785 63.8748V77.3737C31.9785 80.0518 29.7992 82.2311 27.1211 82.2311C24.4424 82.2311 22.2631 80.0518 22.2631 77.3737V63.4361C24.3464 63.3362 26.0099 61.61 26.0099 59.5025V57.7267H26.0909C31.1807 57.7267 35.3212 53.5861 35.3212 48.4963V38.1717H37.3661C38.365 38.1717 39.1778 37.3589 39.1778 36.3594V33.1844C39.1778 30.6245 37.0951 28.5418 34.5352 28.5418H31.3446V16.2012C31.3446 13.809 29.3983 11.8628 27.0062 11.8628C24.6141 11.8628 22.6672 13.809 22.6672 16.2012V28.5418H18.5162V16.2012C18.5162 13.809 16.57 11.8628 14.1772 11.8628C11.7851 11.8628 9.83884 13.809 9.83884 16.2012V28.5418H6.64823C4.0883 28.5418 2.00563 30.6245 2.00563 33.1844V36.3594C2.00563 37.3589 2.81846 38.1717 3.81801 38.1717H5.86217V48.4963C5.86217 53.5861 10.0034 57.7267 15.0925 57.7267H15.1735V59.5025C15.1735 61.61 16.8377 63.3362 18.9203 63.4361V77.3737C18.9203 81.8955 22.5993 85.5738 27.1211 85.5738C31.6423 85.5738 35.3212 81.8948 35.3212 77.3737V63.8748C35.3212 61.7719 37.0318 60.0614 39.1347 60.0614C41.2376 60.0614 42.9481 61.7719 42.9481 63.8748V77.4168C42.9481 81.9144 46.6075 85.5738 51.1052 85.5738H71.4207C72.3439 85.5738 73.0921 84.8256 73.0921 83.9024C73.0921 82.9793 72.3439 82.2311 71.4207 82.2311ZM26.0099 16.2012C26.0099 15.6521 26.4571 15.2055 27.0062 15.2055C27.5553 15.2055 28.0018 15.6521 28.0018 16.2012V28.5418H26.0099V16.2012ZM13.1816 16.2012C13.1816 15.6521 13.6281 15.2055 14.1772 15.2055C14.7263 15.2055 15.1735 15.6521 15.1735 16.2012V28.5418H13.1816V16.2012ZM9.20489 48.4963V38.1717H18.1565C19.0796 38.1717 19.8278 37.4229 19.8278 36.5004C19.8278 35.5772 19.0796 34.829 18.1565 34.829H5.34836V33.1844C5.34836 32.4676 5.93137 31.8845 6.64823 31.8845H34.5358C35.252 31.8845 35.8351 32.4676 35.8351 33.1844V34.829H31.5274C30.6042 34.829 29.856 35.5772 29.856 36.5004C29.856 37.4229 30.6042 38.1717 31.5274 38.1717H31.9785V48.4963C31.9785 51.7431 29.3376 54.384 26.0909 54.384H15.0925C11.8464 54.384 9.20489 51.7431 9.20489 48.4963ZM18.5162 59.5025V57.7267H22.6672V59.5025C22.6672 59.8309 22.4002 60.0979 22.0724 60.0979H19.111C18.7832 60.0973 18.5162 59.8309 18.5162 59.5025Z" fill="#FF9800"/>
<path d="M24.8419 38.1718H24.8458C25.769 38.1718 26.5152 37.423 26.5152 36.5005C26.5152 35.5773 25.7651 34.8291 24.8419 34.8291C23.9188 34.8291 23.1706 35.5773 23.1706 36.5005C23.1706 37.423 23.9188 38.1718 24.8419 38.1718Z" fill="#FF9800"/>
</g>
<defs>
<clipPath id="clip0">
<rect width="85.5738" height="85.5738" fill="white"/>
</clipPath>
</defs>
</svg>
