<svg width="86" height="86" viewBox="0 0 86 86" fill="none" xmlns="http://www.w3.org/2000/svg">
<g clip-path="url(#clip0)">
<path d="M69.2175 85.5783C67.4256 85.5783 65.7071 84.8665 64.4401 83.5994C63.1731 82.3324 62.4613 80.6139 62.4613 78.8221V75.9687H23.1223V78.8221C23.1223 80.6139 22.4105 82.3324 21.1434 83.5994C19.8764 84.8665 18.158 85.5783 16.3661 85.5783C14.5743 85.5783 12.8558 84.8665 11.5888 83.5994C10.3217 82.3324 9.60993 80.6139 9.60993 78.8221V74.8247L9.38472 74.6941C8.0011 73.8927 6.85069 72.7439 6.04728 71.3615C5.24388 69.979 4.81533 68.4108 4.80403 66.8119V44.9173L4.62387 44.7822C3.23436 43.7466 2.09667 42.4106 1.2957 40.8739C0.494735 39.3371 0.0511772 37.6393 -0.00186979 35.9072C-0.0549168 34.175 0.283917 32.4533 0.989344 30.8704C1.69477 29.2875 2.74858 27.8844 4.07211 26.7657C5.79802 25.3337 7.90409 24.436 10.1324 24.1826L10.4432 24.1421L10.513 23.8358C13.747 9.80322 26.0342 0 40.3888 0H45.1925C59.5494 0 71.8389 9.80096 75.0728 23.8358L75.1449 24.1443L75.4579 24.1826C75.6066 24.2006 75.7574 24.2096 75.9083 24.2187C76.1078 24.2251 76.3065 24.2462 76.5029 24.2817C78.6625 24.7513 80.6416 25.8319 82.2044 27.3945C83.7672 28.9572 84.848 30.9362 85.3179 33.0957C85.7877 35.2552 85.627 37.5043 84.8547 39.5751C84.0824 41.6458 82.7312 43.451 80.962 44.7755L80.7818 44.9106V66.8028C80.7705 68.4018 80.3419 69.97 79.5385 71.3525C78.7351 72.7349 77.5847 73.8837 76.2011 74.6851L75.9759 74.8157V78.8221C75.9759 79.7095 75.8011 80.5882 75.4614 81.4081C75.1217 82.2279 74.6239 82.9728 73.9963 83.6002C73.3686 84.2276 72.6236 84.7252 71.8036 85.0646C70.9837 85.404 70.1049 85.5786 69.2175 85.5783ZM66.3596 78.8221C66.3489 79.2034 66.4147 79.583 66.5532 79.9384C66.6918 80.2938 66.9001 80.6178 67.1661 80.8913C67.432 81.1648 67.75 81.3822 68.1014 81.5307C68.4528 81.6791 68.8304 81.7556 69.2118 81.7556C69.5933 81.7556 69.9709 81.6791 70.3222 81.5307C70.6736 81.3822 70.9917 81.1648 71.2576 80.8913C71.5235 80.6178 71.7319 80.2938 71.8704 79.9384C72.0089 79.583 72.0748 79.2034 72.0641 78.8221V75.9687H66.3596V78.8221ZM13.5105 78.8221C13.4998 79.2034 13.5656 79.583 13.7041 79.9384C13.8427 80.2938 14.051 80.6178 14.317 80.8913C14.5829 81.1648 14.9009 81.3822 15.2523 81.5307C15.6037 81.6791 15.9813 81.7556 16.3627 81.7556C16.7442 81.7556 17.1218 81.6791 17.4732 81.5307C17.8245 81.3822 18.1426 81.1648 18.4085 80.8913C18.6744 80.6178 18.8828 80.2938 19.0213 79.9384C19.1598 79.583 19.2257 79.2034 19.215 78.8221V75.9687H13.5105V78.8221ZM11.5512 27.9255C9.73414 27.9162 7.97479 28.5631 6.59667 29.7475C5.66121 30.5372 4.92995 31.5408 4.46491 32.6733C3.99987 33.8058 3.81475 35.0337 3.92525 36.2529C4.03575 37.4721 4.43861 38.6468 5.09967 39.6772C5.76073 40.7076 6.6605 41.5634 7.7227 42.1721C8.01726 42.3445 8.26173 42.5908 8.43196 42.8866C8.60219 43.1824 8.69228 43.5176 8.69334 43.8589V66.8119C8.69423 67.5027 8.83118 68.1866 9.09638 68.8246C9.36158 69.4625 9.74983 70.0419 10.239 70.5298C10.7281 71.0177 11.3086 71.4045 11.9472 71.668C12.5858 71.9316 13.27 72.0668 13.9609 72.0659H71.6136C73.0066 72.0641 74.3419 71.51 75.3269 70.5251C76.3118 69.5401 76.8659 68.2048 76.8677 66.8119V43.8589C76.8683 43.5175 76.9582 43.1822 77.1285 42.8863C77.2988 42.5904 77.5435 42.3441 77.8383 42.1721C80.8606 40.4132 82.2704 37.0621 81.4416 33.6345C81.0897 32.2723 80.3672 31.0343 79.3542 30.058C78.3413 29.0816 77.0776 28.405 75.7034 28.1035C75.148 27.9863 74.582 27.9267 74.0143 27.9255C71.9855 27.9285 70.0408 28.7366 68.6073 30.1722C67.1738 31.6078 66.3686 33.5537 66.3686 35.5825V48.354L66.6681 48.4598C68.1706 48.9874 69.4377 50.0301 70.2446 51.4029C71.0516 52.7758 71.3462 54.39 71.0764 55.9594C70.8065 57.5288 69.9895 58.9519 68.7703 59.9763C67.5511 61.0007 66.0085 61.5602 64.4161 61.5555H21.1675C19.5751 61.5602 18.0325 61.0007 16.8133 59.9763C15.5941 58.9519 14.7771 57.5288 14.5072 55.9594C14.2373 54.39 14.532 52.7758 15.3389 51.4029C16.1459 50.0301 17.413 48.9874 18.9154 48.4598L19.215 48.354V36.096C19.215 32.0873 16.481 28.6214 12.8574 28.0314C12.4255 27.9611 11.9887 27.9257 11.5512 27.9255ZM21.1675 51.9483C20.4249 51.9691 19.7197 52.2788 19.2019 52.8114C18.684 53.344 18.3943 54.0576 18.3943 54.8005C18.3943 55.5434 18.684 56.257 19.2019 56.7896C19.7197 57.3222 20.4249 57.6319 21.1675 57.6527H64.4071C65.1496 57.6319 65.8548 57.3222 66.3727 56.7896C66.8905 56.257 67.1803 55.5434 67.1803 54.8005C67.1803 54.0576 66.8905 53.344 66.3727 52.8114C65.8548 52.2788 65.1496 51.9691 64.4071 51.9483H21.1675ZM40.3843 3.90282C34.4545 3.91256 28.6954 5.88871 24.0088 9.52179C19.3223 13.1549 15.9731 18.2397 14.4856 23.9799L14.3753 24.4011L14.7919 24.5249C19.6947 25.9888 23.1245 30.7474 23.1245 36.096V48.0432H62.4545V35.5825C62.4344 33.0823 63.2402 30.6454 64.7469 28.65C66.2536 26.6546 68.3769 25.2125 70.7871 24.5475L71.206 24.4258L71.0957 24.0025C69.6108 18.2597 66.2626 13.1718 61.5759 9.53614C56.8891 5.90044 51.1286 3.92234 45.197 3.91183L40.3843 3.90282Z" fill="#FF9800"/>
</g>
<defs>
<clipPath id="clip0">
<rect width="85.5738" height="85.5783" fill="white"/>
</clipPath>
</defs>
</svg>
