<svg width="90" height="90" viewBox="0 0 90 90" fill="none" xmlns="http://www.w3.org/2000/svg">
<circle cx="44.6246" cy="44.6246" r="44.6246" fill="#FF9800"/>
<g clip-path="url(#clip0)">
<path d="M16.7965 68.0003C16.5853 68.0003 16.3826 67.9163 16.2332 67.7669C16.0838 67.6176 15.9999 67.4149 15.9999 67.2037V57.0753C15.9923 55.3237 16.5832 53.622 17.6746 52.2519C18.7661 50.8819 20.2928 49.9257 22.0018 49.5417L30.5494 47.5866L30.1113 47.1496C29.3845 46.4283 28.8081 45.5699 28.4154 44.6243C28.0228 43.6786 27.8217 42.6644 27.8239 41.6404V37.4821H26.4583C26.247 37.4821 26.0444 37.3982 25.895 37.2488C25.7456 37.0994 25.6617 36.8968 25.6617 36.6855V32.3303C25.662 32.1644 25.7142 32.0027 25.8109 31.8678C25.9076 31.733 26.044 31.6317 26.2011 31.5781L26.4287 31.4996V30.9647C26.4273 28.7113 27.2548 26.5361 28.7536 24.8535C30.2524 23.1708 32.3178 22.0983 34.5564 21.8401L34.784 21.814L34.8443 21.5863C34.8905 21.4181 34.9907 21.2696 35.1295 21.1638C35.2683 21.058 35.438 21.0007 35.6125 21.0007C35.787 21.0007 35.9566 21.058 36.0954 21.1638C36.2342 21.2696 36.3344 21.4181 36.3806 21.5863L36.4409 21.814L36.6685 21.8401C38.4804 22.0536 40.1879 22.8004 41.5746 23.9859C42.9613 25.1714 43.9646 26.742 44.4571 28.4986L44.7917 29.6776L45.1206 28.4986C45.613 26.742 46.6162 25.1712 48.0029 23.9857C49.3896 22.8002 51.0973 22.0534 52.9091 21.8401L53.1367 21.814L53.1971 21.5863C53.2433 21.4181 53.3435 21.2696 53.4823 21.1638C53.621 21.058 53.7907 21.0007 53.9652 21.0007C54.1397 21.0007 54.3094 21.058 54.4482 21.1638C54.587 21.2696 54.6872 21.4181 54.7334 21.5863L54.7937 21.814L55.0213 21.8401C57.2593 22.0985 59.3241 23.1708 60.8226 24.853C62.3212 26.5351 63.1488 28.7096 63.1479 30.9625V31.4973L63.3755 31.5758C63.5325 31.6294 63.6689 31.7307 63.7656 31.8656C63.8623 32.0004 63.9145 32.1621 63.9149 32.3281V36.6833C63.9149 36.8945 63.831 37.0971 63.6816 37.2465C63.5322 37.3959 63.3295 37.4799 63.1183 37.4799H61.7527V41.6382C61.756 42.662 61.5562 43.6764 61.1647 44.6224C60.7732 45.5685 60.1979 46.4275 59.4721 47.1496L59.0351 47.5866L67.5816 49.5417C69.2906 49.9257 70.8173 50.8819 71.9087 52.2519C73.0002 53.622 73.5911 55.3237 73.5835 57.0753V67.2037C73.5835 67.4149 73.4995 67.6176 73.3501 67.7669C73.2007 67.9163 72.9981 68.0003 72.7868 68.0003H16.7965ZM68.9176 66.4071H71.9902V57.0753C71.9908 56.1065 71.762 55.1513 71.3225 54.2879C70.883 53.4245 70.2453 52.6775 69.4616 52.1079L68.9176 51.713V66.4071ZM57.9289 51.9656C57.9255 52.7679 57.6799 53.5505 57.2242 54.2109C56.7686 54.8712 56.1241 55.3786 55.3752 55.6665L55.1237 55.7632L55.159 56.0306C55.2049 56.3758 55.2281 56.7237 55.2284 57.0719V66.4036H67.3244V51.1178L57.9255 48.9681L57.9289 51.9656ZM50.5682 66.4071H53.6409V57.0753C53.6416 56.1065 53.4128 55.1513 52.9733 54.2879C52.5337 53.4245 51.896 52.6774 51.1122 52.1079L50.5705 51.7176L50.5682 66.4071ZM39.5762 51.9656C39.5742 52.833 39.2884 53.6759 38.7623 54.3656C38.2362 55.0552 37.4989 55.5537 36.6628 55.7848L36.4113 55.8542V66.4071H48.975V51.1178L39.5762 48.9681V51.9656ZM26.0144 61.6274C26.2257 61.6274 26.4283 61.7113 26.5777 61.8607C26.7271 62.0101 26.8111 62.2127 26.8111 62.424V66.4071H34.8193V55.8531L34.5678 55.7837C33.7317 55.5526 32.9944 55.0541 32.4683 54.3644C31.9422 53.6748 31.6564 52.8319 31.6544 51.9645V48.9681L22.259 51.1178V66.4071H25.2178V62.424C25.2178 62.2127 25.3018 62.0101 25.4512 61.8607C25.6006 61.7113 25.8032 61.6274 26.0144 61.6274ZM20.1218 52.1045C19.3376 52.6744 18.6996 53.422 18.2601 54.286C17.8206 55.1501 17.592 56.1059 17.5931 57.0753V66.4071H20.6658V51.713L20.1218 52.1045ZM33.2477 51.9656C33.2477 52.5936 33.4971 53.1958 33.9411 53.6398C34.3852 54.0838 34.9874 54.3333 35.6153 54.3333C36.2432 54.3333 36.8455 54.0838 37.2895 53.6398C37.7335 53.1958 37.9829 52.5936 37.9829 51.9656V49.0762L37.5562 49.19C36.2829 49.5164 34.9478 49.5164 33.6744 49.19L33.2477 49.0762V51.9656ZM51.6004 50.5124L51.7552 50.6137C52.991 51.4195 53.9672 52.5656 54.5661 53.9139L54.7118 54.2417L55.0315 54.0801C55.4222 53.8809 55.7505 53.578 55.9805 53.2047C56.2106 52.8313 56.3335 52.4019 56.3357 51.9634V49.0762L55.909 49.19C54.6356 49.5164 53.3005 49.5164 52.0272 49.19L51.6004 49.0762V50.5124ZM43.4067 41.6359C43.4089 42.6598 43.2078 43.674 42.8152 44.6197C42.4225 45.5654 41.8461 46.4237 41.1193 47.145L40.6823 47.582L44.7917 48.5266L48.9022 47.5866L48.4652 47.1496C47.7384 46.4283 47.162 45.5699 46.7693 44.6243C46.3767 43.6786 46.1756 42.6644 46.1778 41.6404V37.4821H43.4067V41.6359ZM47.7699 41.6359C47.7699 43.2798 48.4229 44.8563 49.5853 46.0187C50.7477 47.1811 52.3242 47.8341 53.9681 47.8341C55.6119 47.8341 57.1885 47.1811 58.3509 46.0187C59.5132 44.8563 60.1663 43.2798 60.1663 41.6359V37.4821H47.7699V41.6359ZM29.4171 41.6359C29.4171 43.2798 30.0701 44.8563 31.2325 46.0187C32.3949 47.1811 33.9714 47.8341 35.6153 47.8341C37.2592 47.8341 38.8357 47.1811 39.9981 46.0187C41.1605 44.8563 41.8135 43.2798 41.8135 41.6359V37.4821H29.4171V41.6359ZM45.6042 35.8844H62.333V33.127H45.6042V35.8844ZM27.2515 35.8844H43.9803V33.127H27.2515V35.8844ZM52.7771 23.4652C49.1275 24.0433 46.3758 27.2662 46.3758 30.9636V31.5326H61.5615V30.9636C61.5615 27.2662 58.8097 24.0422 55.1601 23.4652L54.7652 23.4026V28.1129C54.7652 28.3241 54.6813 28.5268 54.5319 28.6762C54.3825 28.8255 54.1799 28.9095 53.9686 28.9095C53.7574 28.9095 53.5547 28.8255 53.4053 28.6762C53.256 28.5268 53.172 28.3241 53.172 28.1129V23.4026L52.7771 23.4652ZM34.4244 23.4652C30.7748 24.0433 28.023 27.2662 28.023 30.9636V31.5326H43.2087V30.9636C43.2087 27.2662 40.457 24.0422 36.8074 23.4652L36.4125 23.4026V28.1129C36.4125 28.3241 36.3286 28.5268 36.1792 28.6762C36.0298 28.8255 35.8272 28.9095 35.6159 28.9095C35.4046 28.9095 35.202 28.8255 35.0526 28.6762C34.9032 28.5268 34.8193 28.3241 34.8193 28.1129V23.4026L34.4244 23.4652Z" fill="white"/>
</g>
<defs>
<clipPath id="clip0">
<rect width="57.5835" height="47" fill="white" transform="translate(16 21)"/>
</clipPath>
</defs>
</svg>
