<svg width="66" height="66" viewBox="0 0 66 66" fill="none" xmlns="http://www.w3.org/2000/svg">
<circle cx="33" cy="33" r="33" fill="white"/>
<g clip-path="url(#clip0)">
<path d="M50.2326 50.4736L51.9581 42.9961C52.1451 42.1837 51.7209 41.3496 50.9587 41.0189L42.9061 37.5678C42.2015 37.2658 41.3746 37.4671 40.8929 38.0639L37.3268 42.4209C31.8121 39.8326 27.225 35.3102 24.5863 29.6805L28.9434 26.1143C29.5401 25.6254 29.7414 24.8058 29.4395 24.1012L25.9883 16.0485C25.6504 15.2792 24.8164 14.855 24.0039 15.0419L16.5265 16.7675C15.75 16.9472 15.1892 17.6375 15.1892 18.4499C15.1892 36.8632 30.1081 51.8109 48.5501 51.8109C49.3554 51.8109 50.0528 51.2573 50.2326 50.4736Z" fill="#FF9800"/>
</g>
<defs>
<clipPath id="clip0">
<rect width="36.8121" height="36.8121" fill="white" transform="translate(52 15) rotate(90)"/>
</clipPath>
</defs>
</svg>
