<svg width="66" height="66" viewBox="0 0 66 66" fill="none" xmlns="http://www.w3.org/2000/svg">
<circle cx="33" cy="33" r="33" fill="white"/>
<path d="M51.299 28.7883C51.5809 28.5643 52 28.7738 52 29.1279V43.9062C52 45.8213 50.4463 47.375 48.5312 47.375H18.4688C16.5537 47.375 15 45.8213 15 43.9062V29.1352C15 28.7738 15.4119 28.5715 15.701 28.7955C17.3197 30.0529 19.466 31.65 26.8371 37.0049C28.3619 38.1178 30.9346 40.4592 33.5 40.4447C36.0799 40.4664 38.7031 38.0744 40.1701 37.0049C47.5412 31.65 49.6803 30.0457 51.299 28.7883ZM33.5 38.125C35.1766 38.1539 37.5902 36.0148 38.8043 35.1332C48.3939 28.174 49.1238 27.567 51.3352 25.8326C51.7543 25.5074 52 25.0016 52 24.4668V23.0937C52 21.1787 50.4463 19.625 48.5312 19.625H18.4688C16.5537 19.625 15 21.1787 15 23.0937V24.4668C15 25.0016 15.2457 25.5002 15.6648 25.8326C17.8762 27.5598 18.6061 28.174 28.1957 35.1332C29.4098 36.0148 31.8234 38.1539 33.5 38.125Z" fill="#FF9800"/>
</svg>
