<svg width="62" height="52" viewBox="0 0 62 52" fill="none" xmlns="http://www.w3.org/2000/svg">
<path d="M56.3023 0H4.93879C2.21554 0 0 2.21554 0 4.93879V46.4247C0 49.1479 2.21554 51.3635 4.93879 51.3635H56.3023C59.0255 51.3635 61.2411 49.1479 61.2411 46.4247V4.93879C61.2411 2.21554 59.0255 0 56.3023 0ZM59.2655 46.4247C59.2655 48.0584 57.936 49.3879 56.3023 49.3879H4.93879C3.30504 49.3879 1.97552 48.0584 1.97552 46.4247V4.93879C1.97552 3.30504 3.30504 1.97552 4.93879 1.97552H56.3023C57.936 1.97552 59.2655 3.30504 59.2655 4.93879V46.4247Z" fill="#FF9800"/>
<path d="M55.3145 3.95093H27.6573C26.5678 3.95093 25.6818 4.83695 25.6818 5.92645V33.5837C25.6818 34.6732 26.5678 35.5592 27.6573 35.5592H55.3145C56.404 35.5592 57.29 34.6732 57.29 33.5837V5.92645C57.29 4.83695 56.404 3.95093 55.3145 3.95093ZM36.5471 19.7551C36.0019 19.7551 35.5594 19.3126 35.5594 18.7673C35.5594 18.2221 36.0019 17.7796 36.5471 17.7796V19.7551ZM37.3176 15.804H36.5471C36.0147 15.804 35.5218 15.9561 35.0892 16.2031C34.7504 15.7803 34.5716 15.324 34.5716 14.8163C34.5716 14.1367 34.7721 13.3722 35.1672 12.5444C35.9406 10.9235 37.6623 9.87748 39.5529 9.87748H43.4614C46.1847 9.87748 48.4002 12.093 48.4002 14.8163C48.4002 15.324 48.2214 15.7803 47.8826 16.2031C47.45 15.9561 46.9571 15.804 46.4247 15.804H45.4369H43.6945C42.4025 15.804 41.1086 15.4978 39.9519 14.92L39.7435 14.8163H39.5104C38.6382 14.8163 37.8608 15.2025 37.3176 15.804ZM46.4247 17.7796C46.9699 17.7796 47.4125 18.2221 47.4125 18.7673C47.4125 19.3126 46.9699 19.7551 46.4247 19.7551V17.7796ZM44.4492 19.7551C44.4492 21.3888 43.1197 22.7183 41.4859 22.7183C39.8522 22.7183 38.5226 21.3888 38.5226 19.7551V17.7796C38.5226 17.2995 38.8674 16.8975 39.3227 16.8106C40.6858 17.4447 42.1922 17.7796 43.6945 17.7796H44.4492V19.7551ZM39.9648 24.4291C40.4468 24.5872 40.9515 24.6939 41.4859 24.6939C42.0203 24.6939 42.526 24.5872 43.008 24.4291C43.0634 24.525 43.1226 24.6188 43.1868 24.7097L41.4859 26.9914L39.787 24.7107C39.8502 24.6198 39.9094 24.5259 39.9648 24.4291ZM38.2826 25.9997L41.4859 30.2984L44.6951 25.9908C44.9233 26.1034 45.1614 26.2041 45.4152 26.2772L48.986 26.9973C50.3639 27.2749 51.3635 28.4977 51.3635 29.9013V33.5837H48.4002V29.6327H46.4247V33.5837H36.5471V29.6327H34.5716V33.5837H31.6083V29.9013C31.6083 28.4967 32.6079 27.2749 33.9839 26.9973L37.6327 26.2575C37.8608 26.1923 38.0752 26.1014 38.2826 25.9997ZM53.339 33.5837V29.9013C53.339 27.5603 51.6727 25.5236 49.3771 25.0603L45.8824 24.359C45.3866 24.2168 44.9796 23.8849 44.7258 23.4523C45.267 22.9771 45.7125 22.3983 46.0059 21.7306H46.4247C48.0585 21.7306 49.388 20.4011 49.388 18.7673C49.388 18.3959 49.3119 18.0443 49.1865 17.7163C49.9629 16.8807 50.3757 15.8929 50.3757 14.8163C50.3757 11.0045 47.2732 7.90196 43.4614 7.90196H39.5529C36.9057 7.90196 34.4847 9.39052 33.3843 11.694C32.8618 12.7884 32.5961 13.8394 32.5961 14.8163C32.5961 15.8939 33.008 16.8807 33.7853 17.7173C33.6599 18.0443 33.5838 18.3959 33.5838 18.7673C33.5838 20.4011 34.9134 21.7306 36.5471 21.7306H36.9659C37.2593 22.3993 37.7058 22.9781 38.247 23.4532C37.9981 23.8839 37.606 24.2118 37.1664 24.3393L33.5937 25.0593C31.2991 25.5236 29.6328 27.5594 29.6328 29.9003V33.5837H27.6573V5.92645H55.3145L55.3165 33.5837H53.339Z" fill="#FF9800"/>
<path d="M52.3512 37.5349C49.628 37.5349 47.4124 39.7505 47.4124 42.4737C47.4124 45.197 49.628 47.4125 52.3512 47.4125C55.0745 47.4125 57.29 45.197 57.29 42.4737C57.29 39.7505 55.0745 37.5349 52.3512 37.5349ZM52.3512 45.437C50.7175 45.437 49.3879 44.1075 49.3879 42.4737C49.3879 40.84 50.7175 39.5104 52.3512 39.5104C53.985 39.5104 55.3145 40.84 55.3145 42.4737C55.3145 44.1075 53.985 45.437 52.3512 45.437Z" fill="#FF9800"/>
<path d="M40.4981 37.5349C37.7749 37.5349 35.5593 39.7505 35.5593 42.4737C35.5593 45.197 37.7749 47.4125 40.4981 47.4125C43.2214 47.4125 45.4369 45.197 45.4369 42.4737C45.4369 39.7505 43.2214 37.5349 40.4981 37.5349ZM40.4981 45.437C38.8644 45.437 37.5348 44.1075 37.5348 42.4737C37.5348 40.84 38.8644 39.5104 40.4981 39.5104C42.1319 39.5104 43.4614 40.84 43.4614 42.4737C43.4614 44.1075 42.1319 45.437 40.4981 45.437Z" fill="#FF9800"/>
<path d="M9.47362 36.4402L3.30902 41.7247L4.5941 43.2241L5.92658 42.0803V47.4122H17.7797V42.0803L19.1132 43.2231L20.3982 41.7237L14.2346 36.4392C12.91 35.3033 10.7952 35.3033 9.47362 36.4402ZM15.8042 45.4367H7.9021V40.3873L10.7597 37.9386C11.3672 37.4181 12.3391 37.4181 12.9486 37.9386L15.8042 40.3873V45.4367Z" fill="#FF9800"/>
<path d="M6.91433 9.87748C8.54808 9.87748 9.8776 8.54796 9.8776 6.9142C9.8776 5.28045 8.54808 3.95093 6.91433 3.95093C5.28057 3.95093 3.95105 5.28045 3.95105 6.9142C3.95105 8.54796 5.28057 9.87748 6.91433 9.87748ZM6.91433 5.92645C7.45957 5.92645 7.90209 6.36896 7.90209 6.9142C7.90209 7.45945 7.45957 7.90196 6.91433 7.90196C6.36908 7.90196 5.92657 7.45945 5.92657 6.9142C5.92657 6.36896 6.36908 5.92645 6.91433 5.92645Z" fill="#FF9800"/>
<path d="M14.8164 9.87748C16.4502 9.87748 17.7797 8.54796 17.7797 6.9142C17.7797 5.28045 16.4502 3.95093 14.8164 3.95093C13.1827 3.95093 11.8531 5.28045 11.8531 6.9142C11.8531 8.54796 13.1827 9.87748 14.8164 9.87748ZM14.8164 5.92645C15.3617 5.92645 15.8042 6.36896 15.8042 6.9142C15.8042 7.45945 15.3617 7.90196 14.8164 7.90196C14.2712 7.90196 13.8287 7.45945 13.8287 6.9142C13.8287 6.36896 14.2712 5.92645 14.8164 5.92645Z" fill="#FF9800"/>
<path d="M5.92657 15.8042H21.7307V17.7797H5.92657V15.8042Z" fill="#FF9800"/>
<path d="M3.95105 19.7551H23.7062V21.7306H3.95105V19.7551Z" fill="#FF9800"/>
<path d="M7.9021 11.853H19.7552V13.8285H7.9021V11.853Z" fill="#FF9800"/>
<path d="M3.95105 23.7065H23.7062V25.6821H3.95105V23.7065Z" fill="#FF9800"/>
<path d="M7.9021 31.6082H19.7552V33.5837H7.9021V31.6082Z" fill="#FF9800"/>
<path d="M5.92657 27.6572H21.7307V29.6327H5.92657V27.6572Z" fill="#FF9800"/>
<path d="M23.7062 47.4125H33.5838V37.5349H23.7062V47.4125ZM25.6818 39.5104H31.6083V45.437H25.6818V39.5104Z" fill="#FF9800"/>
</svg>
