<svg width="56" height="60" viewBox="0 0 56 60" fill="none" xmlns="http://www.w3.org/2000/svg">
<path d="M28.7067 36.3619H27.9163C30.4703 34.8289 32.4692 32.4769 33.5496 29.6636H33.9696C36.3437 29.6636 38.2757 27.7317 38.2757 25.3576C38.2757 23.1472 36.5954 21.3415 34.4481 21.1004V21.0516H36.3619C36.891 21.0516 37.3188 20.6229 37.3188 20.0947V16.2672C37.3188 15.7389 36.891 15.3103 36.3619 15.3103H35.361C34.9466 9.17659 30.5995 3.95292 24.7069 2.39606L24.8715 1.07555C24.906 0.802832 24.8208 0.529161 24.64 0.323429C24.4581 0.117698 24.1969 0 23.9223 0H18.1809C17.9063 0 17.6451 0.117698 17.4633 0.323429C17.2824 0.529161 17.1973 0.802832 17.2317 1.07555L17.3972 2.39701C11.4999 3.95292 7.15659 9.16798 6.74226 15.3103H5.74135C5.21219 15.3103 4.78446 15.7389 4.78446 16.2672V20.0947C4.78446 20.6229 5.21219 21.0516 5.74135 21.0516H7.65513V21.1004C5.50787 21.3415 3.82757 23.1472 3.82757 25.3576C3.82757 27.7317 5.75953 29.6636 8.13358 29.6636H8.55365C9.63398 32.4769 11.6329 34.8289 14.1869 36.3619H13.3965C6.00928 36.3619 0 42.3712 0 49.7584V58.3704C0 58.8986 0.427731 59.3273 0.956891 59.3273H41.1463C41.6755 59.3273 42.1032 58.8986 42.1032 58.3704V49.7584C42.1032 42.3712 36.0939 36.3619 28.7067 36.3619ZM30.6205 38.4489V46.8877H28.7067V38.2757C29.3603 38.2757 29.9966 38.3436 30.6205 38.4489ZM34.4481 57.4135H30.6205V51.6721C30.6205 51.1439 30.1928 50.7152 29.6636 50.7152H12.4396C11.9104 50.7152 11.4827 51.1439 11.4827 51.6721V57.4135H7.65513V48.8015H34.4481V57.4135ZM28.7067 57.4135H13.3965V52.629H28.7067V57.4135ZM36.3619 25.3576C36.3619 26.6198 35.3763 27.6465 34.1352 27.7336C34.3352 26.8121 34.4481 25.859 34.4481 24.8792V23.0142C35.5389 23.2362 36.3619 24.2027 36.3619 25.3576ZM22.8381 1.91378L22.1205 7.65513H19.9828L19.2651 1.91378H22.8381ZM17.6365 4.31654L18.1886 8.73068C18.2479 9.21008 18.6556 9.56891 19.1378 9.56891H22.9654C23.4477 9.56891 23.8553 9.21008 23.9146 8.73068L24.4668 4.31654C29.4072 5.73274 33.0434 10.1344 33.4472 15.3103H8.65604C9.05889 10.1277 12.6932 5.73178 17.6365 4.31654ZM6.69824 17.224H35.405V19.1378H6.69824V17.224ZM5.74135 25.3576C5.74135 24.2027 6.56428 23.2362 7.65513 23.0142V24.8792C7.65513 25.859 7.76804 26.8121 7.96803 27.7336C6.72695 27.6465 5.74135 26.6198 5.74135 25.3576ZM9.56891 24.8792V21.0516H32.5343V24.8792C32.5343 31.2109 27.3834 36.3619 21.0516 36.3619C14.7199 36.3619 9.56891 31.2109 9.56891 24.8792ZM26.793 38.2757V46.8877H15.3103V38.2757H26.793ZM13.3965 46.8877H11.4827V38.4489C12.1066 38.3436 12.7429 38.2757 13.3965 38.2757V46.8877ZM1.91378 49.7584C1.91378 44.7701 5.1165 40.5272 9.56891 38.9455V46.8877H6.69824C6.16908 46.8877 5.74135 47.3164 5.74135 47.8446V57.4135H1.91378V49.7584ZM40.1894 57.4135H36.3619V47.8446C36.3619 47.3164 35.9341 46.8877 35.405 46.8877H32.5343V38.9455C36.9867 40.5272 40.1894 44.7701 40.1894 49.7584V57.4135Z" fill="#FF9800"/>
<path d="M21.0516 32.5343C19.4689 32.5343 18.1809 31.2463 18.1809 29.6636H16.2672C16.2672 32.3017 18.4135 34.448 21.0516 34.448C23.6898 34.448 25.8361 32.3017 25.8361 29.6636H23.9223C23.9223 31.2463 22.6343 32.5343 21.0516 32.5343Z" fill="#FF9800"/>
<path d="M51.6721 35.7236V23.6036C53.9868 22.5042 55.4997 20.1541 55.4997 17.5571C55.4997 14.7285 53.7055 12.1927 51.0348 11.2473C50.742 11.1449 50.4167 11.188 50.1631 11.3679C49.9086 11.5478 49.7583 11.8396 49.7583 12.1497V17.1609L48.8014 18.1178L47.8446 17.1609V12.1497C47.8446 11.8387 47.6943 11.5478 47.4398 11.3688C47.1862 11.1889 46.8609 11.1459 46.5681 11.2483C43.8974 12.1937 42.1032 14.7294 42.1032 17.558C42.1032 20.155 43.6161 22.5051 45.9308 23.6046V35.7236C43.6161 36.8231 42.1032 39.1732 42.1032 41.7702C42.1032 44.5988 43.8974 47.1346 46.5681 48.08C46.8609 48.1833 47.1862 48.1383 47.4398 47.9594C47.6943 47.7795 47.8446 47.4877 47.8446 47.1776V42.1664L48.8014 41.2095L49.7583 42.1664V47.1776C49.7583 47.4886 49.9086 47.7795 50.1631 47.9584C50.3267 48.0742 50.52 48.1345 50.7152 48.1345C50.8224 48.1345 50.9315 48.1163 51.0348 48.08C53.7055 47.1336 55.4997 44.5978 55.4997 41.7693C55.4997 39.1732 53.9868 36.8221 51.6721 35.7236ZM51.6721 45.5911V41.7702C51.6721 41.5167 51.5716 41.2726 51.3918 41.0937L49.478 39.1799C49.2914 38.9933 49.0464 38.8996 48.8014 38.8996C48.5565 38.8996 48.3115 38.9933 48.1249 39.1799L46.2111 41.0937C46.0312 41.2726 45.9308 41.5157 45.9308 41.7693V45.5901C44.75 44.7021 44.017 43.2955 44.017 41.7693C44.017 39.7502 45.2992 37.9398 47.2073 37.2642C47.5891 37.1284 47.8446 36.7676 47.8446 36.3619V22.9654C47.8446 22.5597 47.5891 22.1989 47.2073 22.0631C45.2992 21.3875 44.017 19.5771 44.017 17.558C44.017 16.0318 44.75 14.6251 45.9308 13.7371V17.558C45.9308 17.8116 46.0312 18.0556 46.2111 18.2345L48.1249 20.1483C48.4991 20.5225 49.1038 20.5225 49.478 20.1483L51.3918 18.2345C51.5716 18.0546 51.6721 17.8116 51.6721 17.558V13.7371C52.8529 14.6251 53.5859 16.0318 53.5859 17.558C53.5859 19.5771 52.3037 21.3875 50.3956 22.0631C50.0138 22.1989 49.7583 22.5597 49.7583 22.9654V36.3619C49.7583 36.7676 50.0138 37.1284 50.3956 37.2642C52.3037 37.9398 53.5859 39.7502 53.5859 41.7693C53.5859 43.2965 52.8529 44.7031 51.6721 45.5911Z" fill="#FF9800"/>
</svg>
