<svg width="12" height="21" viewBox="0 0 12 21" fill="none" xmlns="http://www.w3.org/2000/svg">
<g clip-path="url(#clip0)">
<path d="M11.5451 0H8.67039C5.43775 0 3.34809 2.02747 3.34809 5.16916V7.55056H0.461805C0.339327 7.55056 0.221865 7.5966 0.13526 7.67854C0.0486543 7.76049 0 7.87163 0 7.98752L0 11.4395C0 11.5553 0.0486543 11.6665 0.13526 11.7484C0.221865 11.8304 0.339327 11.8764 0.461805 11.8764H3.34578V20.5718C3.34578 20.6877 3.39443 20.7988 3.48104 20.8808C3.56764 20.9627 3.6851 21.0087 3.80758 21.0087H7.57591C7.69839 21.0087 7.81585 20.9627 7.90245 20.8808C7.98906 20.7988 8.03771 20.6877 8.03771 20.5718V11.8611H11.4112C11.5337 11.8611 11.6511 11.8151 11.7377 11.7331C11.8243 11.6512 11.873 11.54 11.873 11.4242V7.97878C11.873 7.86289 11.8243 7.75175 11.7377 7.6698C11.6511 7.58786 11.5337 7.54182 11.4112 7.54182H8.02617V5.53184C8.02617 4.5618 8.27093 4.06804 9.60785 4.06804H11.5451C11.6676 4.06804 11.7851 4.022 11.8717 3.94006C11.9583 3.85811 12.0069 3.74697 12.0069 3.63109V0.436954C12.0069 0.321066 11.9583 0.209926 11.8717 0.127981C11.7851 0.0460361 11.6676 0 11.5451 0V0Z" fill="#D5D5D5"/>
</g>
<defs>
<clipPath id="clip0">
<rect width="12" height="21" fill="white"/>
</clipPath>
</defs>
</svg>
