<svg width="22" height="22" viewBox="0 0 22 22" fill="none" xmlns="http://www.w3.org/2000/svg">
<path d="M20.9425 21.2008L21.9738 16.7321C22.0855 16.2466 21.832 15.7482 21.3765 15.5505L16.5641 13.4881C16.143 13.3076 15.6489 13.4279 15.361 13.7845L13.2298 16.3884C9.93416 14.8416 7.19282 12.1389 5.6159 8.77449L8.21975 6.64328C8.57638 6.3511 8.69669 5.86127 8.51623 5.44018L6.45377 0.627778C6.25182 0.168022 5.7534 -0.0854889 5.26786 0.0262275L0.799204 1.05746C0.33515 1.16488 1.8384e-06 1.57737 1.81718e-06 2.0629C1.33617e-06 13.067 8.91583 22 19.9371 22C20.4183 22 20.8351 21.6691 20.9425 21.2008Z" fill="#FF9800"/>
</svg>
