<svg width="19" height="19" viewBox="0 0 19 19" fill="none" xmlns="http://www.w3.org/2000/svg">
<path d="M18.0867 18.3098L18.9773 14.4505C19.0738 14.0312 18.8549 13.6007 18.4615 13.43L14.3054 11.6488C13.9417 11.4929 13.5149 11.5968 13.2663 11.9048L11.4257 14.1536C8.57951 12.8177 6.21198 10.4836 4.85009 7.57797L7.09887 5.73738C7.40687 5.48504 7.51078 5.062 7.35492 4.69834L5.57371 0.542172C5.3993 0.14511 4.96884 -0.0738313 4.54951 0.0226511L0.69022 0.913258C0.289448 1.00603 -5.95468e-08 1.36227 -7.78762e-08 1.7816C-4.93288e-07 11.2851 7.70003 19 17.2184 19C17.634 19 17.994 18.7143 18.0867 18.3098Z" fill="#FF9800"/>
</svg>
