<svg width="25" height="25" viewBox="0 0 25 25" fill="none" xmlns="http://www.w3.org/2000/svg">
<path d="M12.5 5.85938C10.8842 5.85938 9.57031 7.17329 9.57031 8.78906C9.57031 10.4125 10.8819 11.7188 12.5 11.7188C14.1471 11.7188 15.4297 10.3879 15.4297 8.78906C15.4297 7.17329 14.1158 5.85938 12.5 5.85938Z" fill="#FF9800"/>
<path d="M12.5 0C7.65342 0 3.71094 3.94248 3.71094 8.78906C3.71094 10.4263 4.1644 12.0242 5.02202 13.4104L11.9994 24.6535C12.2887 25.1207 12.9708 25.1136 13.2511 24.6435L20.0503 13.2916C20.8599 11.9348 21.2891 10.3776 21.2891 8.78906C21.2891 3.94248 17.3466 0 12.5 0ZM12.5 13.1934C10.0417 13.1934 8.0957 11.1924 8.0957 8.78906C8.0957 6.36577 10.0767 4.38477 12.5 4.38477C14.9233 4.38477 16.9043 6.36577 16.9043 8.78906C16.9043 11.1712 14.9844 13.1934 12.5 13.1934Z" fill="#FF9800"/>
</svg>
