<svg width="19" height="25" viewBox="0 0 19 25" fill="none" xmlns="http://www.w3.org/2000/svg">
<path d="M9.5 5.85938C7.88423 5.85938 6.57031 7.17329 6.57031 8.78906C6.57031 10.4125 7.88188 11.7188 9.5 11.7188C11.1471 11.7188 12.4297 10.3879 12.4297 8.78906C12.4297 7.17329 11.1158 5.85938 9.5 5.85938Z" fill="#FF9800"/>
<path d="M9.5 0C4.65342 0 0.710938 3.94248 0.710938 8.78906C0.710938 10.4263 1.1644 12.0242 2.02202 13.4104L8.99936 24.6535C9.28867 25.1207 9.9708 25.1136 10.2511 24.6435L17.0503 13.2916C17.8599 11.9348 18.2891 10.3776 18.2891 8.78906C18.2891 3.94248 14.3466 0 9.5 0ZM9.5 13.1934C7.04175 13.1934 5.0957 11.1924 5.0957 8.78906C5.0957 6.36577 7.07671 4.38477 9.5 4.38477C11.9233 4.38477 13.9043 6.36577 13.9043 8.78906C13.9043 11.1712 11.9844 13.1934 9.5 13.1934Z" fill="#FF9800"/>
</svg>
