<svg width="90" height="90" viewBox="0 0 90 90" fill="none" xmlns="http://www.w3.org/2000/svg">
<circle cx="44.6246" cy="44.6246" r="44.6246" fill="#FF9800"/>
<path d="M17.0008 62.3334C16.5563 62.3334 16.2129 61.9698 16.2129 61.5455V43.1415C16.2129 42.697 16.5563 42.3536 17.0008 42.3536H25.5462V33.7678C25.5462 33.3233 25.8897 32.9799 26.3341 32.9799H34.8796V24.4546C34.8796 24.0102 35.223 23.6667 35.6674 23.6667H54.3341C54.7785 23.6667 55.122 24.0102 55.122 24.4546V33.0001H63.6674C64.1119 33.0001 64.4553 33.3435 64.4553 33.788V42.3738H73.0008C73.4452 42.3738 73.7886 42.7172 73.7886 43.1617V61.5657C73.7886 62.0102 73.425 62.3536 73.0008 62.3536H17.0008V62.3334ZM55.122 60.7576H72.2129V53.3435H55.122V60.7576ZM36.4553 60.7576H53.5462V53.3435H36.4553V60.7576ZM17.7886 60.7576H34.8796V53.3435H17.7886V60.7576ZM55.122 51.3637H72.2129V43.9496H55.122V51.3637ZM36.4553 51.3637H53.5462V43.9496H36.4553V51.3637ZM17.7886 51.3637H34.8796V43.9496H17.7886V51.3637ZM45.7886 41.99H62.8796V34.5758H45.7886V41.99ZM27.122 41.99H44.2129V34.5758H27.122V41.99ZM36.4553 32.6566H53.5462V25.2425H36.4553V32.6566Z" fill="white"/>
</svg>
