<svg width="90" height="90" viewBox="0 0 90 90" fill="none" xmlns="http://www.w3.org/2000/svg">
<circle cx="44.6246" cy="44.6246" r="44.6246" fill="#FF9800"/>
<path d="M38.4375 39.375H36.5625V29.0625C36.5625 28.8139 36.4637 28.5754 36.2879 28.3996C36.1121 28.2238 35.8736 28.125 35.625 28.125H32.8125C32.6669 28.125 32.5234 28.1589 32.3932 28.224L28.6432 30.099C28.4875 30.1769 28.3565 30.2966 28.265 30.4447C28.1735 30.5928 28.125 30.7634 28.125 30.9375V34.6875C28.125 34.836 28.1603 34.9825 28.228 35.1147C28.2957 35.2469 28.3939 35.3612 28.5144 35.448C28.6349 35.5349 28.7743 35.5918 28.9211 35.6142C29.068 35.6366 29.2181 35.6238 29.359 35.5768L30.9375 35.0508V39.375H29.0625C28.8139 39.375 28.5754 39.4738 28.3996 39.6496C28.2238 39.8254 28.125 40.0639 28.125 40.3125V44.0625C28.125 44.3111 28.2238 44.5496 28.3996 44.7254C28.5754 44.9012 28.8139 45 29.0625 45H38.4375C38.6861 45 38.9246 44.9012 39.1004 44.7254C39.2762 44.5496 39.375 44.3111 39.375 44.0625V40.3125C39.375 40.0639 39.2762 39.8254 39.1004 39.6496C38.9246 39.4738 38.6861 39.375 38.4375 39.375ZM37.5 43.125H30V41.25H31.875C32.1236 41.25 32.3621 41.1512 32.5379 40.9754C32.7137 40.7996 32.8125 40.5611 32.8125 40.3125V33.75C32.8125 33.6015 32.7772 33.455 32.7095 33.3228C32.6418 33.1906 32.5436 33.0763 32.4231 32.9895C32.3026 32.9026 32.1632 32.8457 32.0164 32.8233C31.8695 32.8009 31.7194 32.8137 31.5785 32.8607L30 33.3867V31.5169L33.0339 30H34.6875V40.3125C34.6875 40.5611 34.7863 40.7996 34.9621 40.9754C35.1379 41.1512 35.3764 41.25 35.625 41.25H37.5V43.125Z" fill="white"/>
<path d="M72.1875 46.875H67.3312C66.8562 44.917 65.3235 41.2257 60.4758 40.3764C59.8588 39.6473 57.9071 37.0527 57.1747 32.6584C57.1535 32.5307 57.106 32.4089 57.0353 32.3005C56.9646 32.1921 56.8723 32.0995 56.764 32.0285C56.6558 31.9576 56.5341 31.9098 56.4065 31.8882C56.2789 31.8666 56.1482 31.8716 56.0227 31.903C55.1836 32.1493 54.4099 32.5792 53.7577 33.1616C52.7563 34.0379 51.5625 35.6645 51.5625 38.4375C51.5625 41.3555 52.8591 43.5949 53.9993 45H48.3646C49.8511 42.4369 50.6311 39.5254 50.625 36.5625C50.625 27.2578 43.0547 19.6875 33.75 19.6875C24.4453 19.6875 16.875 27.2578 16.875 36.5625C16.8761 39.3805 17.5829 42.1533 18.9308 44.6279C20.2787 47.1026 22.2249 49.2003 24.5918 50.7296L20.6505 67.2828C20.6108 67.4499 20.6176 67.6248 20.6705 67.7882C20.7233 67.9517 20.82 68.0975 20.95 68.2097C21.08 68.3219 21.2384 68.3963 21.4078 68.4246C21.5772 68.453 21.7512 68.4342 21.9107 68.3705L26.0239 66.725L29.3368 70.0379C29.4563 70.1574 29.6057 70.2423 29.7694 70.2838C29.9332 70.3253 30.1051 70.3218 30.267 70.2737C30.4289 70.2256 30.5747 70.1346 30.6892 70.0104C30.8037 69.8862 30.8824 69.7334 30.9172 69.5681L33.75 56.1134L36.5825 69.5681C36.6173 69.7334 36.6961 69.8862 36.8106 70.0104C36.925 70.1346 37.0709 70.2256 37.2328 70.2737C37.3947 70.3218 37.5666 70.3253 37.7303 70.2838C37.894 70.2423 38.0435 70.1574 38.1629 70.0379L41.4298 66.7711C41.6733 67.5267 42.15 68.1858 42.7915 68.6536C43.4329 69.1214 44.2061 69.374 45 69.375H62.6805C65.1682 69.375 66.4846 68.2049 67.0516 67.5H72.1875C72.4361 67.5 72.6746 67.4012 72.8504 67.2254C73.0262 67.0496 73.125 66.8111 73.125 66.5625V47.8125C73.125 47.5639 73.0262 47.3254 72.8504 47.1496C72.6746 46.9738 72.4361 46.875 72.1875 46.875ZM50.625 48.75C50.6244 49.2471 50.4267 49.7237 50.0752 50.0752C49.7237 50.4267 49.2471 50.6244 48.75 50.625H43.125C42.6277 50.625 42.1508 50.4275 41.7992 50.0758C41.4475 49.7242 41.25 49.2473 41.25 48.75C41.25 48.2527 41.4475 47.7758 41.7992 47.4242C42.1508 47.0725 42.6277 46.875 43.125 46.875H48.75C49.2471 46.8756 49.7237 47.0733 50.0752 47.4248C50.4267 47.7763 50.6244 48.2529 50.625 48.75ZM50.625 54.375C50.6244 54.8721 50.4267 55.3487 50.0752 55.7002C49.7237 56.0517 49.2471 56.2494 48.75 56.25H43.125C42.6277 56.25 42.1508 56.0525 41.7992 55.7008C41.4475 55.3492 41.25 54.8723 41.25 54.375C41.25 53.8777 41.4475 53.4008 41.7992 53.0492C42.1508 52.6975 42.6277 52.5 43.125 52.5H48.75C49.2471 52.5006 49.7237 52.6983 50.0752 53.0498C50.4267 53.4013 50.6244 53.8779 50.625 54.375ZM50.625 60C50.6244 60.4971 50.4267 60.9737 50.0752 61.3252C49.7237 61.6767 49.2471 61.8744 48.75 61.875H43.125C42.6277 61.875 42.1508 61.6775 41.7992 61.3258C41.4475 60.9742 41.25 60.4973 41.25 60C41.25 59.5027 41.4475 59.0258 41.7992 58.6742C42.1508 58.3225 42.6277 58.125 43.125 58.125H48.75C49.2471 58.1256 49.7237 58.3233 50.0752 58.6748C50.4267 59.0263 50.6244 59.5029 50.625 60ZM33.75 47.8125C31.525 47.8125 29.3499 47.1527 27.4998 45.9165C25.6498 44.6804 24.2078 42.9234 23.3564 40.8677C22.5049 38.812 22.2821 36.55 22.7162 34.3677C23.1502 32.1854 24.2217 30.1809 25.795 28.6075C27.3684 27.0342 29.3729 25.9627 31.5552 25.5287C33.7375 25.0946 35.9995 25.3174 38.0552 26.1689C40.1109 27.0203 41.8679 28.4623 43.104 30.3123C44.3402 32.1624 45 34.3375 45 36.5625C44.9967 39.5452 43.8103 42.4047 41.7013 44.5137C39.5922 46.6228 36.7327 47.8091 33.75 47.8125ZM18.75 36.5625C18.7498 34.2148 19.3006 31.8998 20.3582 29.8038C21.4158 27.7078 22.9506 25.8893 24.8391 24.4946C26.7277 23.0999 28.9173 22.168 31.2316 21.7739C33.546 21.3797 35.9206 21.5343 38.1644 22.2252C40.4081 22.9161 42.4584 24.1241 44.1501 25.7518C45.8419 27.3796 47.128 29.3817 47.9049 31.5972C48.6818 33.8126 48.9278 36.1795 48.6232 38.5074C48.3185 40.8352 47.4717 43.0591 46.1509 45H43.7954C45.8715 42.5223 46.9584 39.3646 46.8472 36.134C46.736 32.9034 45.4345 29.8279 43.193 27.4988C40.9514 25.1697 37.928 23.7514 34.704 23.5166C31.48 23.2818 28.283 24.2471 25.7277 26.2268C23.1723 28.2065 21.4389 31.061 20.8608 34.2414C20.2826 37.4218 20.9006 40.7036 22.5958 43.456C24.2909 46.2084 26.9437 48.237 30.0441 49.1518C33.1445 50.0666 36.4736 49.8031 39.3914 48.4119C39.3814 48.5234 39.3755 48.636 39.3755 48.75C39.3751 49.2938 39.4937 49.831 39.723 50.3241C37.4404 51.3139 34.9475 51.7207 32.4686 51.5076C29.9898 51.2945 27.6028 50.4683 25.5226 49.1034C23.4424 47.7384 21.7343 45.8776 20.5521 43.6885C19.3699 41.4993 18.7506 39.0505 18.75 36.5625ZM29.4391 67.4883L26.9129 64.9621C26.7832 64.8323 26.6182 64.7435 26.4385 64.7066C26.2588 64.6697 26.0722 64.6864 25.9018 64.7545L22.8934 65.9579L26.2891 51.6962C28.2026 52.644 30.2797 53.2172 32.4084 53.3848L29.4391 67.4883ZM40.5871 64.9621L38.0609 67.4883L35.0911 53.3822C36.7981 53.2459 38.4745 52.8518 40.0635 52.2135C39.5287 52.9682 39.2926 53.8943 39.4006 54.8129C39.5087 55.7315 39.9533 56.5775 40.6486 57.1875C40.1568 57.6195 39.7868 58.1728 39.5753 58.7923C39.3639 59.4118 39.3185 60.0759 39.4437 60.7184C39.5688 61.3609 39.8601 61.9594 40.2886 62.4543C40.717 62.9492 41.2676 63.3232 41.8856 63.5391C41.6478 63.8927 41.4722 64.2844 41.3665 64.6972C41.225 64.679 41.0812 64.6934 40.9461 64.7393C40.811 64.7852 40.6882 64.8614 40.5871 64.9621ZM45 67.5C44.5027 67.5 44.0258 67.3025 43.6742 66.9508C43.3225 66.5992 43.125 66.1223 43.125 65.625C43.125 65.1277 43.3225 64.6508 43.6742 64.2992C44.0258 63.9475 44.5027 63.75 45 63.75H48.75C49.2473 63.75 49.7242 63.9475 50.0758 64.2992C50.4275 64.6508 50.625 65.1277 50.625 65.625C50.625 66.1223 50.4275 66.5992 50.0758 66.9508C49.7242 67.3025 49.2473 67.5 48.75 67.5H45ZM62.6805 67.5H51.9961C52.4306 66.7505 52.5915 65.8734 52.4512 65.0185C52.311 64.1636 51.8782 63.3838 51.227 62.8125C51.9161 62.2078 52.3592 61.3711 52.4721 60.4613C52.585 59.5515 52.3599 58.6318 51.8395 57.877C54.9202 57.4308 59.2828 56.1814 59.9824 52.6839C60.0312 52.44 59.9811 52.1868 59.8432 51.9799C59.7052 51.773 59.4908 51.6294 59.247 51.5807C59.1262 51.5565 59.0019 51.5564 58.8811 51.5803C58.7604 51.6042 58.6455 51.6516 58.543 51.7199C58.3361 51.8578 58.1925 52.0723 58.1437 52.3161C57.7173 54.4484 54.7862 55.4802 52.1592 55.9352C52.4954 55.2031 52.5862 54.382 52.4181 53.5941C52.25 52.8063 51.8321 52.0937 51.2264 51.5625C51.8777 50.9912 52.3104 50.2114 52.4506 49.3565C52.5909 48.5016 52.43 47.6245 51.9955 46.875H56.25C56.4464 46.8746 56.6377 46.8126 56.7969 46.6978C56.9562 46.5829 57.0754 46.421 57.1378 46.2347C57.2001 46.0485 57.2025 45.8475 57.1445 45.6598C57.0865 45.4722 56.971 45.3076 56.8145 45.189C56.7807 45.1641 53.4375 42.579 53.4375 38.4375C53.4375 35.9392 54.6607 34.7129 55.5562 34.15C56.6938 39.2212 59.2222 41.798 59.3371 41.9129C59.4805 42.0564 59.6666 42.1494 59.8675 42.178C64.3277 42.8153 65.3789 46.3316 65.625 47.8867V66.288C65.3517 66.6498 64.5146 67.5 62.6805 67.5ZM71.25 65.625H67.5V48.75H71.25V65.625Z" fill="white"/>
</svg>
