<svg width="90" height="90" viewBox="0 0 90 90" fill="none" xmlns="http://www.w3.org/2000/svg">
<circle cx="44.6246" cy="44.6246" r="44.6246" fill="#FF9800"/>
<path d="M22.8962 45.2288C22.7869 45.1196 22.6477 45.0452 22.4962 45.015C22.3446 44.9849 22.1875 45.0003 22.0448 45.0595C21.902 45.1186 21.78 45.2187 21.6942 45.3472C21.6083 45.4757 21.5625 45.6268 21.5625 45.7813V67.6563C21.5625 67.8635 21.6448 68.0622 21.7913 68.2087C21.9378 68.3552 22.1365 68.4375 22.3437 68.4375H44.2187C44.3733 68.4375 44.5243 68.3917 44.6528 68.3059C44.7813 68.22 44.8814 68.098 44.9405 67.9552C44.9997 67.8125 45.0152 67.6554 44.985 67.5038C44.9549 67.3523 44.8804 67.2131 44.7712 67.1038L22.8962 45.2288ZM23.125 66.875V47.6673L42.3327 66.875H23.125Z" fill="white"/>
<path d="M27.0312 63.75H33.2812C33.4358 63.75 33.5868 63.7042 33.7153 63.6184C33.8438 63.5325 33.9439 63.4105 34.0031 63.2677C34.0622 63.125 34.0777 62.9679 34.0475 62.8163C34.0174 62.6648 33.9429 62.5256 33.8337 62.4163L27.5837 56.1663C27.4744 56.0571 27.3352 55.9827 27.1837 55.9525C27.0321 55.9224 26.875 55.9378 26.7323 55.997C26.5895 56.0561 26.4675 56.1562 26.3817 56.2847C26.2958 56.4132 26.25 56.5643 26.25 56.7188V62.9688C26.25 63.176 26.3323 63.3747 26.4788 63.5212C26.6253 63.6677 26.824 63.75 27.0312 63.75ZM27.8125 58.6049L31.3952 62.1875H27.8125V58.6049Z" fill="white"/>
<path d="M30.1562 24.6875H31.7188V26.25H30.1562V24.6875Z" fill="white"/>
<path d="M33.2812 24.6875H34.8438V26.25H33.2812V24.6875Z" fill="white"/>
<path d="M36.4062 24.6875H37.9688V26.25H36.4062V24.6875Z" fill="white"/>
<path d="M37.652 35.6934C37.5131 35.7534 37.3949 35.853 37.3123 35.9798C37.2297 36.1066 37.1863 36.2549 37.1875 36.4062V45C37.1875 45.1511 37.2313 45.299 37.3137 45.4257C37.396 45.5525 37.5134 45.6526 37.6515 45.714L44.6827 48.8389C44.7826 48.8835 44.8908 48.9064 45.0002 48.9063C45.1096 48.9062 45.2177 48.8831 45.3175 48.8384V48.8389L52.3488 45.714C52.4868 45.6525 52.6041 45.5524 52.6864 45.4257C52.7688 45.299 52.8126 45.1511 52.8125 45V36.4062C52.8137 36.2549 52.7703 36.1066 52.6877 35.9798C52.6051 35.853 52.487 35.7534 52.3481 35.6934V35.6923L45.3168 32.5673C45.2169 32.5229 45.1088 32.5 44.9994 32.5C44.8901 32.5 44.782 32.5229 44.6821 32.5673L37.6508 35.6923L37.652 35.6934ZM44.2188 46.9228L38.75 44.4922V37.6084L44.2188 40.0391V46.9228ZM51.25 44.4922L45.7813 46.9228V40.0391L51.25 37.6085V44.4922ZM45 34.1361L50.1075 36.4062L45 38.6763L39.8926 36.4062L45 34.1361Z" fill="white"/>
<path d="M44.2188 51.25H45.7812V55.1562H44.2188V51.25Z" fill="white"/>
<path d="M44.2188 27.0312H45.7812V30.9375H44.2188V27.0312Z" fill="white"/>
<path d="M31.377 34.7722L32.0504 33.3628L35.3206 34.9254L34.6471 36.3348L31.377 34.7722Z" fill="white"/>
<path d="M54.6621 34.9143L57.9323 33.3517L58.6057 34.7611L55.3355 36.3237L54.6621 34.9143Z" fill="white"/>
<path d="M31.3789 47.4116L34.6491 45.849L35.3225 47.2584L32.0523 48.821L31.3789 47.4116Z" fill="white"/>
<path d="M67.6562 57.5H62.9688V45.3236L67.5615 40.7309C67.8393 40.4531 68.0596 40.1234 68.2099 39.7605C68.3602 39.3976 68.4375 39.0087 68.4375 38.6159C68.4375 38.2232 68.3602 37.8342 68.2098 37.4714C68.0595 37.1085 67.8392 36.7788 67.5615 36.501C67.2837 36.2233 66.954 36.003 66.5911 35.8527C66.2283 35.7024 65.8393 35.625 65.4465 35.625C65.0538 35.625 64.6648 35.7024 64.302 35.8527C63.9391 36.003 63.6094 36.2233 63.3316 36.5011L62.9688 36.864V30.1562C62.9688 30.0537 62.9486 29.9521 62.9093 29.8573C62.87 29.7625 62.8125 29.6764 62.7399 29.6038L54.9274 21.7913C54.8549 21.7188 54.7688 21.6612 54.674 21.622C54.5792 21.5827 54.4776 21.5625 54.375 21.5625H30.1562C29.3277 21.5634 28.5334 21.893 27.9476 22.4788C27.3617 23.0647 27.0322 23.859 27.0312 24.6875V47.3438H28.5938V24.6875C28.5942 24.2732 28.759 23.8761 29.0519 23.5832C29.3449 23.2903 29.742 23.1255 30.1562 23.125H53.5938V27.8125C53.5947 28.641 53.9242 29.4353 54.5101 30.0212C55.0959 30.607 55.8902 30.9366 56.7188 30.9375H61.4062V38.4264L49.1351 50.6976C49.026 50.8066 48.9517 50.9455 48.9214 51.0968L48.1401 55.003C48.1149 55.1292 48.1212 55.2596 48.1585 55.3827C48.1957 55.5058 48.2628 55.6178 48.3538 55.7087C48.4447 55.7997 48.5567 55.8668 48.6798 55.904C48.8029 55.9413 48.9333 55.9476 49.0595 55.9224L52.9657 55.1411C53.117 55.1109 53.2559 55.0365 53.3649 54.9274L61.4062 46.8861V57.5H45.7812C45.574 57.5 45.3753 57.5823 45.2288 57.7288C45.0823 57.8753 45 58.0741 45 58.2812V60.625H41.0938V62.1875H45V64.5312C45 64.7384 45.0823 64.9372 45.2288 65.0837C45.3753 65.2302 45.574 65.3125 45.7812 65.3125H67.6562C67.8634 65.3125 68.0622 65.2302 68.2087 65.0837C68.3552 64.9372 68.4375 64.7384 68.4375 64.5312V58.2812C68.4375 58.0741 68.3552 57.8753 68.2087 57.7288C68.0622 57.5823 67.8634 57.5 67.6562 57.5ZM55.1562 27.8125V24.2299L60.3014 29.375H56.7188C56.3045 29.3745 55.9074 29.2097 55.6144 28.9168C55.3215 28.6239 55.1567 28.2267 55.1562 27.8125ZM50.7924 51.25L62.9688 39.0736L64.9889 41.0938L52.8125 53.2701L50.7924 51.25ZM65.4466 37.1875C65.7291 37.1875 66.0053 37.2713 66.2402 37.4283C66.4751 37.5853 66.6581 37.8083 66.7663 38.0694C66.8744 38.3304 66.9027 38.6176 66.8475 38.8947C66.7924 39.1718 66.6564 39.4263 66.4566 39.6261L66.0938 39.9889L64.0736 37.9688L64.4365 37.6059C64.5689 37.4728 64.7263 37.3673 64.8996 37.2955C65.073 37.2237 65.2589 37.187 65.4466 37.1875ZM50.1673 52.8347L51.2278 53.8952L49.9023 54.1602L50.1673 52.8347ZM66.875 63.75H46.5625V59.0625H48.125V60.625H49.6875V59.0625H51.25V60.625H52.8125V59.0625H54.375V60.625H55.9375V59.0625H57.5V60.625H59.0625V59.0625H60.625V60.625H62.1875V59.0625H63.75V60.625H65.3125V59.0625H66.875V63.75Z" fill="white"/>
</svg>
