<svg width="90" height="90" viewBox="0 0 90 90" fill="none" xmlns="http://www.w3.org/2000/svg">
<circle cx="44.6246" cy="44.6246" r="44.6246" fill="#FF9800"/>
<path d="M30.958 28.9895C31.3987 28.9895 31.7559 28.6323 31.7559 28.1917C31.7559 27.751 31.3987 27.3938 30.958 27.3938C30.5174 27.3938 30.1602 27.751 30.1602 28.1917C30.1602 28.6323 30.5174 28.9895 30.958 28.9895Z" fill="white"/>
<path d="M27.7666 30.585C28.2072 30.585 28.5645 30.2278 28.5645 29.7871C28.5645 29.3465 28.2072 28.9893 27.7666 28.9893C27.326 28.9893 26.9688 29.3465 26.9688 29.7871C26.9688 30.2278 27.326 30.585 27.7666 30.585Z" fill="white"/>
<path d="M65.478 26.9149H63.0844V20.7979C63.0844 20.3571 62.7272 20 62.2865 20H22.9248C22.4841 20 22.127 20.3571 22.127 20.7979V34.6276C22.127 35.0684 22.4841 35.4255 22.9248 35.4255H62.2865C62.7272 35.4255 63.0844 35.0684 63.0844 34.6276V28.5106H65.478C65.9181 28.5106 66.2759 28.8686 66.2759 29.3085V37.2872C66.2759 37.7798 65.8501 38.2859 65.3649 38.3704L44.0412 42.0788C42.7888 42.2967 41.8078 43.463 41.8078 44.734V48.7233H37.8185C37.3777 48.7233 37.0206 49.0805 37.0206 49.5212C37.0206 49.9619 37.3777 50.319 37.8185 50.319H38.0844V69.2021C38.0844 69.6429 38.4415 70 38.8822 70H46.329C46.7697 70 47.1269 69.6429 47.1269 69.2021V50.3191H47.3928C47.8335 50.3191 48.1906 49.962 48.1906 49.5213C48.1906 49.0806 47.8335 48.7234 47.3928 48.7234H43.4036V44.7341C43.4036 44.2415 43.8294 43.7354 44.3146 43.6509L65.6383 39.9425C66.8907 39.7246 67.8717 38.5583 67.8717 37.2873V29.3085C67.8717 27.9888 66.7979 26.9149 65.478 26.9149ZM61.4887 33.8298H23.7228V21.5957H61.4887V33.8298ZM45.5312 50.3191V68.4043H39.6802V50.3191H45.5312Z" fill="white"/>
</svg>
