<svg width="90" height="90" viewBox="0 0 90 90" fill="none" xmlns="http://www.w3.org/2000/svg">
<circle cx="44.6246" cy="44.6246" r="44.6246" fill="#FF9800"/>
<path d="M59.356 62V50.092H52.284V55.656H41.052C42.612 52.848 45.108 51.444 48.956 49.26C57.068 44.58 58.888 40.628 58.888 36C58.888 24.716 46.98 24.56 45.264 24.56C33.668 24.56 30.808 31.84 30.808 37.092V38.184H38.764V36.884C38.764 33.14 41.208 30.904 44.952 30.904C48.072 30.904 50.776 32.464 50.776 36.364C50.776 41.148 46.98 42.552 40.168 47.284C32.472 52.536 30.964 55.812 30.964 60.544V62H59.356Z" fill="white"/>
</svg>
