<?xml version="1.0" standalone="no"?>
<!DOCTYPE svg PUBLIC "-//W3C//DTD SVG 20010904//EN"
 "http://www.w3.org/TR/2001/REC-SVG-20010904/DTD/svg10.dtd">
<svg version="1.0" xmlns="http://www.w3.org/2000/svg"
 width="1399.000000pt" height="1399.000000pt" viewBox="0 0 1399.000000 1399.000000"
 preserveAspectRatio="xMidYMid meet">
<metadata>
Created by potrace 1.14, written by Peter Selinger 2001-2017
</metadata>
<g transform="translate(0.000000,1399.000000) scale(0.100000,-0.100000)"
fill="#000000" stroke="none">
<path d="M6820 13980 c-129 -22 -156 -28 -255 -61 -186 -62 -323 -146 -500
-305 -38 -34 -79 -71 -91 -81 -12 -10 -68 -61 -125 -113 -56 -52 -130 -120
-163 -150 -95 -86 -146 -133 -176 -160 -15 -14 -67 -61 -116 -105 -48 -44 -95
-87 -104 -95 -9 -8 -56 -51 -105 -95 -49 -44 -100 -91 -115 -105 -14 -14 -61
-56 -104 -95 -43 -38 -88 -79 -100 -90 -12 -11 -62 -56 -111 -100 -48 -44
-100 -91 -114 -105 -14 -14 -67 -61 -116 -105 -49 -44 -96 -87 -105 -95 -9 -8
-58 -53 -110 -100 -51 -47 -106 -96 -121 -110 -74 -68 -122 -112 -209 -190
-52 -47 -107 -96 -121 -110 -14 -14 -46 -43 -70 -64 -48 -42 -194 -175 -298
-271 -37 -33 -86 -78 -110 -100 -43 -39 -112 -101 -178 -162 -17 -17 -60 -55
-95 -86 -35 -31 -82 -73 -104 -94 -67 -62 -217 -200 -260 -237 -23 -20 -56
-50 -76 -68 -19 -18 -75 -69 -123 -113 -49 -44 -99 -89 -110 -100 -12 -11 -59
-54 -105 -95 -46 -41 -91 -82 -100 -90 -9 -8 -61 -55 -115 -105 -54 -49 -106
-97 -115 -105 -9 -8 -83 -76 -165 -150 -82 -74 -159 -144 -171 -155 -12 -11
-63 -58 -115 -105 -160 -145 -227 -218 -308 -337 -63 -93 -137 -245 -171 -350
-26 -81 -35 -112 -56 -208 -3 -11 -8 -49 -12 -85 -9 -84 -9 -7712 0 -7766 43
-254 185 -475 393 -612 107 -70 249 -123 375 -139 79 -10 10376 -9 10440 1
299 47 552 232 689 502 31 62 67 166 76 223 3 19 9 39 13 45 3 6 7 467 7 1024
0 928 -1 1015 -16 1023 -9 4 -18 6 -21 4 -2 -2 -73 -7 -158 -10 -85 -3 -195
-8 -245 -10 -49 -3 -153 -7 -230 -10 -77 -3 -185 -8 -240 -10 -117 -6 -295
-14 -450 -20 -60 -2 -164 -7 -230 -10 -66 -3 -176 -7 -245 -10 -69 -3 -170 -8
-225 -10 -55 -3 -158 -7 -230 -10 -71 -3 -179 -7 -240 -10 -216 -10 -332 -15
-480 -20 -82 -3 -184 -8 -226 -10 -41 -2 -145 -7 -230 -10 -293 -12 -229 8
-649 -201 -457 -227 -669 -330 -777 -375 -62 -25 -81 -38 -77 -49 7 -19 137
-494 157 -575 43 -173 -3 -396 -110 -530 -48 -61 -102 -115 -113 -115 -5 0
-13 -6 -17 -13 -17 -28 -134 -81 -318 -143 -200 -67 -260 -79 -385 -79 -94 1
-151 10 -226 35 -210 72 -366 203 -467 391 -34 63 -61 138 -152 434 -25 83
-57 182 -69 221 l-24 71 142 2 c77 1 159 4 181 6 158 18 222 29 330 56 248 63
453 167 609 311 110 100 172 199 211 335 22 74 25 101 21 197 -6 176 -59 330
-171 501 -42 64 -45 73 -40 115 44 347 -3 623 -138 812 -29 40 -75 90 -104
113 -45 35 -51 44 -48 70 2 17 7 75 11 130 6 94 11 146 13 153 1 2 18 -10 39
-26 95 -75 286 -184 442 -252 127 -56 421 -153 430 -143 5 4 26 47 48 95 l40
86 -97 32 c-605 201 -991 534 -1264 1092 l-52 107 -50 -4 c-27 -3 -61 -7 -75
-9 -29 -5 -169 -25 -220 -32 -38 -5 -106 -15 -130 -19 -8 -1 -42 -6 -75 -11
-33 -4 -63 -8 -67 -10 -5 -1 -12 -2 -16 -3 -5 0 -7 -31 -5 -68 6 -127 7 -398
1 -424 -14 -61 -61 -139 -113 -188 -89 -85 -206 -127 -375 -138 -75 -4 -98 -3
-106 8 -10 12 -44 103 -219 584 -18 50 -68 185 -110 300 -69 189 -76 215 -72
262 3 29 15 70 27 90 14 24 97 100 222 203 110 91 205 170 212 175 29 26 86
73 126 105 24 19 89 73 144 119 56 46 121 100 144 120 24 20 49 41 55 46 57
49 180 147 213 169 98 64 248 89 360 60 48 -13 240 -93 479 -200 17 -7 129
-56 250 -110 893 -392 1377 -607 1540 -684 l90 -42 65 12 c36 6 83 13 105 16
22 2 65 9 95 14 30 5 73 12 95 15 22 3 67 10 100 15 61 9 116 17 176 25 19 3
43 7 54 9 11 2 56 9 100 16 44 6 91 13 105 15 14 2 45 7 70 10 25 3 70 10 100
15 71 12 127 20 165 26 17 2 46 6 65 9 19 3 49 8 65 10 74 10 112 16 135 20
14 2 75 11 135 20 61 9 121 18 135 20 40 6 114 17 130 20 8 2 38 6 65 9 84 12
119 17 145 21 31 6 63 10 165 25 44 6 91 13 105 16 14 2 45 7 70 10 25 3 54 8
65 10 11 2 38 6 60 9 69 10 99 14 125 19 23 4 132 20 220 32 19 3 60 9 90 14
30 5 75 12 100 15 25 3 56 8 70 10 14 2 45 6 70 10 25 3 56 8 70 10 32 6 74
12 130 20 50 7 79 11 160 25 30 5 75 11 100 14 25 4 60 9 79 12 19 4 44 7 55
8 l21 1 -1 1010 c0 879 -4 1141 -19 1164 -2 4 -6 22 -9 41 -24 150 -110 365
-200 501 -110 165 -140 199 -381 417 -27 25 -75 69 -105 96 -30 28 -95 87
-144 131 -49 44 -101 91 -116 105 -14 14 -69 63 -121 110 -52 46 -116 105
-144 131 -27 25 -81 75 -120 110 -38 35 -75 68 -81 74 -17 15 -173 157 -193
175 -10 8 -58 51 -106 95 -49 44 -104 95 -124 113 -20 18 -49 45 -66 61 -16
15 -104 95 -195 177 -91 82 -170 153 -176 159 -6 5 -51 46 -99 90 -48 44 -102
94 -120 110 -18 17 -68 62 -111 100 -42 39 -92 84 -110 100 -64 59 -202 184
-374 340 -179 163 -243 221 -291 265 -15 14 -62 57 -105 95 -42 39 -84 77 -93
86 -9 8 -88 80 -176 160 -88 79 -165 148 -171 154 -6 5 -51 46 -99 90 -49 44
-99 89 -110 100 -12 11 -61 56 -110 100 -49 44 -96 87 -105 95 -9 8 -56 51
-104 95 -49 44 -98 89 -110 100 -12 11 -93 85 -181 164 -88 80 -167 152 -176
160 -14 14 -61 57 -204 185 -22 19 -43 36 -47 36 -4 0 -13 6 -20 13 -23 24
-130 88 -207 126 -89 43 -214 84 -326 107 -87 18 -349 26 -425 14z m344 -1232
c103 -28 191 -81 271 -162 117 -119 171 -248 174 -419 5 -275 -171 -512 -439
-592 -95 -29 -262 -27 -351 3 -209 71 -366 243 -413 452 -18 81 -14 224 9 300
53 174 188 325 350 393 122 50 272 60 399 25z m-1454 -2220 c14 -13 54 -48 90
-78 36 -30 70 -59 76 -65 10 -10 45 -39 204 -175 212 -181 216 -186 228 -242
6 -29 41 -183 77 -343 37 -159 69 -301 71 -315 3 -14 25 -113 50 -220 25 -107
47 -208 50 -225 3 -22 -42 -135 -171 -436 -153 -355 -174 -411 -165 -433 5
-15 12 -37 14 -49 4 -24 32 -139 77 -322 17 -66 32 -127 34 -135 2 -8 12 -51
24 -95 11 -43 19 -80 18 -81 -1 0 -182 -144 -402 -320 -220 -175 -419 -333
-441 -350 -23 -18 -52 -41 -65 -52 -131 -112 -465 -370 -470 -364 -4 4 -14 34
-23 67 -10 33 -30 103 -46 155 -16 52 -36 120 -44 150 -8 30 -35 123 -59 205
-25 83 -73 245 -106 360 -34 116 -69 236 -78 268 -9 31 -26 66 -37 76 -12 11
-151 121 -311 246 -159 124 -303 237 -320 250 -16 14 -52 42 -80 64 -48 37
-53 47 -139 247 -49 115 -97 227 -106 249 -134 303 -151 350 -146 395 3 35 98
618 122 755 3 17 7 41 9 55 4 23 11 67 19 115 15 88 19 112 19 122 0 16 14 21
122 44 50 10 121 25 159 34 38 8 70 14 71 12 2 -2 54 -155 266 -782 77 -225
141 -415 143 -422 4 -9 21 -8 68 4 35 8 74 17 88 19 14 3 52 11 85 19 33 8 71
17 85 19 14 3 52 12 86 20 34 8 72 17 85 20 13 2 76 16 139 31 63 14 126 29
140 31 14 3 72 16 130 30 58 13 114 26 125 28 11 2 57 12 101 21 l81 18 -7 31
c-10 41 -90 348 -195 746 -47 179 -88 333 -90 343 -2 10 -7 27 -10 37 -3 10
-8 28 -10 39 -10 43 -13 56 -20 73 -7 17 10 25 175 83 36 13 85 32 110 43 48
21 58 19 100 -20z m-643 -4878 c46 -146 85 -272 87 -280 3 -8 11 -35 19 -60
20 -61 47 -156 47 -167 0 -5 -6 -10 -12 -10 -15 0 -90 -10 -193 -24 -38 -5
-90 -12 -115 -15 -25 -2 -56 -7 -70 -9 -14 -3 -47 -7 -75 -11 -27 -3 -62 -7
-76 -10 -15 -2 -47 -6 -70 -9 -24 -3 -62 -8 -84 -11 -82 -12 -78 -16 -72 84
25 364 183 635 445 763 31 16 64 27 72 26 10 -1 41 -88 97 -267z m1793 -732
c29 -8 75 -36 96 -60 48 -52 58 -87 59 -207 3 -150 -11 -194 -84 -274 -46 -51
-94 -68 -301 -112 -39 -8 -327 -67 -345 -71 -11 -2 -83 -17 -160 -33 -77 -17
-155 -33 -174 -36 -19 -3 -37 -7 -40 -9 -3 -2 -22 -7 -41 -10 -19 -3 -134 -26
-255 -51 -121 -26 -231 -48 -245 -51 -14 -2 -43 -8 -65 -14 -254 -61 -361 -73
-412 -47 -75 39 -87 62 -168 314 -42 131 -80 248 -85 260 -25 60 43 172 113
188 84 19 218 46 247 51 19 3 43 7 52 10 18 5 18 5 133 28 44 9 90 19 103 22
21 4 30 -9 103 -163 45 -92 96 -200 114 -240 29 -62 37 -71 57 -68 13 2 48 6
78 9 408 39 736 168 809 319 12 24 24 63 27 88 11 79 51 130 120 154 35 12
223 14 264 3z m177 -935 c231 -104 283 -403 103 -584 -73 -73 -145 -101 -310
-123 -25 -3 -54 -8 -65 -10 -18 -3 -59 -10 -137 -22 -16 -2 -40 -6 -55 -9 -16
-2 -89 -13 -163 -25 -74 -11 -144 -22 -155 -24 -11 -2 -42 -7 -68 -10 -27 -4
-59 -10 -70 -12 -12 -3 -40 -7 -62 -10 -22 -3 -65 -9 -95 -14 -30 -6 -73 -12
-95 -15 -22 -3 -51 -8 -65 -10 -14 -3 -41 -7 -60 -10 -19 -3 -60 -10 -90 -15
-30 -5 -73 -12 -95 -15 -22 -3 -53 -8 -70 -11 -77 -14 -126 -11 -181 12 -65
26 -114 69 -139 122 -10 21 -22 44 -26 54 -16 32 -4 180 17 228 24 52 83 117
135 148 31 19 177 62 259 77 14 2 133 30 265 61 284 66 273 64 305 70 14 3 33
7 42 10 9 3 25 6 35 8 10 2 68 16 128 30 61 15 119 28 130 30 11 2 88 20 170
39 83 20 170 40 195 46 61 13 170 5 217 -16z m243 -1056 c65 -33 111 -80 147
-150 23 -44 27 -65 27 -132 0 -92 -4 -111 -39 -170 -41 -70 -104 -117 -223
-163 -205 -80 -383 -123 -657 -159 -74 -9 -503 -10 -606 -1 -238 21 -398 161
-479 416 -15 48 -30 101 -33 119 -7 36 -3 39 78 48 28 3 61 8 75 10 14 2 45 7
70 10 25 3 56 8 70 10 14 2 43 7 65 10 63 8 467 65 496 70 15 3 44 7 65 10
100 12 122 15 159 20 22 3 51 8 65 10 14 3 48 7 75 10 28 4 57 8 65 10 8 2 40
7 70 10 30 3 67 8 82 11 15 3 42 7 60 9 18 3 56 7 83 11 28 3 52 8 55 11 3 3
43 3 90 1 69 -3 96 -9 140 -31z"/>
</g>
</svg>
