<svg width="21" height="21" viewBox="0 0 21 21" fill="none" xmlns="http://www.w3.org/2000/svg">
<path d="M12.8129 10.4993L20.6645 2.64737C20.8805 2.43122 20.9997 2.14285 21 1.83537C21 1.52771 20.8808 1.239 20.6645 1.0232L19.9765 0.335317C19.7601 0.118659 19.4718 0 19.164 0C18.8566 0 18.5683 0.118659 18.352 0.335317L10.5003 8.18676L2.64839 0.335317C2.43241 0.118659 2.14388 0 1.83622 0C1.5289 0 1.24037 0.118659 1.02439 0.335317L0.336 1.0232C-0.112 1.4712 -0.112 2.19988 0.336 2.64737L8.18778 10.4993L0.336 18.3509C0.119854 18.5674 0.000853659 18.8558 0.000853659 19.1633C0.000853659 19.4708 0.119854 19.7591 0.336 19.9754L1.02422 20.6633C1.2402 20.8798 1.5289 20.9986 1.83605 20.9986C2.14371 20.9986 2.43224 20.8798 2.64822 20.6633L10.5002 12.8117L18.3518 20.6633C18.5681 20.8798 18.8565 20.9986 19.1638 20.9986H19.1641C19.4716 20.9986 19.76 20.8798 19.9763 20.6633L20.6643 19.9754C20.8803 19.7593 20.9995 19.4708 20.9995 19.1633C20.9995 18.8558 20.8803 18.5674 20.6643 18.3511L12.8129 10.4993Z" fill="white"/>
</svg>
