<svg width="25" height="25" viewBox="0 0 25 25" fill="none" xmlns="http://www.w3.org/2000/svg">
<path d="M18.8505 12.5002C18.8505 12.0958 19.1784 11.7678 19.5829 11.7678H21.1252C20.7725 7.57768 17.4226 4.22773 13.2324 3.875V5.41738C13.2324 5.82187 12.9045 6.1498 12.5 6.1498C12.0955 6.1498 11.7676 5.82187 11.7676 5.41738V3.875C7.57744 4.22773 4.22749 7.57768 3.87476 11.7678H5.41709C5.82158 11.7678 6.14951 12.0958 6.14951 12.5002C6.14951 12.9047 5.82158 13.2327 5.41709 13.2327H3.87476C4.22749 17.4228 7.57744 20.7728 11.7676 21.1255V19.5831C11.7676 19.1786 12.0955 18.8507 12.5 18.8507C12.9045 18.8507 13.2324 19.1786 13.2324 19.5831V21.1255C17.4226 20.7728 20.7725 17.4228 21.1252 13.2327H19.5829C19.1784 13.2327 18.8505 12.9047 18.8505 12.5002ZM16.9234 9.00273L13.025 13.0109C12.7537 13.2899 12.3113 13.3081 12.018 13.0517L9.10791 10.5077C8.80337 10.2415 8.77231 9.77871 9.03857 9.47422C9.30478 9.16968 9.76748 9.13853 10.0721 9.40483L12.4592 11.4917L15.8733 7.9814C16.1554 7.69145 16.6191 7.68506 16.909 7.96699C17.199 8.24912 17.2054 8.71279 16.9234 9.00273Z" fill="#FF9800"/>
<path d="M12.5 0C5.60747 0 0 5.60747 0 12.5C0 19.3925 5.60747 25 12.5 25C19.3925 25 25 19.3925 25 12.5C25 5.60747 19.3925 0 12.5 0ZM12.5 22.6214C6.91904 22.6214 2.37861 18.081 2.37861 12.5C2.37861 6.91904 6.91904 2.37861 12.5 2.37861C18.081 2.37861 22.6214 6.91904 22.6214 12.5C22.6214 18.081 18.081 22.6214 12.5 22.6214Z" fill="#FF9800"/>
</svg>
