<svg width="21" height="21" viewBox="0 0 21 21" fill="none" xmlns="http://www.w3.org/2000/svg">
<path d="M15.0001 6.375C15.0001 6.58209 14.8322 6.75 14.6251 6.75C14.418 6.75 14.2501 6.58209 14.2501 6.375C14.2501 6.16791 14.418 6 14.6251 6C14.8322 6 15.0001 6.16791 15.0001 6.375Z" fill="#D5D5D5"/>
<path d="M15.375 4.5H5.625C5.00372 4.5 4.5 5.00372 4.5 5.625V15.375C4.5 15.9963 5.00372 16.5 5.625 16.5H15.375C15.9963 16.5 16.5 15.9963 16.5 15.375V5.625C16.5 5.00372 15.9963 4.5 15.375 4.5ZM10.5 14.25C8.42889 14.25 6.75 12.5711 6.75 10.5C6.75 8.42889 8.42889 6.75 10.5 6.75C12.5711 6.75 14.25 8.42889 14.25 10.5C14.2478 12.5702 12.5702 14.2478 10.5 14.25ZM14.625 7.5C14.0037 7.5 13.5 6.99628 13.5 6.375C13.5 5.75372 14.0037 5.25 14.625 5.25C15.2463 5.25 15.75 5.75372 15.75 6.375C15.75 6.99628 15.2463 7.5 14.625 7.5Z" fill="#D5D5D5"/>
<path d="M13.5 10.5C13.5 12.1569 12.1569 13.5 10.5 13.5C8.84308 13.5 7.5 12.1569 7.5 10.5C7.5 8.84308 8.84308 7.5 10.5 7.5C12.1569 7.5 13.5 8.84308 13.5 10.5Z" fill="#D5D5D5"/>
<path d="M10.5 0C4.70105 0 0 4.70105 0 10.5C0 16.299 4.70105 21 10.5 21C16.299 21 21 16.299 21 10.5C20.9934 4.7038 16.2962 0.0065918 10.5 0ZM17.25 15.375C17.2487 16.4101 16.4101 17.2487 15.375 17.25H5.625C4.5899 17.2487 3.75128 16.4101 3.75 15.375V5.625C3.75128 4.5899 4.5899 3.75128 5.625 3.75H15.375C16.4101 3.75128 17.2487 4.5899 17.25 5.625V15.375Z" fill="#D5D5D5"/>
</svg>
