<svg width="33" height="33" viewBox="0 0 33 33" fill="none" xmlns="http://www.w3.org/2000/svg">
<g clip-path="url(#clip0)">
<path d="M25.5484 15.7765L10.0567 0.28486C9.74822 -0.0236644 9.24798 -0.0236644 8.93956 0.28486L7.44982 1.77461C7.30161 1.92271 7.2184 2.12368 7.2184 2.33319C7.2184 2.54271 7.30161 2.74368 7.44982 2.89178L20.8932 16.3351L7.44982 29.7785C7.30161 29.9266 7.2184 30.1276 7.2184 30.3371C7.2184 30.5466 7.30161 30.7476 7.44982 30.8957L8.93956 32.3854C9.09377 32.5397 9.29602 32.6169 9.49815 32.6169C9.70029 32.6169 9.90253 32.5398 10.0567 32.3854L25.5484 16.8938C25.857 16.5853 25.857 16.085 25.5484 15.7765Z" fill="#FF9800"/>
</g>
<defs>
<clipPath id="clip0">
<rect width="32.5634" height="32.5634" fill="white" transform="translate(0.217453 0.0534668)"/>
</clipPath>
</defs>
</svg>
