<svg width="22" height="22" viewBox="0 0 22 22" fill="none" xmlns="http://www.w3.org/2000/svg">
<path d="M21.7017 19.0179L17.4157 14.733C17.3193 14.637 17.2048 14.5609 17.0789 14.5093C16.953 14.4577 16.8181 14.4315 16.682 14.4323H15.9837C17.3837 12.6389 18.0467 10.3791 17.8375 8.11386C17.6283 5.84859 16.5627 3.74838 14.858 2.24147C13.1534 0.734552 10.9379 -0.0655833 8.66346 0.00421019C6.38901 0.0740037 4.22682 1.00847 2.61778 2.61707C1.00875 4.22567 0.0740239 6.38726 0.00421134 8.66109C-0.0656012 10.9349 0.734753 13.1498 2.24208 14.854C3.74941 16.5582 5.85019 17.6235 8.11608 17.8326C10.382 18.0417 12.6423 17.3789 14.4363 15.9794V16.6786C14.4355 16.8147 14.4617 16.9496 14.5133 17.0755C14.5649 17.2014 14.641 17.3158 14.7371 17.4121L19.0231 21.697C19.1186 21.793 19.2322 21.8692 19.3572 21.9212C19.4823 21.9732 19.6164 22 19.7519 22C19.8874 22 20.0215 21.9732 20.1466 21.9212C20.2716 21.8692 20.3852 21.793 20.4807 21.697L21.6974 20.4806C21.8905 20.2866 21.9992 20.0244 22 19.7507C22.0008 19.4771 21.8936 19.2142 21.7017 19.0191V19.0179ZM8.93353 14.4335C7.84519 14.4335 6.78129 14.1109 5.87637 13.5064C4.97145 12.9019 4.26615 12.0428 3.84966 11.0375C3.43317 10.0323 3.3242 8.9262 3.53653 7.85907C3.74885 6.79194 4.27293 5.81171 5.0425 5.04235C5.81208 4.27299 6.79257 3.74905 7.86 3.53678C8.92742 3.32451 10.0338 3.43346 11.0393 3.84983C12.0448 4.26621 12.9042 4.97131 13.5089 5.87599C14.1135 6.78066 14.4363 7.84427 14.4363 8.93231C14.4365 9.65475 14.2943 10.3702 14.0179 11.0376C13.7414 11.7051 13.336 12.3116 12.825 12.8224C12.314 13.3332 11.7072 13.7382 11.0395 14.0145C10.3718 14.2907 9.65617 14.4327 8.93353 14.4323V14.4335Z" fill="white"/>
</svg>
