<svg width="64" height="64" viewBox="0 0 64 64" fill="none" xmlns="http://www.w3.org/2000/svg">
<g clip-path="url(#clip0)">
<path d="M64 26.8387H61.6774L58.2194 28.6581C57.8323 28.4387 57.4194 28.2581 56.9935 28.1548L52.6452 27.071V26.5807C54.5677 25.2387 55.7419 23.0194 55.7419 20.6581V18.8516C55.7419 14.8387 52.5935 11.4839 48.7355 11.3677C48.5419 11.3677 48.3484 11.3677 48.1548 11.3806L49.2774 8.73549L43.8064 3.26452L40.5806 5.36774C39.3548 4.68387 38.0645 4.14194 36.7226 3.76774L35.9355 0H28.0645L27.2645 3.75484C25.9226 4.12903 24.6194 4.67097 23.4065 5.35484L20.1806 3.25161L14.7226 8.70968L15.8323 11.3548C15.7935 11.3548 15.7548 11.3419 15.7032 11.3419C13.729 11.3032 11.871 12.0258 10.4516 13.3936C9.03226 14.7613 8.25806 16.6065 8.25806 18.5806V20.6452C8.25806 23.0065 9.43226 25.2258 11.3548 26.5677V27.0581L8.51613 27.7677L3.38065 24.7742H0V46.1678L10.1548 49.5484H12.129L12.3742 48.6839L15.4839 50.5548C15.5355 52.2452 16.8903 53.6129 18.5806 53.6645C18.6452 55.3549 19.9871 56.6968 21.6774 56.7613C21.7419 58.4516 23.0839 59.7936 24.7742 59.8581C24.8387 61.5871 26.2452 62.9678 27.9871 62.9678C28.6323 62.9678 29.2645 62.7613 29.7935 62.4129L30.7097 63.2258C31.2774 63.729 32.0258 64.0129 32.7871 64.0129H32.9806C34.6968 64.0129 36.0903 62.6194 36.1161 60.9161C37.8194 60.8903 39.1871 59.5226 39.2129 57.8194C40.9161 57.7936 42.2839 56.4258 42.3097 54.7226C44.0258 54.6839 45.4064 53.2774 45.4064 51.5613C45.4064 51.4581 45.4064 51.3549 45.3935 51.2516L64 41.9226V26.8387ZM53.6774 18.8387V20.6452C53.6774 22.4774 52.6839 24.1936 51.0968 25.1097L50.5806 25.4065V28.671L55.7419 29.9613L44.3871 35.9355V33.1613C44.3871 31.7677 43.8323 30.5032 42.9032 29.5613L46.4516 28.671V25.4065L45.9355 25.1097C44.3484 24.1936 43.3548 22.4774 43.3548 20.6452V18.5806C43.3548 17.1742 43.9097 15.8581 44.929 14.8774C45.9355 13.8968 47.2774 13.3677 48.6839 13.4194C51.4323 13.5097 53.6774 15.9355 53.6774 18.8387ZM33.5613 35.1226L28.8903 33.6258C26.7613 32.9419 24.4516 32.8387 22.271 33.329L21.6774 33.4581V33.1613C21.6774 31.7419 22.6452 30.5032 24.0258 30.1548L29.9355 28.6839V25.4194L29.4194 25.1226C27.8323 24.2065 26.8387 22.4903 26.8387 20.6581V18.5936C26.8387 17.1871 27.3935 15.871 28.4129 14.8903C29.4194 13.9097 30.7742 13.3806 32.1677 13.4323C34.929 13.5097 37.1742 15.9484 37.1742 18.8516V20.6581C37.1742 22.4903 36.1806 24.2065 34.5935 25.1226L34.0774 25.4194V28.6839L39.9871 30.1548C41.3548 30.5032 42.3226 31.7419 42.3226 33.1613V37.0323L42.0645 37.1613H41.4323L35.0839 35.3419C34.5935 35.2 34.0774 35.1484 33.5613 35.1226ZM21.9097 15.4452C23.8452 11.6903 27.7548 9.29032 32 9.29032C36.2065 9.29032 40.0903 11.6645 42.0516 15.3677C41.5613 16.3484 41.2903 17.4452 41.2903 18.5806V20.6452C41.2903 23.0065 42.4645 25.2258 44.3871 26.5677V27.0581L40.2581 28.0903L36.129 27.0581V26.5677C38.0516 25.2258 39.2258 23.0065 39.2258 20.6452V18.8387C39.2258 14.8258 36.0774 11.471 32.2194 11.3548C30.2452 11.3032 28.3742 12.0129 26.9677 13.3936C25.5484 14.7613 24.7742 16.6065 24.7742 18.5806V20.6452C24.7742 23.0065 25.9484 25.2258 27.871 26.5677V27.0581L23.7419 28.0903L19.6129 27.0581V26.5677C21.5355 25.2258 22.7097 23.0065 22.7097 20.6452V18.8387C22.7097 17.6258 22.4129 16.4774 21.9097 15.4452ZM17.1613 9.2129L20.4645 5.90968L23.3677 7.79355L23.9226 7.45807C25.3161 6.60645 26.8129 5.9871 28.3871 5.6L29.0194 5.44516L29.7419 2.06452H34.2581L34.9806 5.44516L35.6129 5.6C37.1871 5.9742 38.6968 6.60645 40.0774 7.45807L40.6323 7.79355L43.5355 5.90968L46.8387 9.2L45.6645 11.9355C44.8645 12.2839 44.129 12.7613 43.4839 13.3806C43.4452 13.4194 43.4065 13.471 43.3677 13.5097C40.929 9.65161 36.6323 7.22581 32 7.22581C27.329 7.22581 23.0194 9.67742 20.5935 13.5871C19.9484 12.9032 19.1742 12.3613 18.3226 11.9742L17.1613 9.2129ZM13.4194 28.671V25.4065L12.9032 25.1097C11.3161 24.1936 10.3226 22.4774 10.3226 20.6452V18.5806C10.3226 17.1742 10.8774 15.8581 11.8968 14.8774C12.9032 13.8968 14.2452 13.3677 15.6516 13.4194C18.4129 13.4968 20.6581 15.9355 20.6581 18.8387V20.6452C20.6581 22.4774 19.6645 24.1936 18.0774 25.1097L17.5613 25.4065V28.671L21.0968 29.5613C20.1806 30.5032 19.6129 31.7677 19.6129 33.1613V33.9226L16.3871 34.6323L16.4645 34.3355L16.5032 32.4258L11.0581 29.2516L13.4194 28.671ZM2.06452 26.8387H2.8129L10.2323 31.1742L6.49032 46.1549L2.06452 44.671V26.8387ZM10.4903 47.4839L8.46452 46.8129L12.1032 32.2581L14.4516 33.6258V33.9226L10.5806 47.4839H10.4903ZM17.5484 50.4516C17.5484 50.1419 17.6774 49.8452 17.8839 49.6387L19.7032 47.8194C19.9226 47.6 20.2194 47.4839 20.5161 47.4839C21.1484 47.4839 21.6774 48 21.6774 48.6452C21.6774 48.9548 21.5484 49.2516 21.3419 49.4581L19.5226 51.2774C19.3032 51.4968 19.0065 51.6129 18.7097 51.6129C18.0645 51.6129 17.5484 51.0968 17.5484 50.4516ZM20.6452 53.5484C20.6452 53.2387 20.7742 52.9419 20.9806 52.7355L22.8 50.9161C23.0194 50.6968 23.3161 50.5807 23.6129 50.5807C24.2452 50.5807 24.7742 51.0968 24.7742 51.7419C24.7742 52.0516 24.6452 52.3484 24.4387 52.5548L22.6194 54.3742C22.4 54.5936 22.1032 54.7097 21.8065 54.7097C21.1613 54.7097 20.6452 54.1936 20.6452 53.5484ZM23.7419 56.6452C23.7419 56.3355 23.871 56.0387 24.0774 55.8323L25.8968 54.0129C26.1161 53.7936 26.4129 53.6774 26.7097 53.6774C27.3419 53.6774 27.871 54.1936 27.871 54.8387C27.871 55.1484 27.7419 55.4452 27.5355 55.6516L25.7161 57.471C25.4968 57.6903 25.2 57.8065 24.9032 57.8065C24.2581 57.8065 23.7419 57.2903 23.7419 56.6452ZM28 60.9032C27.3677 60.9032 26.8387 60.3871 26.8387 59.7419C26.8387 59.4323 26.9677 59.1355 27.1742 58.929L28.9935 57.1097C29.2129 56.8903 29.5097 56.7742 29.8064 56.7742C30.4387 56.7742 30.9677 57.2903 30.9677 57.9355C30.9677 58.2452 30.8387 58.5419 30.6323 58.7484L28.8129 60.5678C28.5935 60.7742 28.2968 60.9032 28 60.9032ZM32.9935 61.9355H32.8C32.5419 61.9355 32.2839 61.8452 32.0903 61.6645L31.3161 60.9807L32.0903 60.2065C32.3613 59.9355 32.5806 59.6 32.7355 59.2516L33.6774 60.0387C33.9226 60.2452 34.0645 60.542 34.0645 60.8645C34.0645 61.4581 33.5871 61.9355 32.9935 61.9355ZM42.2452 52.6452H42.0645C41.8064 52.6452 41.5484 52.5548 41.3548 52.3871L35.7548 47.7161L34.4258 49.3032L39.8581 53.8323C40.1032 54.0387 40.2452 54.3355 40.2452 54.6581C40.2452 55.2516 39.7677 55.729 39.1742 55.729H38.9548C38.7097 55.729 38.4645 55.6387 38.271 55.4839L32.6581 50.8129L31.329 52.4L36.7613 56.929C37.0065 57.1355 37.1484 57.4323 37.1484 57.7549C37.1484 58.3484 36.671 58.8258 36.0774 58.8258C35.6774 58.8258 35.2903 58.6839 34.9935 58.4387L32.6839 56.5161C32.1806 55.4839 31.1355 54.7613 29.9097 54.7097C29.8452 53.0194 28.5032 51.6774 26.8129 51.6129C26.7484 49.9226 25.4065 48.5807 23.7161 48.5161C23.6516 46.7871 22.2452 45.4065 20.5032 45.4065C19.6516 45.4065 18.8258 45.7548 18.2194 46.3484L16.4 48.1678C16.2968 48.271 16.2065 48.4 16.1161 48.5161L12.9419 46.6194L15.7419 36.9032L22.7097 35.3548C24.5419 34.9419 26.4645 35.0323 28.2452 35.6L29.7677 36.0903L24.6065 38.671C23.4323 39.2645 22.6968 40.4516 22.6968 41.7678V41.9742C22.6968 43.8839 24.2452 45.4323 26.1548 45.4323C26.7871 45.4323 27.3935 45.2645 27.9355 44.9419L31.7806 42.6323C32.5548 42.1678 33.5871 42.271 34.2581 42.8645L42.9806 50.7097C43.2129 50.9161 43.3419 51.2258 43.3419 51.5355C43.3548 52.1419 42.8516 52.6452 42.2452 52.6452ZM61.9355 40.6581L44.5419 49.3548C44.4903 49.2903 44.4258 49.2387 44.3613 49.1871L35.6387 41.3419C34.8774 40.6581 33.8839 40.271 32.8516 40.271C32.1032 40.271 31.3548 40.4774 30.7097 40.8645L26.8645 43.1742C26.6452 43.3032 26.4 43.3678 26.1548 43.3678C25.3806 43.3678 24.7613 42.7484 24.7613 41.9742V41.7678C24.7613 41.2387 25.0581 40.7613 25.5355 40.5161L31.2903 37.6387C32.271 37.1484 33.4452 37.0323 34.5032 37.3419L40.9935 39.2L42.5806 39.2258L61.9355 29.0323V40.6581Z" fill="white"/>
</g>
<defs>
<clipPath id="clip0">
<rect width="64" height="64" fill="white"/>
</clipPath>
</defs>
</svg>
