<svg width="55" height="55" viewBox="0 0 55 55" fill="none" xmlns="http://www.w3.org/2000/svg">
<g clip-path="url(#clip0)">
<path d="M51.5377 2.1385C50.144 2.1385 48.9553 3.03232 48.5138 4.27699H40.6314C40.6314 1.9188 38.7126 0 36.3544 0C33.9916 0 32.0774 1.91379 32.0774 4.27699H27.8004C27.8004 1.9188 25.8816 0 23.5234 0C21.1607 0 19.2465 1.91379 19.2465 4.27699H14.9695C14.9695 1.9188 13.0507 0 10.6925 0C8.32969 0 6.41549 1.91379 6.41549 4.27699H1.06925C0.478655 4.27699 0 4.75565 0 5.34624C0 5.93683 0.478655 6.41423 1.06925 6.41423H6.41549C6.41549 7.59375 5.45609 8.55398 4.27699 8.55398H1.06925C0.478655 8.55398 0 9.03264 0 9.62323V25.2342C0 25.8248 0.478655 26.3035 1.06925 26.3035C1.65984 26.3035 2.1385 25.8248 2.1385 25.2342V10.6925H4.27699C6.63518 10.6925 8.55398 8.77368 8.55398 6.41549V4.27699C8.55398 3.09581 9.51129 2.1385 10.6925 2.1385C11.8716 2.1385 12.831 3.09789 12.831 4.27699V6.41549C12.831 8.77827 14.7448 10.6925 17.108 10.6925C19.4662 10.6925 21.385 8.77368 21.385 6.41549V4.27699C21.385 3.09581 22.3423 2.1385 23.5234 2.1385C24.7025 2.1385 25.6619 3.09789 25.6619 4.27699V6.41549C25.6619 8.77827 27.5757 10.6925 29.9389 10.6925C32.2971 10.6925 34.2159 8.77368 34.2159 6.41549V4.27699C34.2159 3.09581 35.1732 2.1385 36.3544 2.1385C37.5335 2.1385 38.4929 3.09789 38.4929 4.27699V50.4685C38.4929 51.6497 37.5356 52.607 36.3544 52.607C35.1753 52.607 34.2159 51.6476 34.2159 50.4685C34.2159 47.343 34.2159 26.8068 34.2159 22.4542C34.2159 21.8636 33.7373 21.385 33.1467 21.385C32.5561 21.385 32.0774 21.8636 32.0774 22.4542V44.6256C31.4342 44.2527 30.702 44.053 29.9389 44.053C29.1604 44.053 28.4299 44.2631 27.8004 44.6286V13.9002C27.8004 13.3096 27.3218 12.831 26.7312 12.831C26.1406 12.831 25.6619 13.3096 25.6619 13.9002V50.4685C25.6619 51.6497 24.7046 52.607 23.5234 52.607C22.3444 52.607 21.385 51.6476 21.385 50.4685C21.385 47.343 21.385 26.8068 21.385 22.4542C21.385 21.8636 20.9063 21.385 20.3157 21.385C19.7251 21.385 19.2465 21.8636 19.2465 22.4542V44.6256C18.6032 44.2527 17.8711 44.053 17.108 44.053C16.3294 44.053 15.5989 44.2631 14.9695 44.6286V13.9002C14.9695 13.3096 14.4908 12.831 13.9002 12.831C13.3096 12.831 12.831 13.3096 12.831 13.9002V50.4685C12.831 51.6497 11.8737 52.607 10.6925 52.607C9.51338 52.607 8.55398 51.6476 8.55398 50.4685C8.55398 47.343 8.55398 26.8068 8.55398 22.4542C8.55398 21.8636 8.07533 21.385 7.48473 21.385C6.89414 21.385 6.41549 21.8636 6.41549 22.4542V44.6286C5.78605 44.2631 5.05554 44.053 4.27699 44.053H2.1385V33.7882C2.1385 33.1976 1.65984 32.719 1.06925 32.719C0.478655 32.719 0 33.1976 0 33.7882V45.1223C0 45.7128 0.478655 46.1915 1.06925 46.1915H4.27699C5.45609 46.1915 6.41549 47.1509 6.41549 48.33V50.4685C6.41549 52.8267 8.33428 54.7455 10.6925 54.7455C13.0553 54.7455 14.9695 52.8317 14.9695 50.4685V48.33C14.9695 47.1509 15.9289 46.1915 17.108 46.1915C18.2887 46.1915 19.2465 47.1488 19.2465 48.33V50.4685C19.2465 52.8267 21.1653 54.7455 23.5234 54.7455C25.8862 54.7455 27.8004 52.8317 27.8004 50.4685V48.33C27.8004 47.1509 28.7598 46.1915 29.9389 46.1915C31.1197 46.1915 32.0774 47.1488 32.0774 48.33V50.4685C32.0774 52.8267 33.9962 54.7455 36.3544 54.7455C38.7172 54.7455 40.6314 52.8317 40.6314 50.4685V6.41549H48.5138C48.9553 7.66016 50.144 8.55398 51.5377 8.55398C53.3066 8.55398 54.7455 7.11509 54.7455 5.34624C54.7455 3.57739 53.3066 2.1385 51.5377 2.1385ZM17.108 8.55398C15.9272 8.55398 14.9695 7.59542 14.9695 6.41423H19.2465C19.2465 7.59375 18.2871 8.55398 17.108 8.55398ZM29.9389 8.55398C28.7582 8.55398 27.8004 7.59542 27.8004 6.41423H32.0774C32.0774 7.59375 31.118 8.55398 29.9389 8.55398ZM51.5377 6.41549C50.948 6.41549 50.4685 5.936 50.4685 5.34624C50.4685 4.75648 50.948 4.27699 51.5377 4.27699C52.1275 4.27699 52.607 4.75648 52.607 5.34624C52.607 5.936 52.1275 6.41549 51.5377 6.41549Z" fill="#FF9800"/>
<path d="M2.1385 29.5111C2.1385 30.1017 1.65984 30.5804 1.06925 30.5804C0.478655 30.5804 0 30.1017 0 29.5111C0 28.9205 0.478655 28.4419 1.06925 28.4419C1.65984 28.4419 2.1385 28.9205 2.1385 29.5111Z" fill="#FF9800"/>
</g>
<defs>
<clipPath id="clip0">
<rect width="54.7455" height="54.7455" fill="white"/>
</clipPath>
</defs>
</svg>
