<svg width="55" height="64" viewBox="0 0 55 64" fill="none" xmlns="http://www.w3.org/2000/svg">
<path d="M54.156 56.0702L44.3546 39.0958C48.1876 34.9344 50.4873 29.404 50.4873 23.3261C50.4873 16.8649 47.859 11.0607 43.6428 6.84451C39.4266 2.62829 33.6225 0 27.1612 0C20.7 0 14.8959 2.62829 10.6797 6.84451C6.46344 11.0607 3.83514 16.8649 3.83514 23.3261C3.83514 29.404 6.1349 34.9344 9.96783 39.0958L0.166487 56.0702C0.00221854 56.344 -0.0525374 56.7273 0.0569747 57.1106C0.275999 57.7129 0.933072 57.9867 1.53539 57.7677L9.36551 54.6466L10.5701 63.0242C10.6249 63.3528 10.7892 63.6813 11.1177 63.8456C11.6653 64.1741 12.3771 63.9551 12.7056 63.4075L22.6165 46.2689C24.0401 46.5427 25.5733 46.7069 27.0517 46.7069C28.5849 46.7069 30.0633 46.5427 31.487 46.2689L41.3978 63.4075C41.7264 63.9551 42.4382 64.1194 42.9857 63.8456C43.3143 63.6813 43.4785 63.3528 43.5333 63.0242L44.7379 54.6466L52.5681 57.7677C53.1704 57.9867 53.8274 57.7129 54.0465 57.1106C54.375 56.7273 54.3203 56.344 54.156 56.0702ZM12.4866 59.3556L11.501 52.8396C11.3915 52.2373 10.8439 51.7992 10.1868 51.854C10.0773 51.854 9.96783 51.9088 9.85831 51.9635L3.78039 54.3728L11.6653 40.7385C14.1293 42.9288 17.0861 44.6262 20.3715 45.6118L12.4866 59.3556ZM27.1612 44.3524C21.3571 44.3524 16.1005 41.9979 12.3223 38.2197C8.54417 34.4416 6.18966 29.185 6.18966 23.3808C6.18966 17.5767 8.54417 12.3201 12.3223 8.54195C16.1005 4.65427 21.3571 2.29976 27.1612 2.29976C32.9654 2.29976 38.222 4.65427 42.0001 8.43244C45.7783 12.2106 48.1328 17.4672 48.1328 23.2713C48.1328 29.0755 45.7783 34.3321 42.0001 38.1102C38.222 41.9979 32.9654 44.3524 27.1612 44.3524ZM44.4642 51.9635C44.3546 51.9088 44.2451 51.854 44.1356 51.854C43.5333 51.7445 42.931 52.1825 42.8215 52.8396L41.8359 59.3556L33.951 45.6118C37.2364 44.6262 40.1932 42.9288 42.6572 40.7385L50.5421 54.3728L44.4642 51.9635Z" fill="white"/>
<path d="M37.8935 19.2743C37.6197 18.891 37.2911 18.6173 36.9078 18.453C36.5245 18.2887 36.0865 18.1792 35.6485 18.234H31.1037L29.68 13.744C29.461 13.0869 28.9682 12.5393 28.4207 12.2108C28.0374 12.0465 27.6541 11.937 27.216 11.937C26.778 11.937 26.3947 12.0465 26.0114 12.2108C25.4091 12.5393 24.971 13.0321 24.752 13.744L23.3283 18.234H18.7836C18.3455 18.1792 17.9075 18.2887 17.5242 18.453C17.1409 18.6173 16.8124 18.891 16.5386 19.2743C16.1005 19.8766 15.991 20.5337 16.1005 21.1908C16.21 21.8479 16.5386 22.4502 17.1409 22.8882L20.9738 25.626L19.4954 30.116C19.4954 30.1708 19.4954 30.2255 19.4407 30.2255C19.3311 30.5541 19.3311 30.9374 19.3859 31.3207C19.4407 31.704 19.6049 32.0872 19.8787 32.4158C20.3168 33.0181 20.9191 33.3466 21.5761 33.4561C22.2332 33.5657 22.945 33.4014 23.4926 32.9633L27.3255 30.1708L31.1585 32.9633C31.7608 33.4014 32.4178 33.5109 33.0749 33.4561C33.732 33.3466 34.3343 33.0181 34.7724 32.4158C35.0461 32.0872 35.1556 31.704 35.2652 31.3207C35.3199 30.9374 35.3199 30.6088 35.2104 30.2255C35.2104 30.1708 35.2104 30.116 35.1556 30.116L33.6772 25.626L37.5102 22.8882C38.1125 22.4502 38.441 21.8479 38.5505 21.1908C38.4958 20.5885 38.3315 19.8766 37.8935 19.2743ZM35.977 21.0265L35.9222 21.0813L31.487 24.3119C31.1037 24.5857 30.8847 25.1332 31.0489 25.5713L32.7464 30.7731V30.8279C32.7464 30.8826 32.7464 30.9374 32.7464 30.9921C32.7464 31.0469 32.7464 31.1016 32.6916 31.1016C32.6369 31.1564 32.5821 31.2111 32.4726 31.2111C32.4178 31.2111 32.3083 31.2111 32.2536 31.1564L27.7636 27.871C27.5446 27.7068 27.3255 27.652 27.0517 27.652C26.8327 27.652 26.5589 27.7068 26.3399 27.871L21.8499 31.1564C21.7952 31.2111 21.6857 31.2111 21.6309 31.2111C21.5761 31.2111 21.4666 31.1564 21.4119 31.1016C21.3571 31.0469 21.3571 30.9921 21.3571 30.9921C21.3571 30.9374 21.3571 30.8826 21.3571 30.8279V30.7731L23.0546 25.5713C23.2188 25.0785 23.0546 24.5857 22.6165 24.3119L18.4003 21.0813L18.3455 21.0265C18.2908 20.9718 18.236 20.917 18.236 20.8622C18.236 20.8075 18.236 20.698 18.2908 20.6432C18.2908 20.6432 18.2908 20.5885 18.3455 20.5885C18.4003 20.5337 18.4003 20.5337 18.455 20.5337C18.5098 20.5337 18.5646 20.479 18.6193 20.479C18.6741 20.479 18.7288 20.479 18.7836 20.479H24.1497C24.6425 20.479 25.0805 20.1504 25.2448 19.6576L26.9422 14.401C26.9422 14.3463 26.997 14.2368 27.1065 14.2368C27.1613 14.2368 27.216 14.182 27.216 14.182C27.2708 14.182 27.3255 14.182 27.3255 14.2368C27.3803 14.2915 27.435 14.3463 27.4898 14.401L29.1872 19.6576C29.3515 20.0957 29.7896 20.479 30.2824 20.479H35.6485C35.7032 20.479 35.758 20.479 35.8127 20.479C35.8675 20.479 35.9222 20.479 35.977 20.5337C36.0317 20.5337 36.0317 20.5885 36.0865 20.5885C36.0865 20.5885 36.0865 20.6432 36.1413 20.6432C36.196 20.698 36.196 20.7527 36.196 20.8622C36.0865 20.917 36.0317 20.9718 35.977 21.0265Z" fill="white"/>
<path d="M40.0289 10.4583C36.7435 7.17295 32.1988 5.14697 27.1612 5.14697C22.1236 5.14697 17.5789 7.17295 14.2935 10.4583C11.0082 13.7437 8.98218 18.2884 8.98218 23.326C8.98218 28.3635 11.0082 32.9083 14.2935 36.1937C17.5789 39.479 22.1236 41.505 27.1612 41.505C32.1988 41.505 36.7435 39.479 40.0289 36.1937C43.3142 32.9083 45.3402 28.3635 45.3402 23.326C45.3402 18.2884 43.3142 13.7437 40.0289 10.4583ZM38.4409 34.551C35.5389 37.453 31.5417 39.2052 27.1612 39.2052C22.7807 39.2052 18.7835 37.3983 15.9362 34.551C13.0341 31.6489 11.2819 27.7065 11.2819 23.326C11.2819 18.9455 13.0889 14.9483 15.9362 12.101C18.7835 9.19892 22.7807 7.39197 27.1612 7.39197C31.5417 7.39197 35.5389 9.19892 38.3862 12.0462C41.2883 14.9483 43.0405 18.8907 43.0405 23.2712C43.0405 27.6517 41.2883 31.7037 38.4409 34.551Z" fill="white"/>
</svg>
