<svg width="64" height="64" viewBox="0 0 64 64" fill="none" xmlns="http://www.w3.org/2000/svg">
<g clip-path="url(#clip0)">
<path d="M62.1121 21.9862L55.7093 17.4364C55.7329 17.3447 55.7495 17.2504 55.7495 17.1514V6.87148C55.7495 6.24073 55.2381 5.72923 54.6073 5.72923H47.754C47.1233 5.72923 46.6118 6.24061 46.6118 6.87148V10.9717L34.7091 2.51386C34.5159 2.37661 34.2848 2.30273 34.0475 2.30273H29.3514C29.1101 2.30273 28.8751 2.37911 28.68 2.52086L1.87876 21.9932C-0.157242 23.4726 -0.609242 26.3342 0.871508 28.3726C1.58776 29.3584 2.64551 30.007 3.85001 30.1989C4.09388 30.2376 4.33763 30.2569 4.57963 30.2569C4.88838 30.2569 5.19351 30.2224 5.49251 30.1609V57.1325C5.49251 59.6495 7.54563 61.6974 10.0693 61.6974H23.7678H39.7586H53.4571C55.9808 61.6974 58.0339 59.6494 58.0339 57.1325V30.0351C58.7084 30.2527 59.429 30.3134 60.1508 30.1987C61.3553 30.0069 62.413 29.3582 63.1293 28.3722C64.6098 26.3341 64.158 23.4725 62.1121 21.9862ZM48.8963 12.5825V8.01373H53.465V15.8416L48.895 12.5941C48.895 12.5902 48.8963 12.5865 48.8963 12.5825ZM38.6164 59.4129H24.91V42.2799H38.6164V59.4129ZM55.7494 57.1324C55.7494 58.3897 54.7211 59.4129 53.457 59.4129H40.9008V41.1376C40.9008 40.5069 40.3894 39.9954 39.7585 39.9954H23.7678C23.137 39.9954 22.6255 40.5067 22.6255 41.1376V59.4129H10.0693C8.80513 59.4129 7.77688 58.3897 7.77688 57.1324V29.0054L31.7693 11.7019L55.7494 28.6767V57.1324ZM61.2809 27.0299C60.923 27.5226 60.3939 27.8469 59.7911 27.9429C59.1888 28.0399 58.5859 27.8952 58.0823 27.5294L32.423 9.36598C32.0243 9.08373 31.4906 9.08573 31.095 9.37186L5.90688 27.5375C5.41488 27.895 4.81263 28.0395 4.20963 27.943C3.60688 27.8471 3.07776 27.5227 2.71963 27.03C1.97926 26.0107 2.20438 24.5805 3.22138 23.8415L29.7226 4.58711H33.6831L60.7793 23.8415C61.7961 24.5804 62.0213 26.0107 61.2809 27.0299Z" fill="white"/>
</g>
<defs>
<clipPath id="clip0">
<rect width="64" height="64" fill="white"/>
</clipPath>
</defs>
</svg>
