<svg width="66" height="66" viewBox="0 0 66 66" fill="none" xmlns="http://www.w3.org/2000/svg">
<circle cx="33" cy="33" r="33" fill="white"/>
<path d="M32.5 23.6719C30.1087 23.6719 28.1641 25.6165 28.1641 28.0078C28.1641 30.4106 30.1052 32.3438 32.5 32.3438C34.9377 32.3438 36.8359 30.3742 36.8359 28.0078C36.8359 25.6165 34.8913 23.6719 32.5 23.6719Z" fill="#FF9800"/>
<path d="M32.5 15C25.3271 15 19.4922 20.8349 19.4922 28.0078C19.4922 30.4309 20.1633 32.7958 21.4326 34.8473L31.7591 51.4871C32.1872 52.1786 33.1968 52.1681 33.6116 51.4723L43.6744 34.6716C44.8727 32.6635 45.5078 30.3589 45.5078 28.0078C45.5078 20.8349 39.6729 15 32.5 15ZM32.5 34.5262C28.8618 34.5262 25.9816 31.5648 25.9816 28.0078C25.9816 24.4213 28.9135 21.4895 32.5 21.4895C36.0865 21.4895 39.0184 24.4213 39.0184 28.0078C39.0184 31.5334 36.1769 34.5262 32.5 34.5262Z" fill="#FF9800"/>
</svg>
