<svg width="64" height="64" viewBox="0 0 64 64" fill="none" xmlns="http://www.w3.org/2000/svg">
<g clip-path="url(#clip0)">
<path d="M58.2088 0H12.6042C9.93629 0 7.76553 2.17064 7.76553 4.83853V14.3637C7.76553 14.8815 8.18516 15.3012 8.70304 15.3012C9.22091 15.3012 9.64054 14.8815 9.64054 14.3637V4.83853C9.64054 3.20452 10.97 1.87501 12.6042 1.87501H54.9053C53.9883 3.40664 54.4917 1.38988 54.3593 55.2582C54.3593 56.9015 53.0225 58.2382 51.3793 58.2382H37.7912V56.2303H47.5389C48.0568 56.2303 48.4764 55.8106 48.4764 55.2928C48.4764 53.6731 49.7941 52.3553 51.4139 52.3553C51.9318 52.3553 52.3514 51.9356 52.3514 51.4178V33.1821C52.3514 32.6643 51.9318 32.2446 51.4139 32.2446C50.896 32.2446 50.4764 32.6643 50.4764 33.1821V50.572C48.5733 50.9493 47.0702 52.4523 46.693 54.3554H37.7911V50.6313C40.7093 48.7309 42.6442 45.4418 42.6442 41.7071C42.6442 35.8377 37.8692 31.0626 31.9998 31.0626C26.1304 31.0626 21.3554 35.8377 21.3554 41.7071C21.3554 45.4418 23.2902 48.7309 26.2085 50.6313V54.3554H17.3066C16.9293 52.4523 15.4264 50.9493 13.5232 50.572V9.54118C15.4264 9.16393 16.9293 7.66092 17.3066 5.75778H46.693C47.0702 7.66092 48.5731 9.16393 50.4764 9.54118V29.0962C50.4764 29.6139 50.896 30.0337 51.4139 30.0337C51.9318 30.0337 52.3514 29.6139 52.3514 29.0962V8.6953C52.3514 8.17755 51.9318 7.7578 51.4139 7.7578C49.7941 7.7578 48.4764 6.44004 48.4764 4.82028C48.4764 4.30253 48.0568 3.88277 47.5389 3.88277H16.461C15.9431 3.88277 15.5234 4.30253 15.5234 4.82028C15.5234 6.44004 14.2057 7.7578 12.5859 7.7578C12.0681 7.7578 11.6484 8.17755 11.6484 8.6953V51.4178C11.6484 51.9356 12.0681 52.3553 12.5859 52.3553C14.2057 52.3553 15.5234 53.6731 15.5234 55.2928C15.5234 55.8106 15.9431 56.2303 16.461 56.2303H26.2086V58.2381C26.0405 58.2381 9.26229 58.242 9.09454 58.242C9.89654 56.9026 9.56742 56.3457 9.64067 51.4138C9.64067 51.4129 9.64054 51.4122 9.64054 51.4114V18.4101C9.64054 17.8924 9.22091 17.4726 8.70304 17.4726C8.18516 17.4726 7.76553 17.8924 7.76553 18.4101V50.4764H2.879C2.36113 50.4764 1.9415 50.8962 1.9415 51.4139V56.2675C1.9415 58.3892 3.66713 60.1156 5.78864 60.117C5.78952 60.117 5.79027 60.1171 5.79114 60.1171C32.291 60.1087 11.6729 60.1155 26.2088 60.1132V63.0625C26.2088 63.4229 26.4153 63.7514 26.7401 63.9075C27.0649 64.0636 27.4506 64.0198 27.7319 63.7946L32.0002 60.3804L36.2684 63.7946C36.5497 64.0198 36.9353 64.0636 37.2602 63.9075C37.5851 63.7514 37.7916 63.4229 37.7916 63.0625V60.1132H51.3795C54.0565 60.1132 56.2346 57.9353 56.2346 55.2582V9.64068H61.1213C61.6392 9.64068 62.0588 9.22093 62.0588 8.70318V3.84965C62.0585 1.72689 60.3316 0 58.2088 0V0ZM3.81651 56.2675V52.3514H7.76566V56.2675C7.76566 56.8322 7.52603 57.341 7.14465 57.7012C6.79077 58.0355 6.31515 58.242 5.79114 58.242C4.70226 58.2421 3.81651 57.3562 3.81651 56.2675ZM23.2305 41.707C23.2305 36.8715 27.1645 32.9374 31.9999 32.9374C36.8353 32.9374 40.7693 36.8715 40.7693 41.707C40.7693 46.55 36.8251 50.4764 31.9999 50.4764C27.1646 50.4764 23.2305 46.5403 23.2305 41.707ZM35.9162 61.112L32.5854 58.4477C32.2432 58.1738 31.7565 58.1738 31.4143 58.4477L28.0835 61.112V51.6018C29.2967 52.0837 30.6172 52.3516 31.9998 52.3516C33.3824 52.3516 34.7029 52.0837 35.9161 51.6018V61.112H35.9162ZM60.1834 7.76567H56.2342V3.84965C56.2342 2.76089 57.1201 1.87501 58.2088 1.87501C59.2976 1.87501 60.1834 2.76077 60.1834 3.84965V7.76567Z" fill="white"/>
<path d="M43.6483 13.5898H20.3515C19.8336 13.5898 19.414 14.0096 19.414 14.5274C19.414 15.0451 19.8336 15.4649 20.3515 15.4649H43.6483C44.1661 15.4649 44.5858 15.0451 44.5858 14.5274C44.5858 14.0096 44.166 13.5898 43.6483 13.5898Z" fill="white"/>
<path d="M43.6483 17.4727H20.3515C19.8336 17.4727 19.414 17.8924 19.414 18.4102C19.414 18.9279 19.8336 19.3477 20.3515 19.3477H43.6483C44.1661 19.3477 44.5858 18.9279 44.5858 18.4102C44.5858 17.8924 44.166 17.4727 43.6483 17.4727Z" fill="white"/>
<path d="M44.5859 22.293C44.5859 21.7752 44.1663 21.3555 43.6484 21.3555H20.3516C19.8337 21.3555 19.4141 21.7752 19.4141 22.293C19.4141 22.8107 19.8337 23.2305 20.3516 23.2305H43.6484C44.1661 23.2305 44.5859 22.8107 44.5859 22.293Z" fill="white"/>
<path d="M36.871 9.64062C37.3889 9.64062 37.8085 9.22087 37.8085 8.70312C37.8085 8.18537 37.3889 7.76562 36.871 7.76562H27.1289C26.611 7.76562 26.1914 8.18537 26.1914 8.70312C26.1914 9.22087 26.611 9.64062 27.1289 9.64062H36.871Z" fill="white"/>
<path d="M31.9999 48.4687C35.7283 48.4687 38.7617 45.4354 38.7617 41.7071C38.7617 37.9786 35.7283 34.9453 31.9999 34.9453C30.8264 34.9453 29.6702 35.2509 28.6559 35.8291C28.206 36.0854 28.0492 36.6579 28.3057 37.1077C28.562 37.5576 29.1345 37.7144 29.5843 37.4579C30.3162 37.0408 31.1514 36.8203 31.9998 36.8203C34.6944 36.8203 36.8865 39.0126 36.8865 41.7071C36.8865 44.4016 34.6944 46.5937 31.9998 46.5937C29.3052 46.5937 27.113 44.4016 27.113 41.7071C27.113 41.0768 27.231 40.4636 27.464 39.8846C27.6572 39.4042 27.4244 38.8582 26.9439 38.6651C26.4643 38.4722 25.9177 38.7046 25.7243 39.1852C25.4017 39.9876 25.238 40.8362 25.238 41.7072C25.2383 45.4354 28.2715 48.4687 31.9999 48.4687Z" fill="white"/>
<path d="M27.1289 25.2C26.611 25.2 26.1914 25.6197 26.1914 26.1375C26.1914 26.6552 26.611 27.075 27.1289 27.075H36.8712C37.389 27.075 37.8087 26.6552 37.8087 26.1375C37.8087 25.6197 37.389 25.2 36.8712 25.2H27.1289Z" fill="white"/>
</g>
<defs>
<clipPath id="clip0">
<rect width="64" height="64" fill="white"/>
</clipPath>
</defs>
</svg>
