<svg width="90" height="90" viewBox="0 0 90 90" fill="none" xmlns="http://www.w3.org/2000/svg">
<circle cx="44.6246" cy="44.6246" r="44.6246" fill="#FF9800"/>
<path d="M44.5 24C33.1965 24 24 33.1965 24 44.5C24 55.8035 33.1965 65 44.5 65C55.8035 65 65 55.8035 65 44.5C65 33.1965 55.8035 24 44.5 24ZM45.3542 63.2484V60.7291C45.3542 60.257 44.9721 59.8749 44.5 59.8749C44.0279 59.8749 43.6458 60.257 43.6458 60.7291V63.2484C33.9669 62.8101 26.1898 55.0331 25.7515 45.3541H28.2708C28.7429 45.3542 29.125 44.9721 29.125 44.5C29.125 44.0279 28.7429 43.6458 28.2708 43.6458H25.7515C26.1898 33.9669 33.9668 26.1898 43.6458 25.7515V28.2708C43.6458 28.7429 44.0279 29.125 44.5 29.125C44.9721 29.125 45.3542 28.7429 45.3542 28.2708V25.7515C55.0331 26.1898 62.8102 33.9668 63.2485 43.6458H60.7292C60.2571 43.6458 59.875 44.0279 59.875 44.5C59.875 44.9721 60.2571 45.3542 60.7292 45.3542H63.2485C62.8102 55.0331 55.0331 62.8102 45.3542 63.2484Z" fill="white"/>
<path d="M46.1241 44.9162C46.1594 44.7795 46.2083 44.6476 46.2083 44.5C46.2083 44.1424 46.0723 43.8288 45.8837 43.5542L51.2532 32.0487C51.4526 31.6217 51.2683 31.1128 50.8403 30.9134C50.4141 30.7173 49.9053 30.9001 49.7051 31.3263L44.3394 42.8242C43.4765 42.9093 42.7917 43.6152 42.7917 44.5C42.7917 45.4417 43.5583 46.2083 44.5 46.2083C44.6475 46.2083 44.7795 46.1594 44.9162 46.124L51.5835 52.7913C51.7503 52.9582 51.969 53.0416 52.1875 53.0416C52.406 53.0416 52.6246 52.9582 52.7914 52.7913C53.1251 52.4577 53.1251 51.9171 52.7914 51.5835L46.1241 44.9162Z" fill="white"/>
</svg>
