<svg width="90" height="90" viewBox="0 0 90 90" fill="none" xmlns="http://www.w3.org/2000/svg">
<circle cx="44.6246" cy="44.6246" r="44.6246" fill="#FF9800"/>
<path d="M64.6883 62.6996L59.6524 56.2254C61.2842 55.7378 62.6938 54.6942 63.6364 53.2759C64.8223 51.2259 64.2861 48.7241 63.7672 46.3076C63.4534 45.0662 63.2656 43.7963 63.2069 42.5172C63.2654 41.2371 63.4531 39.966 63.7672 38.7236C64.2827 36.3054 64.8223 33.8052 63.6364 31.7586C62.4083 29.6367 59.9354 28.8513 57.5437 28.0932C56.3531 27.7652 55.2001 27.3137 54.1034 26.7459C53.1083 26.1004 52.1843 25.3514 51.3467 24.5114C49.5724 22.8646 47.5605 21 45 21C42.4394 21 40.4276 22.8646 38.6524 24.5106C37.8152 25.3508 36.8914 26.1001 35.8965 26.7459C34.8 27.3125 33.6473 27.7629 32.4571 28.0899C30.0654 28.848 27.5925 29.6334 26.3644 31.7553C25.1785 33.8052 25.7148 36.307 26.2336 38.7236C26.5474 39.9661 26.7349 41.2371 26.7931 42.5172C26.7345 43.7974 26.5469 45.0685 26.2328 46.3109C25.7172 48.7291 25.1776 51.2292 26.3636 53.2759C27.3074 54.6948 28.7186 55.738 30.3517 56.2246L25.3117 62.6988C25.0312 63.0596 25.0962 63.5795 25.4572 63.8601C25.6305 63.9949 25.8503 64.0552 26.0681 64.0279L31.9854 63.2888L33.4461 68.4C33.5316 68.6996 33.7782 68.9257 34.0841 68.9851C34.136 68.9949 34.1886 69 34.2414 69C34.4969 69.0002 34.7382 68.8823 34.8952 68.6806L40.1801 61.8828C41.4807 63.1489 43.189 63.9116 45 64.0345C46.811 63.9116 48.5193 63.1489 49.8199 61.8828L55.1048 68.6781C55.2612 68.8807 55.5026 68.9996 55.7586 69C55.8114 69 55.864 68.9949 55.9159 68.9851C56.2218 68.9257 56.4684 68.6996 56.5539 68.4L58.0146 63.2897L63.9319 64.0287C64.3854 64.0856 64.7992 63.7641 64.8561 63.3106C64.8834 63.0927 64.8231 62.873 64.6883 62.6996ZM34.589 66.3774L33.3815 62.1517C33.2693 61.7598 32.8882 61.508 32.4836 61.5583L27.8491 62.1377L32.0028 56.7981L32.4604 56.9446C33.6494 57.2718 34.801 57.7222 35.8965 58.2886C36.8917 58.9341 37.8157 59.683 38.6532 60.523L38.9379 60.7862L34.589 66.3774ZM45 62.3793C43.0883 62.3793 41.4803 60.8897 39.7771 59.3106C38.8505 58.3849 37.827 57.5617 36.7241 56.8552C35.5242 56.227 34.2611 55.7277 32.9561 55.3655C30.7688 54.6712 28.7023 54.0157 27.7953 52.4483C26.9296 50.9512 27.3765 48.8648 27.8508 46.6552C28.192 45.3001 28.3923 43.9135 28.4483 42.5172C28.3926 41.121 28.1926 39.7344 27.8516 38.3793C27.3774 36.1705 26.9305 34.0841 27.7961 32.5862C28.7065 31.0188 30.7696 30.3633 32.957 29.669C34.2618 29.3067 35.5244 28.8073 36.7241 28.1793C37.8267 27.4728 38.85 26.6495 39.7763 25.7239C41.4803 24.1448 43.0883 22.6552 45 22.6552C46.9117 22.6552 48.5197 24.1448 50.2229 25.7239C51.1495 26.6496 52.173 27.4728 53.2759 28.1793C54.4758 28.8074 55.7389 29.3068 57.0439 29.669C59.2312 30.3633 61.2976 31.0188 62.2047 32.5862C63.0703 34.0833 62.6234 36.1697 62.1492 38.3793C61.808 39.7344 61.6077 41.121 61.5517 42.5172C61.6074 43.9135 61.8073 45.3001 62.1484 46.6552C62.6226 48.864 63.0695 50.9503 62.2039 52.4483C61.2935 54.0157 59.2303 54.6712 57.043 55.3655C55.7382 55.7278 54.4755 56.2271 53.2759 56.8552C52.1733 57.5617 51.15 58.385 50.2237 59.3106C48.5197 60.8897 46.9117 62.3793 45 62.3793ZM57.5205 61.5583C57.116 61.508 56.7349 61.7598 56.6226 62.1517L55.411 66.3774L51.0629 60.787L51.3476 60.5239C52.1848 59.6837 53.1086 58.9344 54.1034 58.2886C55.2 57.722 56.3527 57.2716 57.5429 56.9446L58.0005 56.7981L62.155 62.1377L57.5205 61.5583Z" fill="white"/>
<path d="M45 27.6207C36.7729 27.6207 30.1035 34.2901 30.1035 42.5172C30.1035 50.7444 36.7729 57.4138 45 57.4138C53.2271 57.4138 59.8966 50.7444 59.8966 42.5172C59.887 34.294 53.2232 27.6303 45 27.6207ZM45 55.7586C37.687 55.7586 31.7586 49.8302 31.7586 42.5172C31.7586 35.2043 37.687 29.2759 45 29.2759C52.313 29.2759 58.2414 35.2043 58.2414 42.5172C58.2327 49.8267 52.3095 55.7499 45 55.7586Z" fill="white"/>
<path d="M54.5487 39.0604C54.2373 38.6327 53.7404 38.3795 53.2113 38.3793H48.1448L46.5724 33.557C46.287 32.6885 45.3516 32.216 44.4832 32.5014C43.9836 32.6656 43.5918 33.0574 43.4276 33.557L41.8593 38.3793H36.7887C35.8745 38.3789 35.1331 39.1195 35.1327 40.0337C35.1324 40.5633 35.3856 41.061 35.8138 41.3727L39.9153 44.352L38.3487 49.1743C38.0661 50.0437 38.5418 50.9776 39.4111 51.2601C39.9152 51.4239 40.4672 51.3364 40.896 51.0248L45 48.0463L49.1024 51.0257C49.6802 51.455 50.471 51.455 51.0488 51.0257C51.6353 50.6089 51.8794 49.857 51.6497 49.1752L50.0831 44.352L54.1846 41.3727C54.9237 40.8348 55.0867 39.7994 54.5487 39.0604ZM48.6232 43.3672C48.3329 43.5781 48.2116 43.9521 48.3228 44.2932L50.0756 49.6874L45.4866 46.3539C45.1967 46.1434 44.8042 46.1434 44.5142 46.3539L39.9253 49.6874L41.6773 44.2932C41.7881 43.9523 41.6668 43.5788 41.3768 43.368L36.7887 40.0345H42.4602C42.8187 40.0345 43.1364 39.8036 43.2472 39.4626L45 34.0684L46.7528 39.4618C46.8636 39.8028 47.1813 40.0337 47.5399 40.0337L53.2113 40.0345L48.6232 43.3672Z" fill="white"/>
</svg>
