<svg width="35" height="62" viewBox="0 0 35 62" fill="none" xmlns="http://www.w3.org/2000/svg">
<path d="M33.9514 56.3712C33.8288 49.7868 28.9331 44.2707 22.4098 43.3671C22.5629 42.9963 22.6419 42.599 22.6424 42.1979V38.081C22.637 36.7773 21.8132 35.6173 20.584 35.1827V3.08765C20.584 1.38237 19.2016 0 17.4963 0C15.791 0 14.4087 1.38237 14.4087 3.08765V35.1827C13.1794 35.6173 12.3556 36.7773 12.3502 38.081V42.1979C12.3505 42.5991 12.4299 42.9964 12.5839 43.3671C6.06017 44.2702 1.16393 49.7864 1.04119 56.3712C-0.232591 57.4946 -0.354554 59.438 0.768836 60.7118C1.35536 61.3769 2.20048 61.7565 3.08728 61.753H31.9053C33.6038 61.7596 34.986 60.3881 34.9926 58.6897C34.9961 57.8029 34.6166 56.9577 33.9514 56.3712ZM16.4671 3.08765C16.4671 2.51926 16.9279 2.05843 17.4963 2.05843C18.0647 2.05843 18.5255 2.51926 18.5255 3.08765V34.9934H16.4671V3.08765ZM14.4087 38.081C14.4087 37.5126 14.8695 37.0518 15.4379 37.0518H19.5547C20.1231 37.0518 20.584 37.5126 20.584 38.081V42.1979C20.584 42.7663 20.1231 43.2271 19.5547 43.2271H15.4379C14.8695 43.2271 14.4087 42.7663 14.4087 42.1979V38.081ZM14.4087 45.2855H20.584C26.4352 45.2925 31.3198 49.7513 31.859 55.5777H3.13359C3.67277 49.7513 8.55743 45.2925 14.4087 45.2855ZM31.9053 59.6946H3.08728C2.51889 59.6946 2.05806 59.2337 2.05806 58.6653C2.05806 58.097 2.51889 57.6361 3.08728 57.6361H31.9053C32.4737 57.6361 32.9346 58.097 32.9346 58.6653C32.9346 59.2337 32.4739 59.6946 31.9053 59.6946Z" fill="#FF9800"/>
</svg>
