<svg width="90" height="90" viewBox="0 0 90 90" fill="none" xmlns="http://www.w3.org/2000/svg">
<circle cx="44.6246" cy="44.6246" r="44.6246" fill="#FF9800"/>
<path d="M36.2507 41.9794L36.2492 42.0067C36.1436 43.8554 37.1792 45.5873 38.8881 46.4176L38.9056 46.4262C39.5081 46.7143 40.0019 47.1895 40.3134 47.7803L40.3205 47.7931C41.1815 49.4327 42.9625 50.4266 44.861 50.3269L44.8899 50.3253C45.5784 50.2868 46.2619 50.4644 46.8445 50.8335C48.4522 51.8391 50.4929 51.8391 52.1005 50.8335C52.6831 50.4644 53.3666 50.2868 54.0552 50.3253L54.084 50.3269C55.9794 50.4274 57.7627 49.4327 58.6257 47.7904L58.63 47.7814C58.9427 47.1891 59.4377 46.7132 60.0422 46.4246L60.0562 46.4176C61.7651 45.5869 62.801 43.8554 62.6951 42.0063L62.6935 41.9806C62.6585 41.3294 62.8392 40.6849 63.2084 40.1471C64.2712 38.5971 64.2712 36.5532 63.2088 35.0028C62.84 34.4654 62.6585 33.8212 62.6935 33.1701L62.6951 33.1428C62.801 31.2937 61.7651 29.5622 60.0546 28.7311L60.039 28.7234C59.4377 28.4359 58.9451 27.9632 58.6331 27.3739L58.6242 27.3564C57.7627 25.7168 55.9794 24.7233 54.084 24.8226L54.0548 24.8242C53.3666 24.8628 52.6831 24.6852 52.1009 24.316H52.1001C50.4925 23.3104 48.4518 23.3104 46.8441 24.316C46.2615 24.6848 45.578 24.8624 44.8895 24.8238L44.8607 24.8222C42.9648 24.7218 41.1819 25.7164 40.3208 27.3556L40.3142 27.3677C40.0023 27.9597 39.5081 28.4352 38.9048 28.7238L38.8885 28.7315C37.1796 29.5618 36.1436 31.2937 36.2495 33.1428L36.2511 33.1685C36.2862 33.8197 36.1055 34.4642 35.7363 35.0017C34.6734 36.5521 34.6734 38.5963 35.7363 40.1463C36.1051 40.6837 36.2862 41.3283 36.2507 41.9794ZM37.0491 35.9075C37.6188 35.078 37.8981 34.0833 37.8436 33.0786L37.842 33.0513C37.7859 31.8261 38.4737 30.6881 39.584 30.1674L39.5976 30.1608C40.5086 29.7246 41.2544 29.0065 41.7248 28.1131L41.7326 28.0983C42.3047 27.0086 43.503 26.3481 44.7758 26.4159L44.8038 26.417C45.8222 26.4743 46.8328 26.2118 47.6943 25.6658C48.782 24.9854 50.1622 24.9854 51.25 25.6658C52.1114 26.211 53.122 26.4739 54.1401 26.4174L54.1681 26.4159C55.447 26.3489 56.6395 27.0086 57.2101 28.0952L57.2206 28.115C57.6911 29.0073 58.4361 29.7242 59.3458 30.16L59.3591 30.1667C60.4869 30.715 61.1716 31.8471 61.1026 33.0517L61.1011 33.0801C61.0465 34.0849 61.3262 35.0792 61.8959 35.9087C62.5845 36.9131 62.5841 38.2372 61.8952 39.2412C61.3258 40.0711 61.0465 41.0658 61.1011 42.0706L61.1026 42.0974C61.1716 43.302 60.4869 44.4345 59.3587 44.9832L59.347 44.9887C58.4353 45.4257 57.6887 46.1446 57.2179 47.0395L57.212 47.0512C56.6395 48.1409 55.4432 48.8018 54.1685 48.7336L54.1408 48.7321C53.1224 48.6752 52.1114 48.9381 51.2496 49.4837C50.1622 50.1637 48.782 50.1637 47.6947 49.4837C46.9111 48.9872 46.0021 48.7239 45.0745 48.7247C44.9845 48.7247 44.8941 48.727 44.8038 48.7321L44.7758 48.7332C43.5198 48.8131 42.3316 48.1557 41.7314 47.0493L41.7233 47.0341C41.2536 46.1422 40.509 45.4257 39.5996 44.9899L39.5848 44.9825C38.4566 44.4341 37.7719 43.3016 37.8412 42.0974L37.8428 42.069C37.8969 41.0642 37.6173 40.0696 37.0479 39.2404C36.3598 38.236 36.3602 36.9119 37.0491 35.9083V35.9075Z" fill="white"/>
<path d="M44.3259 45.8202C44.6994 46.0535 45.1913 45.9394 45.4245 45.5659L54.873 30.4296C55.0272 30.1877 55.04 29.8816 54.9061 29.6281C54.7721 29.3741 54.5119 29.2121 54.2253 29.2032C53.9387 29.1942 53.6692 29.3399 53.5196 29.5848L44.0716 44.7212C43.8383 45.095 43.952 45.5869 44.3259 45.8202Z" fill="white"/>
<path d="M45.1726 37.6141C47.1148 37.6141 48.6952 35.8121 48.6952 33.5973C48.6952 31.3826 47.1148 29.581 45.1726 29.581C43.2304 29.581 41.6505 31.3826 41.6505 33.5973C41.6505 35.8121 43.2304 37.6141 45.1726 37.6141ZM45.1726 31.1761C46.2354 31.1761 47.1 32.2623 47.1 33.5973C47.1 34.9324 46.2354 36.0189 45.1726 36.0189C44.1102 36.0189 43.2456 34.932 43.2456 33.5973C43.2456 32.2627 44.1102 31.1761 45.1726 31.1761Z" fill="white"/>
<path d="M50.2495 41.553C50.2495 43.7678 51.8294 45.5694 53.7716 45.5694C55.7138 45.5694 57.2942 43.7674 57.2942 41.553C57.2942 39.339 55.7142 37.5366 53.772 37.5366C51.8294 37.5366 50.2495 39.3378 50.2495 41.553ZM55.699 41.553C55.699 42.888 54.8344 43.9742 53.7716 43.9742C52.7092 43.9742 51.8446 42.888 51.8446 41.553C51.8446 40.2179 52.7092 39.1318 53.7716 39.1318C54.8344 39.1318 55.699 40.2172 55.699 41.553Z" fill="white"/>
<path d="M66.2979 54.7973C65.2417 52.9229 62.8995 52.2091 60.9776 53.1757L54.7297 56.1277C53.867 54.5236 52.2123 53.5024 50.3912 53.451L44.6235 53.2921C43.7102 53.266 42.8141 53.0343 42.0021 52.6153L41.4152 52.3111C38.4102 50.7447 34.8284 50.7486 31.8266 52.3212L31.8632 50.9917C31.8753 50.5512 31.5283 50.1843 31.0878 50.1723L24.7631 49.9982C24.3227 49.9861 23.9562 50.3331 23.9441 50.7736L23.5621 64.6531C23.55 65.0936 23.897 65.4605 24.3375 65.4725L30.6621 65.6466H30.6843C31.1162 65.6462 31.4694 65.3023 31.4815 64.8708L31.4994 64.2068L33.1425 63.3271C33.7874 62.9801 34.5418 62.8975 35.2463 63.0969L45.0577 65.8507C45.0748 65.8558 45.092 65.8596 45.1095 65.8635C45.8187 66.0119 46.5415 66.0863 47.2663 66.0859C48.8007 66.0867 50.3172 65.7561 51.7118 65.1158C51.7461 65.1002 51.7792 65.0823 51.8108 65.0621L66.0365 55.8598C66.3913 55.6308 66.5058 55.1646 66.2979 54.7973ZM25.1787 63.8996L25.5167 51.6152L30.247 51.7452L29.9085 64.03L25.1787 63.8996ZM50.9929 63.6904C49.2603 64.4724 47.3251 64.6882 45.4627 64.3073L35.6774 61.5613C34.5765 61.2497 33.3972 61.379 32.3897 61.9208L31.5501 62.3702L31.7752 54.2023C34.4355 52.4326 37.8478 52.2507 40.6815 53.7271L41.2684 54.0313C42.2942 54.561 43.4259 54.8534 44.5799 54.8865L50.3476 55.0454C51.9677 55.0918 53.3436 56.2453 53.6723 57.8327L45.0811 57.5963C44.6406 57.5842 44.2741 57.9312 44.2621 58.3717C44.25 58.8122 44.597 59.179 45.0375 59.1911L54.5186 59.452H54.5412C54.9727 59.4517 55.3259 59.1078 55.338 58.6763C55.3477 58.3297 55.3216 57.9827 55.2609 57.6415L61.6681 54.6135L61.6868 54.6046C62.5958 54.1442 63.6952 54.2981 64.4425 54.9901L50.9929 63.6904Z" fill="white"/>
</svg>
