<svg width="86" height="86" viewBox="0 0 86 86" fill="none" xmlns="http://www.w3.org/2000/svg">
<path d="M81.5625 17.3821H77.5512V14.7079H78.8883C79.6264 14.7079 80.2254 14.1089 80.2254 13.3708V8.02249C80.2254 7.28441 79.6264 6.6854 78.8883 6.6854H77.5512V2.67413C77.5512 1.93605 76.9522 1.33704 76.2141 1.33704H62.8432C62.1052 1.33704 61.5061 1.93605 61.5061 2.67413V6.6854H60.1691C59.431 6.6854 58.832 7.28441 58.832 8.02249V13.3708C58.832 14.1089 59.431 14.7079 60.1691 14.7079H61.5061V17.3821H57.4949C56.7568 17.3821 56.1578 17.9811 56.1578 18.7192V24.0676C56.1578 24.8056 56.7568 25.4047 57.4949 25.4047H61.5061V41.4497C61.5061 44.3994 59.1074 46.7981 56.1578 46.7981C53.2082 46.7981 50.8094 44.3994 50.8094 41.4497V22.7305C50.8094 10.9347 41.2118 1.33704 29.416 1.33704C17.6202 1.33704 8.02254 10.9347 8.02254 22.7305V38.7756H4.01127C3.2732 38.7756 2.67418 39.3746 2.67418 40.1127V45.461C2.67418 46.1991 3.2732 46.7981 4.01127 46.7981H8.02254V49.4723H6.68545C5.94738 49.4723 5.34836 50.0713 5.34836 50.8094V56.1577C5.34836 56.8958 5.94738 57.4948 6.68545 57.4948H8.02254V61.5061C8.02254 62.2442 8.62156 62.8432 9.35963 62.8432H22.7305C23.4686 62.8432 24.0676 62.2442 24.0676 61.5061V57.4948H25.4047C26.1428 57.4948 26.7418 56.8958 26.7418 56.1577V50.8094C26.7418 50.0713 26.1428 49.4723 25.4047 49.4723H24.0676V46.7981H28.0789C28.817 46.7981 29.416 46.1991 29.416 45.461V40.1127C29.416 39.3746 28.817 38.7756 28.0789 38.7756H24.0676V22.7305C24.0676 19.7809 26.4664 17.3821 29.416 17.3821C32.3656 17.3821 34.7643 19.7809 34.7643 22.7305V41.4497C34.7643 53.2455 44.362 62.8432 56.1578 62.8432C67.9536 62.8432 77.5512 53.2455 77.5512 41.4497V25.4047H81.5625C82.3006 25.4047 82.8996 24.8056 82.8996 24.0676V18.7192C82.8996 17.9811 82.3006 17.3821 81.5625 17.3821ZM64.1803 4.01122H74.877V6.6854H64.1803V4.01122ZM61.5061 9.35958H77.5512V12.0338H61.5061V9.35958ZM64.1803 14.7079H74.877V17.3821H64.1803V14.7079ZM21.3934 60.169H10.6967V57.4948H21.3934V60.169ZM24.0676 54.8206H8.02254V52.1465H24.0676V54.8206ZM21.3934 49.4723H10.6967V46.7981H21.3934V49.4723ZM26.7418 44.1239H5.34836V41.4497H26.7418V44.1239ZM74.877 41.4497C74.877 51.7721 66.4801 60.169 56.1578 60.169C45.8354 60.169 37.4385 51.7721 37.4385 41.4497V22.7305C37.4385 18.306 33.8404 14.7079 29.416 14.7079C24.9916 14.7079 21.3934 18.306 21.3934 22.7305V38.7756H10.6967V22.7305C10.6967 12.4081 19.0936 4.01122 29.416 4.01122C39.7383 4.01122 48.1352 12.4081 48.1352 22.7305V41.4497C48.1352 45.8742 51.7334 49.4723 56.1578 49.4723C60.5822 49.4723 64.1803 45.8742 64.1803 41.4497V25.4047H74.877V41.4497ZM80.2254 22.7305H58.832V20.0563H80.2254V22.7305Z" fill="#FF9800"/>
<path d="M17.1575 66.1123C16.6615 65.3675 15.4287 65.3675 14.9326 66.1123L10.9321 72.1131C9.90383 73.6561 9.35963 75.4519 9.35963 77.3211C9.35963 80.859 12.0097 83.8822 15.3926 84.2058C15.6052 84.2258 15.8178 84.2365 16.0304 84.2365C17.6937 84.2365 19.3089 83.6201 20.5431 82.4983C21.9323 81.2334 22.7305 79.4297 22.7305 77.5511V77.3064C22.7305 75.4519 22.1863 73.6575 21.1581 72.1145L17.1575 66.1123ZM20.0564 77.5511C20.0564 78.6783 19.5777 79.76 18.7433 80.5194C17.8983 81.2896 16.8019 81.6573 15.648 81.5436C13.6209 81.3498 12.0338 79.4952 12.0338 77.3051C12.0338 75.9813 12.4229 74.6991 13.157 73.5973L16.0451 69.2651L18.9332 73.5973C19.6673 74.6991 20.0564 75.9813 20.0564 77.3064V77.5511Z" fill="#FF9800"/>
</svg>
