<svg width="62" height="52" viewBox="0 0 62 52" fill="none" xmlns="http://www.w3.org/2000/svg">
<path d="M56.3023 0H4.93879C2.21554 0 0 2.21554 0 4.93879V46.4247C0 49.1479 2.21554 51.3635 4.93879 51.3635H56.3023C59.0255 51.3635 61.2411 49.1479 61.2411 46.4247V4.93879C61.2411 2.21554 59.0255 0 56.3023 0ZM59.2655 46.4247C59.2655 48.0584 57.936 49.3879 56.3023 49.3879H4.93879C3.30504 49.3879 1.97552 48.0584 1.97552 46.4247V4.93879C1.97552 3.30504 3.30504 1.97552 4.93879 1.97552H56.3023C57.936 1.97552 59.2655 3.30504 59.2655 4.93879V46.4247Z" fill="#FF9800"/>
<path d="M55.3144 3.95093H27.6572C26.5677 3.95093 25.6816 4.83695 25.6816 5.92645V33.5837C25.6816 34.6732 26.5677 35.5592 27.6572 35.5592H55.3144C56.4039 35.5592 57.2899 34.6732 57.2899 33.5837V5.92645C57.2899 4.83695 56.4039 3.95093 55.3144 3.95093ZM36.547 19.7551C36.0017 19.7551 35.5592 19.3126 35.5592 18.7673C35.5592 18.2221 36.0017 17.7796 36.547 17.7796V19.7551ZM37.3174 15.804H36.547C36.0146 15.804 35.5217 15.9561 35.0891 16.2031C34.7503 15.7803 34.5715 15.324 34.5715 14.8163C34.5715 14.1367 34.772 13.3722 35.1671 12.5444C35.9405 10.9235 37.6622 9.87748 39.5527 9.87748H43.4613C46.1846 9.87748 48.4001 12.093 48.4001 14.8163C48.4001 15.324 48.2213 15.7803 47.8825 16.2031C47.4499 15.9561 46.957 15.804 46.4246 15.804H45.4368H43.6944C42.4024 15.804 41.1085 15.4978 39.9518 14.92L39.7434 14.8163H39.5103C38.6381 14.8163 37.8607 15.2025 37.3174 15.804ZM46.4246 17.7796C46.9698 17.7796 47.4123 18.2221 47.4123 18.7673C47.4123 19.3126 46.9698 19.7551 46.4246 19.7551V17.7796ZM44.4491 19.7551C44.4491 21.3888 43.1195 22.7183 41.4858 22.7183C39.852 22.7183 38.5225 21.3888 38.5225 19.7551V17.7796C38.5225 17.2995 38.8672 16.8975 39.3226 16.8106C40.6857 17.4447 42.192 17.7796 43.6944 17.7796H44.4491V19.7551ZM39.9646 24.4291C40.4467 24.5872 40.9514 24.6939 41.4858 24.6939C42.0202 24.6939 42.5259 24.5872 43.0079 24.4291C43.0632 24.525 43.1225 24.6188 43.1867 24.7097L41.4858 26.9914L39.7868 24.7107C39.8501 24.6198 39.9093 24.5259 39.9646 24.4291ZM38.2825 25.9997L41.4858 30.2984L44.695 25.9908C44.9232 26.1034 45.1612 26.2041 45.4151 26.2772L48.9858 26.9973C50.3638 27.2749 51.3634 28.4977 51.3634 29.9013V33.5837H48.4001V29.6327H46.4246V33.5837H36.547V29.6327H34.5715V33.5837H31.6082V29.9013C31.6082 28.4967 32.6078 27.2749 33.9838 26.9973L37.6325 26.2575C37.8607 26.1923 38.0751 26.1014 38.2825 25.9997ZM53.3389 33.5837V29.9013C53.3389 27.5603 51.6725 25.5236 49.377 25.0603L45.8823 24.359C45.3864 24.2168 44.9795 23.8849 44.7256 23.4523C45.2669 22.9771 45.7124 22.3983 46.0058 21.7306H46.4246C48.0583 21.7306 49.3879 20.4011 49.3879 18.7673C49.3879 18.3959 49.3118 18.0443 49.1864 17.7163C49.9627 16.8807 50.3756 15.8929 50.3756 14.8163C50.3756 11.0045 47.2731 7.90196 43.4613 7.90196H39.5527C36.9055 7.90196 34.4845 9.39052 33.3842 11.694C32.8617 12.7884 32.596 13.8394 32.596 14.8163C32.596 15.8939 33.0078 16.8807 33.7852 17.7173C33.6598 18.0443 33.5837 18.3959 33.5837 18.7673C33.5837 20.4011 34.9132 21.7306 36.547 21.7306H36.9658C37.2592 22.3993 37.7056 22.9781 38.2469 23.4532C37.998 23.8839 37.6059 24.2118 37.1663 24.3393L33.5936 25.0593C31.299 25.5236 29.6327 27.5594 29.6327 29.9003V33.5837H27.6572V5.92645H55.3144L55.3164 33.5837H53.3389Z" fill="#FF9800"/>
<path d="M52.3509 37.5349C49.6277 37.5349 47.4121 39.7505 47.4121 42.4737C47.4121 45.197 49.6277 47.4125 52.3509 47.4125C55.0742 47.4125 57.2897 45.197 57.2897 42.4737C57.2897 39.7505 55.0742 37.5349 52.3509 37.5349ZM52.3509 45.437C50.7172 45.437 49.3876 44.1075 49.3876 42.4737C49.3876 40.84 50.7172 39.5104 52.3509 39.5104C53.9847 39.5104 55.3142 40.84 55.3142 42.4737C55.3142 44.1075 53.9847 45.437 52.3509 45.437Z" fill="#FF9800"/>
<path d="M40.4984 37.5349C37.7751 37.5349 35.5596 39.7505 35.5596 42.4737C35.5596 45.197 37.7751 47.4125 40.4984 47.4125C43.2216 47.4125 45.4372 45.197 45.4372 42.4737C45.4372 39.7505 43.2216 37.5349 40.4984 37.5349ZM40.4984 45.437C38.8646 45.437 37.5351 44.1075 37.5351 42.4737C37.5351 40.84 38.8646 39.5104 40.4984 39.5104C42.1321 39.5104 43.4616 40.84 43.4616 42.4737C43.4616 44.1075 42.1321 45.437 40.4984 45.437Z" fill="#FF9800"/>
<path d="M9.4732 36.4402L3.30859 41.7247L4.59367 43.2241L5.92615 42.0803V47.4122H17.7793V42.0803L19.1127 43.2231L20.3978 41.7237L14.2342 36.4392C12.9096 35.3033 10.7948 35.3033 9.4732 36.4402ZM15.8037 45.4367H7.90167V40.3873L10.7593 37.9386C11.3667 37.4181 12.3387 37.4181 12.9481 37.9386L15.8037 40.3873V45.4367Z" fill="#FF9800"/>
<path d="M6.91445 9.87748C8.5482 9.87748 9.87773 8.54796 9.87773 6.9142C9.87773 5.28045 8.5482 3.95093 6.91445 3.95093C5.2807 3.95093 3.95117 5.28045 3.95117 6.9142C3.95117 8.54796 5.2807 9.87748 6.91445 9.87748ZM6.91445 5.92645C7.45969 5.92645 7.90221 6.36896 7.90221 6.9142C7.90221 7.45945 7.45969 7.90196 6.91445 7.90196C6.36921 7.90196 5.92669 7.45945 5.92669 6.9142C5.92669 6.36896 6.36921 5.92645 6.91445 5.92645Z" fill="#FF9800"/>
<path d="M14.8168 9.87748C16.4505 9.87748 17.7801 8.54796 17.7801 6.9142C17.7801 5.28045 16.4505 3.95093 14.8168 3.95093C13.183 3.95093 11.8535 5.28045 11.8535 6.9142C11.8535 8.54796 13.183 9.87748 14.8168 9.87748ZM14.8168 5.92645C15.362 5.92645 15.8046 6.36896 15.8046 6.9142C15.8046 7.45945 15.362 7.90196 14.8168 7.90196C14.2715 7.90196 13.829 7.45945 13.829 6.9142C13.829 6.36896 14.2715 5.92645 14.8168 5.92645Z" fill="#FF9800"/>
<path d="M5.92676 15.8042H21.7309V17.7797H5.92676V15.8042Z" fill="#FF9800"/>
<path d="M3.95117 19.7551H23.7064V21.7306H3.95117V19.7551Z" fill="#FF9800"/>
<path d="M7.90234 11.853H19.7555V13.8285H7.90234V11.853Z" fill="#FF9800"/>
<path d="M3.95117 23.7065H23.7064V25.6821H3.95117V23.7065Z" fill="#FF9800"/>
<path d="M7.90234 31.6082H19.7555V33.5837H7.90234V31.6082Z" fill="#FF9800"/>
<path d="M5.92676 27.6572H21.7309V29.6327H5.92676V27.6572Z" fill="#FF9800"/>
<path d="M23.7061 47.4125H33.5836V37.5349H23.7061V47.4125ZM25.6816 39.5104H31.6081V45.437H25.6816V39.5104Z" fill="#FF9800"/>
</svg>
