<svg width="55" height="55" viewBox="0 0 55 55" fill="none" xmlns="http://www.w3.org/2000/svg">
<g clip-path="url(#clip0)">
<path d="M27.4997 5.49994C28.0059 5.49994 28.4163 5.08951 28.4163 4.58329V0.916657C28.4163 0.410433 28.0059 0 27.4997 0C26.9934 0 26.583 0.410433 26.583 0.916657V4.58329C26.583 5.08951 26.9933 5.49994 27.4997 5.49994Z" fill="#FF9800"/>
<path d="M16.1641 4.20008L17.9975 7.37446C18.2477 7.81457 18.8073 7.96846 19.2474 7.71821C19.6875 7.46796 19.8414 6.90834 19.5912 6.46823C19.5892 6.46468 19.5872 6.46124 19.5851 6.45769L17.7518 3.28331C17.5015 2.8432 16.9419 2.68931 16.5018 2.93956C16.0617 3.18981 15.9078 3.74943 16.1581 4.18954C16.16 4.19309 16.1621 4.19664 16.1641 4.20008Z" fill="#FF9800"/>
<path d="M8.77257 12.246C8.77601 12.2481 8.77956 12.25 8.78311 12.2521L11.9575 14.0854C12.3943 14.3414 12.9559 14.1949 13.2118 13.7582C13.4678 13.3214 13.3214 12.7598 12.8846 12.5038C12.8811 12.5018 12.8776 12.4998 12.874 12.4978L9.69966 10.6644C9.26287 10.4085 8.7013 10.5549 8.44533 10.9917C8.18935 11.4284 8.33579 11.99 8.77257 12.246Z" fill="#FF9800"/>
<path d="M10.9999 21.9998C10.9999 21.4936 10.5895 21.0831 10.0833 21.0831H6.41666C5.91043 21.0831 5.5 21.4936 5.5 21.9998C5.5 22.506 5.91043 22.9164 6.41666 22.9164H10.0833C10.5895 22.9164 10.9999 22.506 10.9999 21.9998Z" fill="#FF9800"/>
<path d="M11.9692 29.9081C11.9656 29.9101 11.9621 29.9122 11.9585 29.9143L8.78416 31.7476C8.34405 31.9977 8.19005 32.5573 8.44018 32.9974C8.69032 33.4375 9.24994 33.5915 9.69005 33.3414C9.6936 33.3393 9.69715 33.3373 9.7007 33.3352L12.8751 31.5019C13.3152 31.2518 13.4692 30.6922 13.2191 30.2521C12.9689 29.8119 12.4093 29.6579 11.9692 29.9081Z" fill="#FF9800"/>
<path d="M46.2267 31.7537C46.2231 31.7516 46.2196 31.7495 46.216 31.7475L43.0417 29.9142C42.605 29.6581 42.0433 29.8045 41.7872 30.2412C41.5311 30.6779 41.6776 31.2395 42.1142 31.4956C42.1178 31.4977 42.1213 31.4998 42.1249 31.5018L45.2993 33.3351C45.7359 33.5912 46.2976 33.4448 46.5537 33.0081C46.8098 32.5713 46.6634 32.0098 46.2267 31.7537Z" fill="#FF9800"/>
<path d="M48.5833 21.0831H44.9167C44.4104 21.0831 44 21.4936 44 21.9998C44 22.506 44.4104 22.9164 44.9167 22.9164H48.5833C49.0895 22.9164 49.4999 22.506 49.4999 21.9998C49.4999 21.4936 49.0895 21.0831 48.5833 21.0831Z" fill="#FF9800"/>
<path d="M42.5849 14.2082C42.7457 14.2082 42.9039 14.1658 43.0432 14.0853L46.2176 12.252C46.6577 12.0018 46.8116 11.4422 46.5613 11.0021C46.3111 10.5619 45.7515 10.4081 45.3113 10.6583C45.3078 10.6603 45.3044 10.6623 45.3008 10.6644L42.1264 12.4977C41.688 12.7508 41.5378 13.3115 41.7909 13.7499C41.9548 14.0334 42.2574 14.2082 42.5849 14.2082Z" fill="#FF9800"/>
<path d="M35.7478 7.71032C35.7482 7.71055 35.7485 7.71078 35.7489 7.7109C36.1874 7.96378 36.748 7.81333 37.0009 7.37471C37.0009 7.3746 37.001 7.37448 37.001 7.37448L38.8343 4.2001C39.0904 3.76343 38.944 3.20175 38.5073 2.94565C38.0706 2.68956 37.5089 2.836 37.2528 3.27267C37.2508 3.27622 37.2487 3.27978 37.2467 3.28333L35.4134 6.45771C35.1599 6.89599 35.3097 7.45675 35.7478 7.71032Z" fill="#FF9800"/>
<path d="M29.3332 36.6663C29.8394 36.6663 30.2499 36.2558 30.2499 35.7496V25.6664H32.0832C34.1082 25.6664 35.7498 24.0248 35.7498 21.9998C35.7498 19.9747 34.1082 18.3331 32.0832 18.3331C30.0582 18.3331 28.4166 19.9747 28.4166 21.9998V23.8331H26.5833V21.9998C26.5833 19.9747 24.9416 18.3331 22.9166 18.3331C20.8916 18.3331 19.25 19.9747 19.25 21.9998C19.25 24.0248 20.8916 25.6664 22.9166 25.6664H24.7499V35.7496C24.7499 36.2558 25.1604 36.6663 25.6666 36.6663C26.1728 36.6663 26.5833 36.2558 26.5833 35.7496V25.6664H28.4166V35.7496C28.4166 36.2558 28.8269 36.6663 29.3332 36.6663ZM30.2499 21.9998C30.2499 20.9872 31.0706 20.1664 32.0832 20.1664C33.0957 20.1664 33.9165 20.9872 33.9165 21.9998C33.9165 23.0123 33.0957 23.8331 32.0832 23.8331H30.2499V21.9998ZM24.7499 23.8331H22.9166C21.9041 23.8331 21.0833 23.0123 21.0833 21.9998C21.0833 20.9872 21.9041 20.1664 22.9166 20.1664C23.9292 20.1664 24.7499 20.9872 24.7499 21.9998V23.8331Z" fill="#FF9800"/>
<path d="M28.2122 7.3507C20.1214 6.96204 13.2474 13.2057 12.8587 21.2965C12.6361 25.9293 14.618 30.3943 18.2032 33.337C18.8493 33.8431 19.2337 34.6129 19.25 35.4334V37.5829C19.2548 38.7441 19.9885 39.7772 21.0833 40.1643V41.2496C21.0857 41.9282 21.3406 42.5818 21.7983 43.0829C20.845 44.1192 20.845 45.7132 21.7983 46.7495C20.7792 47.8667 20.8587 49.5985 21.9759 50.6176C22.4834 51.0805 23.1464 51.3358 23.8333 51.3328C24.3267 51.3457 24.7372 50.9562 24.7501 50.4628C24.7551 50.2703 24.6978 50.0812 24.5868 49.9239C24.5578 49.8679 24.5234 49.8147 24.4841 49.7653C24.4087 49.6963 24.3227 49.64 24.2293 49.5985C24.2027 49.5847 24.1761 49.5737 24.1486 49.5627C24.0558 49.5289 23.9585 49.5095 23.8599 49.505C23.8507 49.505 23.8425 49.4995 23.8333 49.4995C23.3271 49.4995 22.9166 49.0891 22.9166 48.5828C22.9166 48.0766 23.3271 47.6662 23.8333 47.6662H27.4999C28.0062 47.6662 28.4166 47.2557 28.4166 46.7495C28.4166 46.2433 28.0062 45.8329 27.4999 45.8329H23.8333C23.3271 45.8329 22.9166 45.4224 22.9166 44.9162C22.9166 44.41 23.3271 43.9995 23.8333 43.9995H27.4999C28.0062 43.9995 28.4166 43.5891 28.4166 43.0829C28.4166 42.5767 28.0062 42.1662 27.4999 42.1662H23.8333C23.3271 42.1662 22.9166 41.7558 22.9166 41.2496V40.3329H27.4999C28.0062 40.3329 28.4166 39.9225 28.4166 39.4163C28.4166 38.91 28.0062 38.4996 27.4999 38.4996H22C21.4938 38.4996 21.0833 38.0892 21.0833 37.5829V35.4334C21.0683 34.0628 20.4371 32.7717 19.3646 31.918C13.8889 27.4179 13.0982 19.3309 17.5983 13.8553C20.1725 10.7231 24.0754 8.99152 28.1251 9.18493C34.8977 9.5878 40.2176 15.1383 40.3331 21.9219C40.366 25.8236 38.6116 29.5259 35.5711 31.9712C34.5066 32.848 33.898 34.1607 33.9165 35.5397V37.5829C33.9165 38.0892 33.5061 38.4996 32.9999 38.4996H30.2499C29.7437 38.4996 29.3332 38.91 29.3332 39.4163C29.3332 39.9225 29.7437 40.3329 30.2499 40.3329H32.0832V41.2496C32.0832 41.7558 31.6728 42.1662 31.1666 42.1662H30.2499C29.7437 42.1662 29.3332 42.5767 29.3332 43.0829C29.3332 43.5891 29.7437 43.9995 30.2499 43.9995H31.1666C31.6728 43.9995 32.0832 44.41 32.0832 44.9162C32.0832 45.4224 31.6728 45.8329 31.1666 45.8329H30.2499C29.7437 45.8329 29.3332 46.2433 29.3332 46.7495C29.3332 47.2557 29.7437 47.6662 30.2499 47.6662H31.1666C31.6728 47.6662 32.0832 48.0766 32.0832 48.5828C32.0832 49.0891 31.6728 49.4995 31.1666 49.4995H26.5833C26.077 49.4995 25.6666 49.9099 25.6666 50.4161C25.6666 50.9224 26.077 51.3328 26.5833 51.3328H30.0932C29.587 52.7647 28.0159 53.5152 26.584 53.0091C26.1456 52.8542 25.7537 52.5906 25.4448 52.243C25.1081 51.8649 24.5286 51.8312 24.1505 52.1679C23.7723 52.5045 23.7387 53.0841 24.0753 53.4622C25.7518 55.3513 28.6422 55.5238 30.5313 53.8474C31.3116 53.155 31.8317 52.2167 32.0053 51.188C33.4409 50.7393 34.2409 49.2118 33.7923 47.7762C33.6732 47.3947 33.4714 47.0442 33.2015 46.7495C34.1549 45.7132 34.1549 44.1192 33.2015 43.0829C33.6593 42.5818 33.9141 41.9282 33.9165 41.2496V40.1643C35.0114 39.7772 35.745 38.7441 35.7498 37.5829V35.5397C35.7376 34.7162 36.0944 33.9303 36.7224 33.3975C40.1993 30.6023 42.2052 26.3691 42.1664 21.9081C42.034 14.1546 35.9531 7.81098 28.2122 7.3507Z" fill="#FF9800"/>
</g>
<defs>
<clipPath id="clip0">
<rect width="55" height="55" fill="white"/>
</clipPath>
</defs>
</svg>
