<svg width="62" height="54" viewBox="0 0 62 54" fill="none" xmlns="http://www.w3.org/2000/svg">
<path d="M60.2207 6.1221C60.7842 6.1221 61.2411 5.66523 61.2411 5.10175V1.02035C61.2411 0.456865 60.7842 0 60.2207 0H49.65C48.1927 0.00348755 46.9387 1.03181 46.6498 2.4602L41.0179 30.6105H38.7934V25.5087C38.7934 23.8183 37.4228 22.4477 35.7323 22.4477H13.2846C11.5942 22.4477 10.2236 23.8183 10.2236 25.5087V30.7022C7.28161 31.2024 5.12732 33.7483 5.12184 36.7326V40.9057C2.46733 41.3456 0.411191 43.4665 0.0544671 46.1329C-0.302755 48.7999 1.12314 51.3872 3.5679 52.5096C6.01315 53.6316 8.9043 53.0263 10.6939 51.0175H39.5382C41.0194 52.3348 42.9331 53.0612 44.9155 53.0582C48.6322 53.0472 51.8746 50.5332 52.8107 46.9361H58.18C59.8705 46.9361 61.2411 45.5655 61.2411 43.875V37.7529C61.2366 33.81 58.0415 30.615 54.0986 30.6105H47.1714L51.8805 6.1221H60.2207ZM12.2643 25.5087C12.2643 24.9453 12.7211 24.4884 13.2846 24.4884H35.7323C36.2958 24.4884 36.7527 24.9453 36.7527 25.5087V30.6105H12.2643V25.5087ZM6.14219 51.0175C3.99288 51.017 2.21225 49.3494 2.07075 47.2046C1.92926 45.0598 3.47573 43.173 5.6066 42.8901C7.73698 42.6076 9.72188 44.0255 10.1449 46.1329C10.1997 46.397 10.2256 46.6665 10.2236 46.9361C10.2291 47.8199 9.94209 48.6813 9.40701 49.3848C8.63377 50.4092 7.42559 51.013 6.14219 51.0175ZM11.9195 48.9768C11.9195 48.9613 11.9265 48.9449 11.9315 48.9299C11.9992 48.7172 12.055 48.5015 12.0989 48.2828C12.1233 48.1727 12.1612 48.0665 12.1796 47.9544C12.2354 47.6176 12.2638 47.2774 12.2643 46.9361H37.0187C37.0391 47.0178 37.075 47.095 37.0984 47.1767C37.1403 47.3217 37.1901 47.4627 37.2404 47.6052C37.3291 47.8563 37.4292 48.1024 37.5463 48.343C37.6106 48.482 37.6749 48.6176 37.7506 48.7511C37.7905 48.8248 37.8189 48.903 37.8607 48.9758L11.9195 48.9768ZM44.9155 51.0175C41.8584 51.0135 39.2727 48.7556 38.8576 45.7269C38.8357 45.6078 38.8208 45.4878 38.8118 45.3667C38.8118 45.3238 38.8118 45.274 38.8043 45.2292C38.8043 45.1445 38.7964 45.0568 38.7954 44.9626C38.7954 44.6767 38.8133 44.3912 38.8497 44.1077C38.8626 44.0056 38.8771 43.9119 38.8945 43.8157C38.9199 43.6678 38.9558 43.5248 38.9902 43.3813C39.591 41.0541 41.4957 39.2924 43.8622 38.8754C44.0296 38.8475 44.197 38.8201 44.3644 38.8057C44.4053 38.8057 44.4481 38.8057 44.49 38.7997C44.6868 38.7877 44.8836 38.7813 45.0799 38.7867C45.1297 38.7867 45.1815 38.7867 45.2288 38.7947C45.4112 38.8037 45.592 38.8201 45.7714 38.8455C45.8317 38.854 45.891 38.863 45.9513 38.8734C46.1142 38.9008 46.2756 38.9367 46.4355 38.9751C46.5053 38.9925 46.5745 39.0079 46.6398 39.0284C46.7898 39.0722 46.9367 39.125 47.0827 39.1803C47.152 39.2067 47.2232 39.2282 47.292 39.258C47.4798 39.3373 47.6636 39.4259 47.843 39.5241C47.9446 39.5834 48.0468 39.6496 48.1489 39.7139C48.2316 39.7652 48.3133 39.8161 48.3925 39.8714C48.4947 39.9446 48.5968 40.0223 48.6989 40.1025C48.7672 40.1568 48.8334 40.2121 48.9027 40.2689C49.0048 40.3526 49.097 40.4373 49.1877 40.527C49.2569 40.5948 49.3212 40.666 49.3914 40.7313C49.4622 40.7965 49.5509 40.8997 49.6251 40.9884C49.7581 41.1483 49.8827 41.3147 49.9988 41.4876C50.0282 41.5314 50.0531 41.5782 50.0805 41.6221C50.1731 41.7701 50.2628 41.92 50.3435 42.074C50.3699 42.1273 50.3949 42.1761 50.4203 42.2354C50.4945 42.3874 50.5633 42.5413 50.624 42.6997C50.6455 42.7555 50.6659 42.8108 50.6853 42.8671C50.7426 43.0281 50.7875 43.1905 50.8343 43.3559C50.8487 43.4127 50.8652 43.47 50.8781 43.5273C50.918 43.6977 50.9469 43.871 50.9713 44.0444C50.9793 44.0982 50.9907 44.1515 50.9967 44.2068C51.0231 44.435 51.0366 44.6652 51.0376 44.8954C51.041 45.1893 51.0171 45.4833 50.9663 45.7727C50.5259 48.778 47.9526 51.0085 44.9155 51.0175ZM59.2004 37.7529V43.875C59.2004 44.4385 58.7435 44.8954 58.18 44.8954H53.0783C53.0768 44.5885 53.0588 44.2821 53.023 43.9772C53.015 43.9044 53.0005 43.8332 52.9906 43.7609C52.9577 43.5283 52.9178 43.2976 52.866 43.0719C52.8486 42.9947 52.8272 42.9189 52.8067 42.8422C52.7494 42.621 52.6842 42.4038 52.6089 42.1906C52.5835 42.1158 52.5556 42.0426 52.5282 41.9688C52.446 41.7566 52.3553 41.5484 52.2557 41.3446C52.2223 41.2753 52.1904 41.2046 52.1536 41.1403C52.0445 40.9291 51.9244 40.7253 51.7968 40.528C51.762 40.4732 51.7316 40.4159 51.6947 40.3621C51.5373 40.1294 51.3699 39.9052 51.1915 39.6895C51.0998 39.5794 50.9997 39.4773 50.903 39.3721C50.8059 39.267 50.7122 39.1684 50.6111 39.0662C50.5099 38.9641 50.3744 38.8465 50.2519 38.7394C50.1557 38.6567 50.0591 38.5755 49.9589 38.4968C49.8847 38.4385 49.8184 38.3722 49.7417 38.3159C49.6854 38.2741 49.6241 38.2427 49.5673 38.2028C49.4557 38.1251 49.3406 38.0539 49.2255 37.9826C49.0905 37.8989 48.959 37.8122 48.817 37.7365C48.6591 37.6498 48.4937 37.5756 48.3292 37.4988C48.1329 37.4077 47.9327 37.325 47.7294 37.2507C47.5695 37.1919 47.41 37.1317 47.2461 37.0823C47.1246 37.047 47.002 37.0181 46.8794 36.9877C46.7051 36.9448 46.5307 36.905 46.3533 36.8736C46.2377 36.8531 46.1226 36.8357 46.0061 36.8203C45.8142 36.7939 45.6194 36.7764 45.4236 36.764C45.3215 36.757 45.2104 36.75 45.1023 36.748C45.038 36.748 44.9748 36.7376 44.9095 36.7376C44.758 36.7376 44.6106 36.752 44.4616 36.76C44.3664 36.765 44.2728 36.7665 44.1766 36.7744C43.9728 36.7939 43.7686 36.8243 43.5643 36.8581C43.1313 36.9229 42.7039 37.0201 42.2849 37.1476C39.6966 37.9806 37.7207 40.0896 37.0586 42.7271C36.9973 42.9454 36.9435 43.1671 36.9016 43.3923C36.8792 43.5158 36.8608 43.6404 36.8443 43.7659C36.7875 44.1396 36.7567 44.5172 36.7527 44.8954H11.9165C11.9021 44.8545 11.8807 44.8187 11.8652 44.7778C11.8303 44.6851 11.7875 44.5974 11.7481 44.5068C11.6594 44.3 11.5593 44.0987 11.4477 43.9034C11.3939 43.8108 11.3461 43.7201 11.2828 43.6299C11.1553 43.4346 11.0167 43.2463 10.8683 43.0659C10.8155 43.0027 10.7661 42.9354 10.7133 42.8731C10.5066 42.6404 10.2824 42.4237 10.0427 42.2249C9.99291 42.1841 9.94109 42.1507 9.88679 42.1108C9.69149 41.9574 9.48722 41.8164 9.27448 41.6884C9.1848 41.6355 9.09412 41.5862 9.00196 41.5384C8.80765 41.4358 8.60786 41.3431 8.4031 41.2619C8.30844 41.223 8.21427 41.1842 8.11762 41.1508C7.85755 41.0616 7.5915 40.9903 7.32147 40.9375C7.27762 40.9281 7.23677 40.9141 7.19293 40.9066L7.16254 40.8997V36.7326C7.16254 34.4786 8.99 32.6512 11.2439 32.6512H54.0986C56.9145 32.6547 59.1969 34.9365 59.2004 37.7529ZM50.0356 4.90993L45.0928 30.6105H43.099L48.6491 2.85678C48.7458 2.38148 49.1643 2.0402 49.65 2.0407H59.2004V4.0814H51.0376C50.5478 4.0814 50.1273 4.42915 50.0356 4.90993Z" fill="#FF9800"/>
<path d="M27.5695 30.6277H23.4881C22.9246 30.6277 22.4678 31.0846 22.4678 31.648V37.7701C22.4678 38.3336 22.9246 38.7905 23.4881 38.7905H27.5695C28.133 38.7905 28.5899 38.3336 28.5899 37.7701V31.648C28.5899 31.0846 28.133 30.6277 27.5695 30.6277ZM26.5492 36.7498H24.5085V32.6684H26.5492V36.7498Z" fill="#FF9800"/>
<path d="M19.4064 30.6277H15.325C14.7616 30.6277 14.3047 31.0846 14.3047 31.648V37.7701C14.3047 38.3336 14.7616 38.7905 15.325 38.7905H19.4064C19.9699 38.7905 20.4268 38.3336 20.4268 37.7701V31.648C20.4268 31.0846 19.9699 30.6277 19.4064 30.6277ZM18.3861 36.7498H16.3454V32.6684H18.3861V36.7498Z" fill="#FF9800"/>
<path d="M35.7326 30.6277H31.6512C31.0877 30.6277 30.6309 31.0846 30.6309 31.648V37.7701C30.6309 38.3336 31.0877 38.7905 31.6512 38.7905H35.7326C36.2961 38.7905 36.753 38.3336 36.753 37.7701V31.648C36.753 31.0846 36.2961 30.6277 35.7326 30.6277ZM34.7123 36.7498H32.6716V32.6684H34.7123V36.7498Z" fill="#FF9800"/>
<path d="M8.18296 42.8718C8.18296 43.9987 7.26923 44.9125 6.14226 44.9125C5.01529 44.9125 4.10156 43.9987 4.10156 42.8718C4.10156 41.7448 5.01529 40.8311 6.14226 40.8311C7.26923 40.8311 8.18296 41.7448 8.18296 42.8718Z" fill="#FF9800"/>
<path d="M44.9155 37.7703C43.2251 37.7703 41.8545 39.1409 41.8545 40.8313C41.8545 42.5218 43.2251 43.8924 44.9155 43.8924C46.606 43.8924 47.9766 42.5218 47.9766 40.8313C47.9766 39.1409 46.606 37.7703 44.9155 37.7703ZM44.9155 41.8517C44.3521 41.8517 43.8952 41.3948 43.8952 40.8313C43.8952 40.2678 44.3521 39.811 44.9155 39.811C45.479 39.811 45.9359 40.2678 45.9359 40.8313C45.9359 41.3948 45.479 41.8517 44.9155 41.8517Z" fill="#FF9800"/>
</svg>
