<svg width="90" height="90" viewBox="0 0 90 90" fill="none" xmlns="http://www.w3.org/2000/svg">
<circle cx="44.6246" cy="44.6246" r="44.6246" fill="#FF9800"/>
<path d="M29.976 49.468C29.768 63.3 42.768 63.04 45.056 63.04C47.968 63.04 59.096 62.26 59.096 51.912C59.096 45.828 55.144 43.488 51.4 43.072V42.916C53.636 42.344 57.9 40.524 57.9 34.856C57.9 30.592 55.508 24.56 44.848 24.56C32.888 24.56 30.912 32.412 30.912 37.612H38.556C38.556 31.892 41.572 30.904 44.432 30.904C49.112 30.904 50.256 33.712 50.256 35.584C50.256 39.952 46.252 40.16 44.38 40.16H41.624V46.14H45.264C50.1 46.14 50.984 49 50.984 51.132C50.984 52.432 50.568 56.696 44.744 56.696C39.492 56.696 38.036 52.64 38.036 49.468H29.976Z" fill="white"/>
</svg>
