<svg width="88" height="88" viewBox="0 0 88 88" fill="none" xmlns="http://www.w3.org/2000/svg">
<g clip-path="url(#clip0)">
<path d="M24.6114 37.6366L32.6467 27.9697C33.1018 27.4221 33.0269 26.6095 32.4793 26.1544C31.9321 25.6994 31.1191 25.7743 30.664 26.3218L23.7762 34.608L22.2708 32.1626C21.8976 31.5564 21.1038 31.3672 20.4972 31.7406C19.891 32.114 19.7021 32.908 20.0753 33.514L22.5221 37.4883C22.9848 38.2394 24.048 38.3145 24.6114 37.6366Z" fill="#FF9800"/>
<path d="M20.0754 50.5298L22.5222 54.504C22.9845 55.2551 24.0478 55.3302 24.6112 54.6522L32.6465 44.9853C33.1016 44.4377 33.0267 43.625 32.4791 43.1699C31.9318 42.715 31.1189 42.7897 30.6637 43.3373L23.776 51.6236L22.2706 49.1782C21.8974 48.572 21.1035 48.3827 20.497 48.7562C19.891 49.1297 19.7021 49.9237 20.0754 50.5298Z" fill="#FF9800"/>
<path d="M20.0754 67.66L22.5222 71.6343C22.9845 72.3854 24.0478 72.4605 24.6112 71.7825L32.6465 62.1155C33.1016 61.5679 33.0267 60.7553 32.4791 60.3002C31.9318 59.8452 31.1189 59.92 30.6637 60.4676L23.776 68.7538L22.2706 66.3084C21.8974 65.7022 21.1035 65.5131 20.497 65.8865C19.891 66.2599 19.7021 67.054 20.0754 67.66Z" fill="#FF9800"/>
<path d="M77.0859 72.7727C76.374 72.7727 75.7969 73.3497 75.7969 74.0618V83.4453C75.7969 84.5352 74.9102 85.4219 73.8203 85.4219H14.1797C13.0898 85.4219 12.2031 84.5352 12.2031 83.4453V26.9515C12.2031 26.2395 11.626 25.6625 10.9141 25.6625C10.2022 25.6625 9.625 26.2395 9.625 26.9515V83.4453C9.625 85.9567 11.6682 88 14.1797 88H73.8203C76.3317 88 78.375 85.9567 78.375 83.4453V74.0618C78.375 73.3499 77.7978 72.7727 77.0859 72.7727Z" fill="#FF9800"/>
<path d="M73.8203 9.93283H67.5146V4.60625C67.5146 2.06645 65.4483 0 62.9083 0C60.3683 0 58.3021 2.06628 58.3021 4.60625V9.93283H48.6062V4.60625C48.6062 2.06628 46.5398 0 44 0C41.4602 0 39.3937 2.06628 39.3937 4.60625V9.93283H29.6978V4.60625C29.6978 2.06645 27.6315 0 25.0915 0C22.5517 0 20.4853 2.06628 20.4853 4.60625V9.93283H14.1797C11.6682 9.93283 9.625 11.9761 9.625 14.4875V20.9359C9.625 21.648 10.2022 22.225 10.9141 22.225C11.626 22.225 12.2031 21.648 12.2031 20.9359V14.4875C12.2031 13.3977 13.0898 12.511 14.1797 12.511H20.4853V14.5578C20.4853 17.0976 22.5515 19.1641 25.0915 19.1641C27.6315 19.1641 29.6978 17.0978 29.6978 14.5578V12.511H39.3937V14.5578C39.3937 17.0976 41.46 19.1641 44 19.1641C46.54 19.1641 48.6062 17.0978 48.6062 14.5578V12.511H58.3022V14.5578C58.3022 17.0976 60.3685 19.1641 62.9085 19.1641C65.4483 19.1641 67.5147 17.0978 67.5147 14.5578V12.511H73.8203C74.9102 12.511 75.7969 13.3977 75.7969 14.4875V68.0462C75.7969 68.7582 76.374 69.3352 77.0859 69.3352C77.7978 69.3352 78.375 68.7582 78.375 68.0462V14.4875C78.375 11.9761 76.3317 9.93283 73.8203 9.93283ZM27.1198 14.5578C27.1198 15.6762 26.2101 16.5859 25.0917 16.5859C23.9735 16.5859 23.0636 15.6762 23.0636 14.5578C23.0636 11.81 23.0636 5.46631 23.0636 4.60625C23.0636 3.48786 23.9733 2.57812 25.0917 2.57812C26.2101 2.57812 27.1198 3.48786 27.1198 4.60625V14.5578ZM46.0281 14.5578C46.0281 15.6762 45.1184 16.5859 44 16.5859C42.8816 16.5859 41.9719 15.6762 41.9719 14.5578C41.9719 11.81 41.9719 5.46631 41.9719 4.60625C41.9719 3.48786 42.8816 2.57812 44 2.57812C45.1184 2.57812 46.0281 3.48786 46.0281 4.60625V14.5578ZM64.9366 14.5578C64.9366 15.6762 64.0269 16.5859 62.9085 16.5859C61.7901 16.5859 60.8804 15.6762 60.8804 14.5578C60.8804 11.81 60.8804 5.46631 60.8804 4.60625C60.8804 3.48786 61.7901 2.57812 62.9085 2.57812C64.0267 2.57812 64.9366 3.48786 64.9366 4.60625V14.5578Z" fill="#FF9800"/>
<path d="M38.1118 38.7032H65.2681C67.4952 38.7032 69.3071 36.8913 69.3071 34.6642C69.3071 32.437 67.4952 30.6251 65.2681 30.6251H38.1118C35.8847 30.6251 34.0728 32.437 34.0728 34.6642C34.0728 36.8913 35.8847 38.7032 38.1118 38.7032ZM38.1118 33.2032H65.2681C66.0737 33.2032 66.729 33.8586 66.729 34.6642C66.729 35.4698 66.0737 36.1251 65.2681 36.1251H38.1118C37.3062 36.1251 36.6509 35.4698 36.6509 34.6642C36.6509 33.8586 37.3062 33.2032 38.1118 33.2032Z" fill="#FF9800"/>
<path d="M38.1118 55.7555H65.2681C67.4952 55.7555 69.3071 53.9436 69.3071 51.7164C69.3071 49.4893 67.4952 47.6774 65.2681 47.6774H38.1118C35.8847 47.6774 34.0728 49.4893 34.0728 51.7164C34.0728 53.9436 35.8847 55.7555 38.1118 55.7555ZM38.1118 50.2555H65.2681C66.0737 50.2555 66.729 50.9109 66.729 51.7164C66.729 52.522 66.0737 53.1774 65.2681 53.1774H38.1118C37.3062 53.1774 36.6509 52.522 36.6509 51.7164C36.6509 50.9109 37.3062 50.2555 38.1118 50.2555Z" fill="#FF9800"/>
<path d="M38.1118 72.8076H65.2681C67.4952 72.8076 69.3071 70.9957 69.3071 68.7686C69.3071 66.5414 67.4952 64.7295 65.2681 64.7295H38.1118C35.8847 64.7295 34.0728 66.5414 34.0728 68.7686C34.0728 70.9957 35.8847 72.8076 38.1118 72.8076ZM38.1118 67.3076H65.2681C66.0737 67.3076 66.729 67.963 66.729 68.7686C66.729 69.5741 66.0737 70.2295 65.2681 70.2295H38.1118C37.3062 70.2295 36.6509 69.5741 36.6509 68.7686C36.6509 67.963 37.3062 67.3076 38.1118 67.3076Z" fill="#FF9800"/>
</g>
<defs>
<clipPath id="clip0">
<rect width="88" height="88" fill="white"/>
</clipPath>
</defs>
</svg>
