<svg width="100" height="100" viewBox="0 0 100 100" fill="none" xmlns="http://www.w3.org/2000/svg">
<path d="M25.6755 34.9459C25.498 34.949 25.3217 34.9171 25.1566 34.8521C24.9914 34.787 24.8407 34.6901 24.713 34.5668C24.4552 34.3178 24.3068 33.9766 24.3005 33.6182C24.2942 33.2598 24.4306 32.9136 24.6796 32.6557C24.9286 32.3979 25.2698 32.2495 25.6282 32.2432C32.2589 32.1691 38.8753 31.6091 45.4241 30.5675C45.5405 30.5433 45.6596 30.5351 45.7782 30.5432C47.4197 30.63 49.0122 31.1322 50.4066 32.0027C50.6368 32.1699 50.8084 32.4056 50.8968 32.6762C50.9852 32.9467 50.9859 33.2382 50.8989 33.5092C50.8119 33.7801 50.6415 34.0167 50.4121 34.1852C50.1827 34.3536 49.906 34.4453 49.6214 34.4473C49.3032 34.4472 48.9945 34.338 48.7471 34.1378C47.8361 33.6157 46.8158 33.3135 45.7674 33.2554C39.1309 34.2981 32.4281 34.863 25.7106 34.9459H25.6755Z" fill="#FF9800"/>
<path d="M75.1082 67.0945C73.9552 67.096 72.8315 66.7317 71.8987 66.054L71.6082 65.8526C71.5703 65.827 71.5068 65.7756 71.4474 65.7175L55.5406 54.2621C55.3921 54.1607 55.2653 54.0308 55.1677 53.8798C55.07 53.7288 55.0035 53.5599 54.972 53.3828C54.9405 53.2058 54.9446 53.0243 54.9841 52.8489C55.0236 52.6735 55.0978 52.5077 55.2022 52.3613C55.3066 52.2149 55.4391 52.0909 55.5921 51.9964C55.7451 51.9018 55.9153 51.8388 56.093 51.8109C56.2706 51.7831 56.452 51.7909 56.6266 51.8341C56.8011 51.8772 56.9653 51.9547 57.1095 52.0621L58.1906 52.8324L73.0757 63.5662C73.1203 63.5981 73.1627 63.6328 73.2028 63.6702L73.4609 63.8499C74.047 64.2701 74.7721 64.4492 75.4864 64.3504C76.2008 64.2516 76.85 63.8823 77.3001 63.3189C77.5762 62.9704 77.7644 62.5606 77.8488 62.124C77.9333 61.6875 77.9114 61.2371 77.7852 60.8108C77.6334 60.2737 77.3196 59.7966 76.8865 59.4445L55.6109 42.1108C47.4636 46.4351 41.692 44.2108 38.9365 42.45C38.4812 42.1536 38.1115 41.743 37.8643 41.2592C37.6171 40.7753 37.501 40.2352 37.5277 39.6925C37.5543 39.1498 37.7228 38.6236 38.0162 38.1664C38.3097 37.7091 38.7178 37.3368 39.2001 37.0864L51.3784 30.6189C52.1558 30.2122 53.0059 29.9635 53.8798 29.8869C54.7537 29.8104 55.6342 29.9076 56.4703 30.1729L63.6744 32.5108C65.7953 33.2083 68.0957 33.1254 70.1609 32.277L73.2987 30.9918C73.4629 30.9245 73.6388 30.8902 73.8164 30.8908C73.9939 30.8914 74.1695 30.927 74.3333 30.9955C74.497 31.064 74.6457 31.1641 74.7708 31.2901C74.8958 31.4161 74.9949 31.5654 75.0622 31.7297C75.1296 31.8939 75.1639 32.0698 75.1633 32.2473C75.1626 32.4248 75.1271 32.6005 75.0585 32.7643C74.99 32.928 74.8899 33.0767 74.764 33.2017C74.638 33.3268 74.4886 33.4259 74.3244 33.4932L71.1892 34.777C68.5299 35.8716 65.5668 35.979 62.8352 35.0797L55.6379 32.7432C55.1449 32.5883 54.6262 32.5325 54.1116 32.5789C53.597 32.6253 53.0966 32.773 52.6392 33.0135L40.4582 39.4824C40.3904 39.5143 40.3327 39.5645 40.2917 39.6272C40.2507 39.69 40.2278 39.7629 40.2257 39.8378C40.2201 39.9056 40.2333 39.9736 40.2638 40.0344C40.2943 40.0952 40.341 40.1464 40.3987 40.1824C43.2365 41.9959 48.1082 43.3256 55.0825 39.3189C55.3197 39.1826 55.5927 39.1215 55.8653 39.1437C56.138 39.1659 56.3975 39.2703 56.6095 39.4432L78.5825 57.3486C79.4442 58.0437 80.0708 58.9874 80.3771 60.0513C80.6198 60.8887 80.6606 61.7716 80.4962 62.6278C80.3317 63.484 79.9668 64.2891 79.4311 64.977C78.9209 65.6375 78.2657 66.1719 77.5162 66.539C76.7667 66.9062 75.9428 67.0963 75.1082 67.0945Z" fill="#FF9800"/>
<path d="M69.5163 73.3579C68.3711 73.3591 67.254 73.0035 66.3203 72.3404L51.7122 61.9755C51.4268 61.7655 51.2352 61.4518 51.1788 61.102C51.1225 60.7521 51.2058 60.3941 51.4108 60.1051C51.6158 59.8161 51.9262 59.6191 52.275 59.5567C52.6238 59.4943 52.9832 59.5714 53.2757 59.7714L67.8838 70.135C68.4967 70.5353 69.2406 70.6833 69.96 70.548C70.6795 70.4127 71.3188 70.0047 71.7445 69.4091C72.1701 68.8136 72.3492 68.0765 72.2442 67.3521C72.1392 66.6276 71.7583 65.9717 71.1811 65.5215L56.6217 55.0282C56.3533 54.8111 56.1782 54.4996 56.1323 54.1575C56.0863 53.8154 56.173 53.4687 56.3745 53.1885C56.5761 52.9083 56.8772 52.7158 57.2162 52.6506C57.5551 52.5853 57.9062 52.6523 58.1973 52.8377L72.7609 63.3323C73.7088 64.0186 74.4151 64.9875 74.7785 66.1C75.1418 67.2125 75.1436 68.4115 74.7834 69.525C74.4233 70.6386 73.7198 71.6095 72.7738 72.2985C71.8278 72.9876 70.688 73.3594 69.5176 73.3606L69.5163 73.3579Z" fill="#FF9800"/>
<path d="M63.2094 78.7731C62.1216 78.7727 61.0601 78.4393 60.1675 77.8177L47.077 68.7501C46.7822 68.546 46.5805 68.2331 46.5164 67.8804C46.4523 67.5276 46.531 67.1638 46.7351 66.869C46.9392 66.5742 47.252 66.3726 47.6048 66.3085C47.9576 66.2444 48.3214 66.323 48.6161 66.5271L61.7067 75.5947C61.9941 75.7935 62.318 75.9338 62.6596 76.0074C63.0013 76.0811 63.3542 76.0867 63.698 76.024C64.0419 75.9612 64.37 75.8313 64.6636 75.6418C64.9573 75.4522 65.2107 75.2066 65.4094 74.919C65.8049 74.3425 65.9584 73.6339 65.8372 72.9453C65.7159 72.2568 65.3294 71.6433 64.7607 71.2366L51.7337 61.996C51.5856 61.8948 51.4591 61.765 51.3617 61.6144C51.2643 61.4637 51.1978 61.2951 51.1662 61.1185C51.1346 60.9419 51.1385 60.7607 51.1777 60.5856C51.2168 60.4105 51.2905 60.245 51.3943 60.0987C51.4981 59.9523 51.63 59.8281 51.7823 59.7333C51.9346 59.6385 52.1043 59.5749 52.2815 59.5464C52.4586 59.5178 52.6396 59.5249 52.814 59.567C52.9884 59.6092 53.1527 59.6857 53.2972 59.792L66.3243 69.0325C67.4709 69.852 68.2504 71.0886 68.4952 72.4765C68.7401 73.8645 68.4308 75.2931 67.6337 76.4555C67.2355 77.0364 66.726 77.5326 66.1347 77.9153C65.5435 78.2981 64.8822 78.5597 64.1891 78.6852C63.8659 78.7442 63.538 78.7736 63.2094 78.7731Z" fill="#FF9800"/>
<path d="M55.4879 83.2162C54.5425 83.2115 53.6148 82.959 52.7974 82.4837L45.5312 78.2945C45.2233 78.1141 44.9994 77.8192 44.9082 77.4742C44.817 77.1292 44.8659 76.7621 45.0443 76.4531C45.2228 76.144 45.5162 75.9181 45.8606 75.8246C46.205 75.7311 46.5723 75.7776 46.8825 75.954L54.1474 80.1432C54.7616 80.4898 55.4869 80.5827 56.1686 80.4019C56.8503 80.2211 57.4344 79.7811 57.7961 79.1756C58.1397 78.5952 58.2489 77.9056 58.1015 77.2474C57.9541 76.5893 57.5611 76.0121 57.0028 75.6337L47.719 69.2026C47.5732 69.1016 47.4486 68.9728 47.3525 68.8236C47.2564 68.6744 47.1907 68.5077 47.159 68.3331C47.1273 68.1585 47.1303 67.9794 47.1679 67.8059C47.2054 67.6325 47.2768 67.4681 47.3778 67.3222C47.4789 67.1764 47.6077 67.0518 47.7569 66.9557C47.9061 66.8596 48.0727 66.7939 48.2474 66.7622C48.422 66.7305 48.6011 66.7335 48.7745 66.7711C48.948 66.8086 49.1123 66.88 49.2582 66.981L58.5406 73.4108C59.483 74.0631 60.1924 74.9993 60.5656 76.0829C60.9388 77.1666 60.9562 78.341 60.6154 79.4353C60.2746 80.5295 59.5933 81.4864 58.6708 82.1665C57.7482 82.8465 56.6327 83.2143 55.4866 83.2162H55.4879Z" fill="#FF9800"/>
<path d="M40.1863 82.4095C39.0808 82.4111 38.001 82.0755 37.0913 81.4473C36.1816 80.8191 35.4851 79.9283 35.095 78.8939C34.7049 77.8595 34.6397 76.7306 34.9081 75.6582C35.1765 74.5857 35.7658 73.6206 36.5971 72.8919L40.2066 69.7297C40.743 69.2588 41.3668 68.8982 42.0426 68.6684C42.7183 68.4386 43.4327 68.3442 44.145 68.3905C44.8572 68.4368 45.5534 68.6229 46.1937 68.9383C46.834 69.2536 47.406 69.692 47.8769 70.2284C48.3477 70.7648 48.7082 71.3888 48.9379 72.0646C49.1676 72.7404 49.2619 73.4548 49.2155 74.1671C49.169 74.8793 48.9828 75.5755 48.6673 76.2157C48.3518 76.856 47.9133 77.4278 47.3769 77.8986L43.7674 81.0676C42.7767 81.9356 41.5035 82.4127 40.1863 82.4095ZM43.7904 71.0811C43.1277 71.0794 42.4871 71.3196 41.989 71.7567L38.3782 74.923C38.1085 75.1596 37.888 75.4471 37.7293 75.7689C37.5707 76.0908 37.477 76.4407 37.4536 76.7988C37.4302 77.1569 37.4775 77.5161 37.5929 77.8558C37.7083 78.1956 37.8895 78.5093 38.1262 78.7791C38.6041 79.3238 39.2789 79.6564 40.002 79.7037C40.3601 79.7271 40.7193 79.6797 41.059 79.5643C41.3988 79.4489 41.7125 79.2677 41.9823 79.0311L45.5917 75.8622C46.0081 75.4957 46.303 75.0111 46.4372 74.4729C46.5713 73.9346 46.5385 73.3683 46.3429 72.8493C46.1473 72.3302 45.7983 71.883 45.3424 71.5671C44.8864 71.2512 44.3451 71.0817 43.7904 71.0811Z" fill="#FF9800"/>
<path d="M32.0052 78.7283C31.8849 78.7283 31.7647 78.7283 31.6444 78.7175C30.9317 78.6729 30.2349 78.4875 29.5943 78.1721C28.9536 77.8566 28.3819 77.4174 27.912 76.8797C27.4346 76.3432 27.068 75.7177 26.833 75.0391C26.598 74.3605 26.4993 73.6422 26.5426 72.9254C26.586 72.2086 26.7704 71.5074 27.0854 70.8621C27.4004 70.2167 27.8397 69.6399 28.3782 69.1648L34.4079 63.8716C34.9443 63.4007 35.5682 63.04 36.2439 62.8102C36.9197 62.5805 37.6341 62.486 38.3463 62.5323C39.0586 62.5786 39.7547 62.7648 40.395 63.0801C41.0353 63.3955 41.6073 63.8338 42.0782 64.3702L41.1011 65.3067L42.116 64.4148C42.5871 64.9511 42.9478 65.575 43.1777 66.2507C43.4076 66.9265 43.5021 67.641 43.4558 68.3533C43.4095 69.0656 43.2233 69.7618 42.9079 70.4021C42.5924 71.0424 42.1539 71.6143 41.6174 72.0851L35.5822 77.3783C34.5948 78.2502 33.3224 78.7304 32.0052 78.7283ZM37.9849 65.2229C37.323 65.2211 36.6833 65.4614 36.1863 65.8986L30.1566 71.1918C29.7529 71.5563 29.4653 72.0315 29.3296 72.5582C29.1939 73.0848 29.216 73.6398 29.3933 74.154C29.5706 74.6682 29.8952 75.1189 30.3267 75.45C30.7582 75.7811 31.2775 75.978 31.8201 76.0162C32.1784 76.0407 32.538 75.9937 32.8779 75.8776C33.2179 75.7616 33.5313 75.579 33.7998 75.3405L39.8295 70.0473C40.0993 69.8106 40.3198 69.523 40.4785 69.2011C40.6371 68.8791 40.7308 68.5291 40.7542 68.1709C40.7775 67.8128 40.7301 67.4536 40.6145 67.1137C40.499 66.7739 40.3177 66.4602 40.0809 66.1905L40.0417 66.1459C39.8059 65.8772 39.5192 65.6578 39.1982 65.5003C38.8772 65.3428 38.5283 65.2504 38.1714 65.2283C38.1079 65.2256 38.0444 65.2243 37.9836 65.2243L37.9849 65.2229Z" fill="#FF9800"/>
<path d="M25.1864 73.7675C25.0675 73.7675 24.9472 73.7675 24.8256 73.7567C24.1129 73.7121 23.4161 73.5267 22.7755 73.2113C22.1348 72.8958 21.563 72.4566 21.0931 71.9189L20.9458 71.7432C19.996 70.6597 19.5152 69.2434 19.6092 67.8056C19.7033 66.3678 20.3643 65.0262 21.4472 64.0756L28.4377 57.9391C28.974 57.4681 29.5979 57.1073 30.2737 56.8774C30.9494 56.6475 31.6639 56.553 32.3762 56.5993C33.0885 56.6456 33.7847 56.8318 34.425 57.1473C35.0653 57.4627 35.6372 57.9013 36.108 58.4378L36.2607 58.6121C37.2109 59.6954 37.6919 61.1118 37.5979 62.5497C37.5038 63.9876 36.8425 65.3293 35.7594 66.2797L28.7688 72.4162C27.7801 73.2895 26.5056 73.7703 25.1864 73.7675ZM32.0148 59.2918C31.3529 59.2902 30.7132 59.5305 30.2161 59.9675L23.2256 66.104C22.6803 66.5823 22.3474 67.2576 22.3 67.9814C22.2526 68.7052 22.4946 69.4181 22.9729 69.9635L23.1256 70.1378C23.6041 70.6816 24.279 71.0132 25.0018 71.0598C25.7247 71.1064 26.4365 70.8642 26.981 70.3864L33.9715 64.25C34.2413 64.0133 34.4618 63.7257 34.6205 63.4038C34.7791 63.0818 34.8728 62.7318 34.8962 62.3736C34.9195 62.0155 34.8721 61.6563 34.7565 61.3164C34.641 60.9766 34.4597 60.6629 34.2229 60.3932L34.0729 60.2216C33.8369 59.9517 33.5497 59.7313 33.228 59.5731C32.9063 59.4149 32.5564 59.3221 32.1985 59.3C32.135 59.2945 32.0756 59.2918 32.0148 59.2918Z" fill="#FF9800"/>
<path d="M19.3122 67.7527C19.1933 67.7527 19.0717 67.7527 18.9514 67.7405C17.8719 67.6725 16.8368 67.286 15.977 66.6298C15.1171 65.9737 14.4711 65.0773 14.1205 64.0541C13.7699 63.0309 13.7306 61.9267 14.0074 60.8811C14.2842 59.8355 14.8648 58.8954 15.6757 58.1797L20.0527 54.3378C20.589 53.8668 21.2129 53.506 21.8887 53.2761C22.5644 53.0462 23.2789 52.9517 23.9912 52.998C24.7035 53.0443 25.3997 53.2305 26.04 53.546C26.6803 53.8614 27.2522 54.2999 27.723 54.8365L27.7703 54.8905C28.2414 55.4268 28.6022 56.0507 28.832 56.7265C29.0619 57.4022 29.1564 58.1167 29.1101 58.829C29.0638 59.5413 28.8776 60.2375 28.5622 60.8778C28.2467 61.5181 27.8082 62.09 27.2717 62.5608L22.8946 66.4027C21.9058 67.2756 20.6313 67.7559 19.3122 67.7527ZM23.6365 55.6892C22.9746 55.6875 22.335 55.9278 21.8379 56.3649L17.4608 60.2067C17.191 60.4434 16.9705 60.731 16.8119 61.0529C16.6532 61.3749 16.5596 61.7249 16.5362 62.0831C16.5129 62.4412 16.5603 62.8004 16.6758 63.1403C16.7914 63.4801 16.9727 63.7938 17.2095 64.0635C17.4444 64.3417 17.7322 64.5705 18.0562 64.7367C18.3803 64.9029 18.734 65.003 19.0971 65.0315C19.4601 65.0599 19.8251 65.0159 20.171 64.9022C20.517 64.7885 20.8369 64.6072 21.1122 64.3689L25.4892 60.527C25.759 60.2903 25.9795 60.0028 26.1382 59.6808C26.2969 59.3589 26.3905 59.0089 26.4139 58.6507C26.4372 58.2926 26.3898 57.9333 26.2742 57.5935C26.1587 57.2537 25.9774 56.94 25.7406 56.6703L25.6933 56.6162C25.4572 56.3459 25.1699 56.1252 24.8479 55.9667C24.526 55.8083 24.1758 55.7153 23.8176 55.6932C23.7514 55.6919 23.6906 55.6892 23.6298 55.6892H23.6365Z" fill="#FF9800"/>
<path d="M16.8611 60.2864C16.5686 60.287 16.2839 60.1921 16.0503 60.0162L11.4327 56.5026C11.2914 56.3952 11.1727 56.261 11.0833 56.1076C10.9939 55.9543 10.9356 55.7849 10.9117 55.609C10.8878 55.4331 10.8988 55.2543 10.944 55.0826C10.9892 54.911 11.0678 54.75 11.1753 54.6087C11.3923 54.3234 11.7137 54.136 12.0689 54.0878C12.2448 54.0638 12.4236 54.0748 12.5952 54.12C12.7669 54.1653 12.9279 54.2438 13.0692 54.3513L17.6867 57.8648C17.9142 58.0354 18.0821 58.2734 18.1664 58.5449C18.2508 58.8164 18.2474 59.1076 18.1567 59.3771C18.066 59.6465 17.8926 59.8805 17.6612 60.0457C17.4298 60.2109 17.1521 60.2989 16.8678 60.2972L16.8611 60.2864Z" fill="#FF9800"/>
<path d="M79.0796 61.7838C78.8123 61.7837 78.5511 61.7044 78.329 61.556C78.1068 61.4075 77.9336 61.1964 77.8314 60.9495C77.7291 60.7026 77.7023 60.431 77.7545 60.1689C77.8066 59.9068 77.9352 59.666 78.1242 59.477L85.7066 51.8919C85.9615 51.6458 86.3028 51.5095 86.6572 51.5126C87.0115 51.5157 87.3504 51.6578 87.601 51.9084C87.8515 52.1589 87.9936 52.4979 87.9967 52.8522C87.9998 53.2065 87.8636 53.5479 87.6174 53.8027L80.035 61.3851C79.9098 61.5111 79.7609 61.6112 79.597 61.6796C79.433 61.748 79.2572 61.7834 79.0796 61.7838Z" fill="#FF9800"/>
<path d="M89.4189 58.9798C89.1878 58.9801 88.9605 58.9211 88.7587 58.8085C88.5568 58.6959 88.3873 58.5334 88.2662 58.3366L71.7662 31.4987C71.5919 31.2148 71.5285 30.8765 71.5884 30.5488C71.6483 30.2211 71.8271 29.927 72.0905 29.723L88.4324 17.0663C88.6118 16.9274 88.8233 16.8358 89.0473 16.8001C89.2714 16.7645 89.5009 16.7858 89.7145 16.8621C89.9282 16.9384 90.1192 17.0674 90.2699 17.2369C90.4207 17.4065 90.5263 17.6114 90.577 17.8325L98.6135 52.896C98.6802 53.1813 98.6523 53.4806 98.5341 53.7487C98.4159 54.0169 98.2137 54.2393 97.9581 54.3825L90.0783 58.8109C89.8767 58.9229 89.6496 58.9811 89.4189 58.9798ZM74.704 31.1149L89.8878 55.8109L95.754 52.5136L88.4162 20.4974L74.704 31.1149Z" fill="#FF9800"/>
<path d="M10.5815 59.4595C10.3501 59.4594 10.1225 59.3998 9.92069 59.2865L2.04096 54.8649C1.78533 54.7217 1.58317 54.4992 1.46495 54.2311C1.34674 53.963 1.31887 53.6637 1.38556 53.3784L9.4234 18.319C9.47413 18.0978 9.57974 17.893 9.73047 17.7234C9.8812 17.5538 10.0722 17.4249 10.2859 17.3486C10.4995 17.2722 10.729 17.2509 10.9531 17.2866C11.1771 17.3223 11.3886 17.4138 11.568 17.5527L27.9112 30.2081C28.1747 30.4121 28.3535 30.7062 28.4133 31.0339C28.4732 31.3616 28.4099 31.6999 28.2356 31.9838L11.7342 58.8216C11.6125 59.0175 11.4426 59.1789 11.2408 59.2905C11.0391 59.4022 10.8121 59.4604 10.5815 59.4595ZM4.24637 53.0027L10.1126 56.2987L25.2964 31.6014L11.5842 20.9838L4.24637 53.0027Z" fill="#FF9800"/>
</svg>
