<svg width="25" height="16" viewBox="0 0 25 16" fill="none" xmlns="http://www.w3.org/2000/svg">
<path d="M23.4486 1.02299C23.6198 0.436319 23.4486 0.00298531 22.6628 0.00298531H20.0391C19.7941 -0.0153225 19.5502 0.0509407 19.3443 0.191715C19.1385 0.332488 18.9819 0.540085 18.8983 0.782985C18.0852 2.81979 16.9989 4.72356 15.6726 6.43632C15.0388 7.10298 14.779 7.28299 14.4494 7.28299C14.2847 7.28299 14.0312 7.07632 14.0312 6.48965V1.02299C14.0248 0.322985 13.8347 0.00298531 13.3087 0.00298531H9.16398C9.08022 -0.00241379 8.99627 0.00974144 8.91701 0.0387456C8.83775 0.0677497 8.76475 0.113025 8.70225 0.171944C8.63976 0.230863 8.58901 0.302252 8.55295 0.381969C8.5169 0.461685 8.49625 0.548141 8.49221 0.636319C8.49221 1.30299 9.43649 1.45632 9.53789 3.30299V7.36965C9.53789 8.26299 9.38579 8.42299 9.04991 8.42299C8.15632 8.42299 5.99525 4.98299 4.70874 1.04299C4.43623 0.316319 4.19541 0.00298531 3.52363 0.00298531H0.899921C0.152099 0.00298531 0 0.376319 0 0.789652C0 1.52299 0.893584 5.15632 4.15104 9.95632C6.33747 13.2297 9.37312 15.003 12.1553 15.003C13.8284 15.003 14.0565 14.6097 14.0565 13.9297C14.0565 10.7963 13.9044 10.503 14.741 10.503C15.1275 10.503 15.7993 10.7097 17.3583 12.2897C19.1392 14.163 19.437 15.003 20.432 15.003H23.0557C23.8035 15.003 24.1838 14.6097 23.962 13.8297C23.4613 12.1963 20.0898 8.82965 19.9377 8.60299C19.5511 8.07632 19.6588 7.84299 19.9377 7.37632C19.9377 7.37632 23.1444 2.62965 23.474 1.02299H23.4486Z" fill="#D5D5D5"/>
</svg>
