<svg width="19" height="19" viewBox="0 0 19 19" fill="none" xmlns="http://www.w3.org/2000/svg">
<path d="M14.3264 9.50001C14.3264 9.1926 14.5756 8.94337 14.883 8.94337H16.0552C15.7871 5.75886 13.2412 3.2129 10.0567 2.94482V4.11704C10.0567 4.42445 9.80742 4.67368 9.50001 4.67368C9.1926 4.67368 8.94337 4.42445 8.94337 4.11704V2.94482C5.75886 3.2129 3.2129 5.75886 2.94482 8.94337H4.117C4.42441 8.94337 4.67364 9.1926 4.67364 9.50001C4.67364 9.80742 4.42441 10.0567 4.117 10.0567H2.94482C3.2129 13.2412 5.75886 15.7871 8.94337 16.0552V14.883C8.94337 14.5756 9.1926 14.3263 9.50001 14.3263C9.80742 14.3263 10.0567 14.5756 10.0567 14.883V16.0552C13.2412 15.7871 15.7871 13.2412 16.0552 10.0567H14.883C14.5756 10.0567 14.3264 9.80742 14.3264 9.50001ZM12.8618 6.8419L9.89905 9.8881C9.69279 10.1001 9.35658 10.1139 9.13367 9.91909L6.92202 7.98565C6.69057 7.78333 6.66697 7.43164 6.86933 7.20023C7.07165 6.96878 7.4233 6.9451 7.65478 7.1475L9.46902 8.73352L12.0637 6.06569C12.2781 5.84533 12.6305 5.84047 12.8509 6.05474C13.0712 6.26916 13.0761 6.62155 12.8618 6.8419Z" fill="#FF9800"/>
<path d="M9.5 0C4.26168 0 0 4.26168 0 9.5C0 14.7383 4.26168 19 9.5 19C14.7383 19 19 14.7383 19 9.5C19 4.26168 14.7383 0 9.5 0ZM9.5 17.1923C5.25847 17.1923 1.80775 13.7415 1.80775 9.5C1.80775 5.25847 5.25847 1.80775 9.5 1.80775C13.7415 1.80775 17.1923 5.25847 17.1923 9.5C17.1923 13.7415 13.7415 17.1923 9.5 17.1923Z" fill="#FF9800"/>
</svg>
