<svg width="55" height="55" viewBox="0 0 55 55" fill="none" xmlns="http://www.w3.org/2000/svg">
<path d="M20.0091 34.4541C19.724 33.7704 19.0543 33.3258 18.3135 33.3279C17.5722 33.33 16.9055 33.7784 16.6242 34.4639L14.249 40.3536L13.55 42.0356C12.8897 43.6379 13.0227 45.4572 13.908 46.947C14.7196 48.3417 16.148 49.265 17.7529 49.4321C17.9409 49.4517 18.1297 49.4615 18.3186 49.4615C18.507 49.4615 18.6954 49.4517 18.8825 49.4326C20.4882 49.2659 21.9179 48.3426 22.7295 46.947C23.6153 45.4576 23.7479 43.6379 23.0876 42.0356L20.0091 34.4541ZM21.1554 46.0092C20.6379 46.9052 19.7235 47.5003 18.695 47.6103C18.4443 47.6363 18.1915 47.6363 17.9409 47.6103C16.9127 47.4999 15.9993 46.9048 15.4818 46.0092C14.8914 45.0177 14.8023 43.8059 15.2414 42.7385L18.3147 35.1489L20.6971 41.0569L21.3962 42.7385C21.8352 43.8059 21.7462 45.0177 21.1554 46.0092Z" fill="#FF9800"/>
<path d="M5.49475 31.1428C4.98918 31.1428 4.5791 31.5529 4.5791 32.0589V32.975C4.5791 33.4805 4.98918 33.8906 5.49475 33.8906C6.00074 33.8906 6.41081 33.4805 6.41081 32.975V32.0589C6.41081 31.5529 6.00074 31.1428 5.49475 31.1428Z" fill="#FF9800"/>
<path d="M5.49472 35.7227C4.98917 35.7227 4.5791 36.1327 4.5791 36.6387V48.5455C4.5791 49.0515 4.98917 49.4616 5.49472 49.4616C6.00069 49.4616 6.41076 49.0515 6.41076 48.5455V36.6387C6.41076 36.1327 6.00069 35.7227 5.49472 35.7227Z" fill="#FF9800"/>
<path d="M49.8354 29.7472C47.5915 28.5929 45.6503 27.5694 44.9474 25.3158L49.1239 21.1392C49.4675 20.7957 49.6606 20.3298 49.6606 19.8438C49.6606 19.3579 49.4675 18.892 49.1239 18.5484L43.2956 12.7193C42.8685 12.2921 42.2581 12.1037 41.6643 12.215L33.6621 0.783441C33.3513 0.3397 32.8607 0.0558087 32.321 0.00849346C31.7814 -0.0383956 31.249 0.155128 30.8658 0.538339L20.4688 10.9353C19.8925 11.5146 19.768 12.4051 20.1627 13.1204L21.5084 15.5433L19.086 14.1967C18.3703 13.8028 17.4807 13.9277 16.9005 14.5032L14.2756 17.1285C14.1622 17.2449 14.0646 17.3762 13.9861 17.5186C10.001 17.7372 0 18.6213 0 21.9837V25.6474C0.0298385 26.3073 0.369571 26.9138 0.916041 27.2847V50.5493C0.921582 50.6013 0.931813 50.6525 0.947158 50.7028L0.94929 50.7151C0.961651 50.797 0.985096 50.8767 1.01877 50.9517C2.11725 54.0945 12.212 54.9569 18.3183 54.9569C24.7821 54.9569 35.7209 53.9922 35.7209 50.3771V34.5423L39.053 31.2101C41.3062 31.9131 42.3301 33.8538 43.4845 36.0981C44.0872 37.3927 44.8404 38.6114 45.7283 39.7295C46.5348 40.6677 47.6985 41.2227 48.9347 41.2593C48.9909 41.261 49.0472 41.2623 49.1035 41.2623C50.3302 41.261 51.5067 40.7742 52.375 39.9076L53.6457 38.6378C54.5532 37.7277 55.0426 36.4822 54.997 35.1974C54.9608 33.9613 54.4053 32.7976 53.4675 31.9915C52.349 31.1032 51.1299 30.3499 49.8354 29.7472ZM47.8294 19.843L33.5806 34.0921L27.7519 28.263L42.0006 14.0147L47.8294 19.843ZM2.37216 26.0728C2.16414 25.9701 1.98 25.8243 1.83251 25.6453L1.83166 25.6457V24.2126C2.19313 24.3899 2.56526 24.5442 2.94591 24.6755L2.98598 24.6892L2.98896 24.6904C6.22644 25.8631 11.9499 26.5634 18.3183 26.5634C20.1388 26.5634 21.9586 26.497 23.7386 26.3772L25.9531 27.9275C25.948 27.9539 25.9492 27.9812 25.9454 28.0081C23.4113 28.2677 20.8656 28.3968 18.3183 28.3951C11.218 28.3951 4.66546 27.4424 2.37216 26.0728ZM18.7786 22.9048L21.3042 24.6725C20.3132 24.7101 19.3161 24.7314 18.3183 24.7314C14.4938 24.7646 10.6736 24.4581 6.90292 23.8153C10.6736 23.1729 14.4938 22.8665 18.3183 22.8997C18.4747 22.9023 18.626 22.9035 18.7782 22.9048H18.7786ZM18.1959 15.7982L23.4211 18.701C23.7787 18.9001 24.2246 18.8374 24.514 18.5484C24.803 18.259 24.8657 17.8127 24.6666 17.4555L21.7642 12.2303L25.7476 8.24689L31.5819 15.2483C31.7886 15.5083 32.1203 15.6357 32.4476 15.5816C32.7754 15.5275 33.0482 15.3003 33.1603 14.9878C33.2729 14.6754 33.2072 14.3263 32.989 14.0761L27.0481 6.94636L32.1612 1.83333L40.1613 13.2627L26.9995 26.4245L15.5706 18.4239L18.1959 15.7982ZM13.9951 19.3562C14.1277 19.5808 14.3067 19.7748 14.5203 19.9248L16.1933 21.0953C10.871 21.2283 6.18083 21.8583 3.2801 22.8417C2.7396 22.6802 2.24385 22.3959 1.83166 22.0105V22.0058C2.11086 21.2761 5.94979 19.7961 13.9951 19.3562ZM18.3183 53.1252C8.62246 53.1252 3.03798 51.3324 2.7477 50.3669V28.2625C5.90631 29.4736 11.7329 30.2268 18.3183 30.2268C21.1094 30.2306 23.8981 30.0797 26.6722 29.7741L32.2852 35.3871C32.6279 35.732 33.0943 35.9251 33.5806 35.9238C33.6842 35.9225 33.7874 35.9123 33.8893 35.8935V50.3647C33.6079 51.3298 28.023 53.1252 18.3183 53.1252ZM52.3503 37.3428L51.08 38.6131C50.5297 39.16 49.7778 39.4549 49.0024 39.4285C48.2757 39.4089 47.5906 39.0841 47.1154 38.5338C46.3238 37.5235 45.652 36.4251 45.1132 35.2601C44.0527 33.1978 42.8732 30.9045 40.4818 29.7813L43.5181 26.7446C44.6413 29.1364 46.9342 30.3154 48.9969 31.3764C50.1619 31.9152 51.2604 32.587 52.2706 33.3786C52.8209 33.8538 53.1457 34.5384 53.1658 35.2652C53.193 36.041 52.8981 36.7929 52.3503 37.3428Z" fill="#FF9800"/>
<path d="M31.6386 26.9677L30.9911 27.6152C30.7536 27.8454 30.659 28.1856 30.743 28.5053C30.827 28.825 31.0763 29.0748 31.396 29.1588C31.7157 29.2427 32.0559 29.1477 32.2861 28.9107L32.934 28.2632C33.284 27.9038 33.2802 27.3305 32.9259 26.9758C32.5713 26.6216 31.9975 26.6177 31.6386 26.9677Z" fill="#FF9800"/>
<path d="M41.3521 17.253L34.2284 24.3772C33.9909 24.6074 33.8963 24.9475 33.9803 25.2672C34.0643 25.5869 34.3141 25.8367 34.6338 25.9207C34.9535 26.0047 35.2936 25.9096 35.5238 25.6726L42.6475 18.548C42.8845 18.3178 42.9796 17.9777 42.8956 17.658C42.8116 17.3383 42.5618 17.0885 42.2421 17.0049C41.9224 16.921 41.5823 17.0156 41.3521 17.253Z" fill="#FF9800"/>
</svg>
