<svg width="50" height="50" viewBox="0 0 50 50" fill="none" xmlns="http://www.w3.org/2000/svg">
<g clip-path="url(#clip0)">
<path d="M44.3384 0H18.3842C15.4029 0 12.9771 2.42581 12.9771 5.40712V19.4656H5.40712C2.42581 19.4656 0 21.8914 0 24.8727C0 27.854 2.42581 30.2799 5.40712 30.2799H12.9771V44.3384C12.9771 47.3197 15.4029 49.7455 18.3842 49.7455H44.3384C47.3197 49.7455 49.7455 47.3197 49.7455 44.3384V5.40712C49.7455 2.42581 47.3197 0 44.3384 0ZM5.40712 28.117C3.61865 28.117 2.16285 26.6612 2.16285 24.8727C2.16285 23.0843 3.61865 21.6285 5.40712 21.6285H31.3613C33.1497 21.6285 34.6056 23.0843 34.6056 24.8727C34.6056 26.6612 33.1497 28.117 31.3613 28.117H5.40712ZM31.3613 19.4656H23.2733C25.0565 16.7932 28.0758 15.1399 31.3613 15.1399C36.7272 15.1399 41.0941 19.5068 41.0941 24.8727C41.0941 30.2387 36.7272 34.6056 31.3613 34.6056C28.0758 34.6056 25.0565 32.9523 23.2733 30.2799H31.3613C34.3426 30.2799 36.7684 27.854 36.7684 24.8727C36.7684 21.8914 34.3426 19.4656 31.3613 19.4656ZM47.5826 44.3384C47.5826 46.1268 46.1268 47.5826 44.3384 47.5826H18.3842C16.5957 47.5826 15.1399 46.1268 15.1399 44.3384V30.2799H20.7762C22.7975 34.2423 26.8745 36.7684 31.3613 36.7684C37.9201 36.7684 43.2569 31.4315 43.2569 24.8727C43.2569 18.314 37.9201 12.9771 31.3613 12.9771C26.8745 12.9771 22.7975 15.5032 20.7762 19.4656H15.1399V5.40712C15.1399 3.61865 16.5957 2.16285 18.3842 2.16285H44.3384C46.1268 2.16285 47.5826 3.61865 47.5826 5.40712V44.3384Z" fill="#FF9800"/>
<path d="M42.1757 6.48865H20.5472C19.9506 6.48865 19.4658 6.97339 19.4658 7.57007C19.4658 8.16676 19.9506 8.65149 20.5472 8.65149H42.1757C42.7724 8.65149 43.2571 8.16676 43.2571 7.57007C43.2571 6.97339 42.7724 6.48865 42.1757 6.48865Z" fill="#FF9800"/>
<path d="M42.1757 41.0941H20.5472C19.9506 41.0941 19.4658 41.5789 19.4658 42.1755C19.4658 42.7722 19.9506 43.257 20.5472 43.257H42.1757C42.7724 43.257 43.2571 42.7722 43.2571 42.1755C43.2571 41.5789 42.7724 41.0941 42.1757 41.0941Z" fill="#FF9800"/>
</g>
<defs>
<clipPath id="clip0">
<rect width="49.7455" height="49.7455" fill="white"/>
</clipPath>
</defs>
</svg>
