<svg width="55" height="55" viewBox="0 0 55 55" fill="none" xmlns="http://www.w3.org/2000/svg">
<g clip-path="url(#clip0)">
<path d="M49.6471 23.3235V23.2647V14.3823C49.6471 10.3823 46.8235 8.91174 44.1765 8.91174H10.6471C8 8.91174 5.17647 10.3235 5.17647 14.3823V23.2647V23.3235C2.52941 23.6176 0 25.3823 0 29.4412V36.3823C0 37.5588 0.941176 38.5 2.11765 38.5H2.82353V43.9706C2.82353 45.147 3.76471 46.0882 4.94118 46.0882H6.94118C8.11765 46.0882 9.05882 45.147 9.05882 43.9706V38.4412H45.9412V43.9706C45.9412 45.147 46.8824 46.0882 48.0588 46.0882H50.0588C51.2353 46.0882 52.1765 45.147 52.1765 43.9706V38.4412H52.8824C54.0588 38.4412 55 37.5 55 36.3235V29.4412C54.8235 25.3823 52.2941 23.6176 49.6471 23.3235ZM7.17647 14.3823H7.29412C7.29412 11.6176 9.11765 11.0294 10.6471 11.0294H44.1765C45.7059 11.0294 47.5294 11.6176 47.5294 14.3823V23.2647H45.9412V18.2059C45.9412 17.0294 45 16.0882 43.8235 16.0882H30.8824C29.7059 16.0882 28.7647 17.0294 28.7647 18.2059V23.2647H26.2941V18.2059C26.2941 17.0294 25.3529 16.0882 24.1765 16.0882H11.2353C10.0588 16.0882 9.11765 17.0294 9.11765 18.2059V23.2647H7.17647V14.3823ZM43.8235 18.2059V23.2647H30.8824V18.2059H43.8235ZM24.2941 18.2059V23.2647H11.3529V18.2059H24.2941ZM6.88235 43.9706H4.88235V38.4412H6.88235V43.9706ZM49.9412 43.9706H47.9412V38.4412H49.9412V43.9706ZM52.7059 36.3823H49.9412H47.9412H6.88235H4.88235H2.05882V33.2647H52.7059V36.3823ZM52.7059 31.147H2.05882V29.4412C2.05882 25.9117 4.64706 25.3823 6.11765 25.3823H7.23529H11.2941H24.2353H30.8824H43.8235H47.5294H48.6471C50.1765 25.3823 52.7059 25.9117 52.7059 29.4412V31.147Z" fill="#FF9800"/>
</g>
<defs>
<clipPath id="clip0">
<rect width="55" height="55" fill="white"/>
</clipPath>
</defs>
</svg>
