<svg width="56" height="61" viewBox="0 0 56 61" fill="none" xmlns="http://www.w3.org/2000/svg">
<path d="M28.7067 37.3187H27.9163C30.4703 35.7857 32.4692 33.4337 33.5496 30.6204H33.9696C36.3437 30.6204 38.2757 28.6885 38.2757 26.3144C38.2757 24.104 36.5954 22.2983 34.4481 22.0572V22.0084H36.3619C36.891 22.0084 37.3188 21.5797 37.3188 21.0515V17.2239C37.3188 16.6957 36.891 16.267 36.3619 16.267H35.361C34.9466 10.1334 30.5995 4.90971 24.7069 3.35284L24.8715 2.03233C24.906 1.75962 24.8208 1.48595 24.64 1.28022C24.4581 1.07448 24.1969 0.956787 23.9223 0.956787H18.1809C17.9063 0.956787 17.6451 1.07448 17.4633 1.28022C17.2824 1.48595 17.1973 1.75962 17.2317 2.03233L17.3972 3.3538C11.4999 4.90971 7.15659 10.1248 6.74226 16.267H5.74135C5.21219 16.267 4.78446 16.6957 4.78446 17.2239V21.0515C4.78446 21.5797 5.21219 22.0084 5.74135 22.0084H7.65513V22.0572C5.50787 22.2983 3.82757 24.104 3.82757 26.3144C3.82757 28.6885 5.75953 30.6204 8.13358 30.6204H8.55365C9.63398 33.4337 11.6329 35.7857 14.1869 37.3187H13.3965C6.00928 37.3187 0 43.3279 0 50.7151V59.3272C0 59.8554 0.427731 60.284 0.956891 60.284H41.1463C41.6755 60.284 42.1032 59.8554 42.1032 59.3272V50.7151C42.1032 43.3279 36.0939 37.3187 28.7067 37.3187ZM30.6205 39.4056V47.8445H28.7067V39.2324C29.3603 39.2324 29.9966 39.3004 30.6205 39.4056ZM34.4481 58.3703H30.6205V52.6289C30.6205 52.1007 30.1928 51.672 29.6636 51.672H12.4396C11.9104 51.672 11.4827 52.1007 11.4827 52.6289V58.3703H7.65513V49.7582H34.4481V58.3703ZM28.7067 58.3703H13.3965V53.5858H28.7067V58.3703ZM36.3619 26.3144C36.3619 27.5765 35.3763 28.6033 34.1352 28.6904C34.3352 27.7689 34.4481 26.8158 34.4481 25.836V23.971C35.5389 24.193 36.3619 25.1594 36.3619 26.3144ZM22.8381 2.87057L22.1205 8.61192H19.9828L19.2651 2.87057H22.8381ZM17.6365 5.27332L18.1886 9.68746C18.2479 10.1669 18.6556 10.5257 19.1378 10.5257H22.9654C23.4477 10.5257 23.8553 10.1669 23.9146 9.68746L24.4668 5.27332C29.4072 6.68952 33.0434 11.0912 33.4472 16.267H8.65604C9.05889 11.0845 12.6932 6.68857 17.6365 5.27332ZM6.69824 18.1808H35.405V20.0946H6.69824V18.1808ZM5.74135 26.3144C5.74135 25.1594 6.56428 24.193 7.65513 23.971V25.836C7.65513 26.8158 7.76804 27.7689 7.96803 28.6904C6.72695 28.6033 5.74135 27.5765 5.74135 26.3144ZM9.56891 25.836V22.0084H32.5343V25.836C32.5343 32.1677 27.3834 37.3187 21.0516 37.3187C14.7199 37.3187 9.56891 32.1677 9.56891 25.836ZM26.793 39.2324V47.8445H15.3103V39.2324H26.793ZM13.3965 47.8445H11.4827V39.4056C12.1066 39.3004 12.7429 39.2324 13.3965 39.2324V47.8445ZM1.91378 50.7151C1.91378 45.7269 5.1165 41.484 9.56891 39.9023V47.8445H6.69824C6.16908 47.8445 5.74135 48.2732 5.74135 48.8014V58.3703H1.91378V50.7151ZM40.1894 58.3703H36.3619V48.8014C36.3619 48.2732 35.9341 47.8445 35.405 47.8445H32.5343V39.9023C36.9867 41.484 40.1894 45.7269 40.1894 50.7151V58.3703Z" fill="#FF9800"/>
<path d="M21.052 33.491C19.4693 33.491 18.1814 32.2031 18.1814 30.6204H16.2676C16.2676 33.2585 18.4139 35.4048 21.052 35.4048C23.6902 35.4048 25.8365 33.2585 25.8365 30.6204H23.9227C23.9227 32.2031 22.6347 33.491 21.052 33.491Z" fill="#FF9800"/>
<path d="M51.6724 36.6804V24.5604C53.9871 23.461 55.5 21.1108 55.5 18.5138C55.5 15.6853 53.7058 13.1495 51.0351 12.2041C50.7423 12.1017 50.417 12.1448 50.1634 12.3247C49.9089 12.5046 49.7586 12.7964 49.7586 13.1064V18.1177L48.8018 19.0746L47.8449 18.1177V13.1064C47.8449 12.7955 47.6946 12.5046 47.4401 12.3256C47.1865 12.1457 46.8612 12.1027 46.5684 12.2051C43.8977 13.1505 42.1035 15.6862 42.1035 18.5148C42.1035 21.1118 43.6164 23.4619 45.9311 24.5614V36.6804C43.6164 37.7799 42.1035 40.13 42.1035 42.727C42.1035 45.5556 43.8977 48.0914 46.5684 49.0368C46.8612 49.1401 47.1865 49.0951 47.4401 48.9162C47.6946 48.7363 47.8449 48.4444 47.8449 48.1344V43.1232L48.8018 42.1663L49.7586 43.1232V48.1344C49.7586 48.4454 49.9089 48.7363 50.1634 48.9152C50.327 49.031 50.5203 49.0913 50.7155 49.0913C50.8227 49.0913 50.9318 49.0731 51.0351 49.0368C53.7058 48.0904 55.5 45.5546 55.5 42.7261C55.5 40.13 53.9871 37.7789 51.6724 36.6804ZM51.6724 46.5479V42.727C51.6724 42.4734 51.572 42.2294 51.3921 42.0505L49.4783 40.1367C49.2917 39.9501 49.0467 39.8563 48.8018 39.8563C48.5568 39.8563 48.3118 39.9501 48.1252 40.1367L46.2114 42.0505C46.0316 42.2294 45.9311 42.4725 45.9311 42.7261V46.5469C44.7503 45.6589 44.0173 44.2523 44.0173 42.7261C44.0173 40.707 45.2995 38.8966 47.2076 38.221C47.5894 38.0851 47.8449 37.7244 47.8449 37.3187V23.9222C47.8449 23.5165 47.5894 23.1557 47.2076 23.0198C45.2995 22.3443 44.0173 20.5338 44.0173 18.5148C44.0173 16.9886 44.7503 15.5819 45.9311 14.6939V18.5148C45.9311 18.7684 46.0316 19.0124 46.2114 19.1913L48.1252 21.1051C48.4994 21.4792 49.1041 21.4792 49.4783 21.1051L51.3921 19.1913C51.572 19.0114 51.6724 18.7684 51.6724 18.5148V14.6939C52.8532 15.5819 53.5862 16.9886 53.5862 18.5148C53.5862 20.5338 52.304 22.3443 50.3959 23.0198C50.0141 23.1557 49.7586 23.5165 49.7586 23.9222V37.3187C49.7586 37.7244 50.0141 38.0851 50.3959 38.221C52.304 38.8966 53.5862 40.707 53.5862 42.7261C53.5862 44.2533 52.8532 45.6599 51.6724 46.5479Z" fill="#FF9800"/>
</svg>
